<svg width="264" height="144" viewBox="0 0 264 144" fill="none" xmlns="http://www.w3.org/2000/svg">
<g style="mix-blend-mode:multiply">
<path d="M192 143C231.212 143 263 111.212 263 72C263 32.7878 231.212 1 192 1C152.788 1 121 32.7878 121 72C121 111.212 152.788 143 192 143Z" fill="#86D5F3" fill-opacity="0.4"/>
<path d="M192 143C231.212 143 263 111.212 263 72C263 32.7878 231.212 1 192 1C152.788 1 121 32.7878 121 72C121 111.212 152.788 143 192 143Z" stroke="#56C6EB" stroke-width="1.97989"/>
</g>
<path d="M95.3011 101.603C96.0197 101.603 96.6023 101.02 96.6023 100.301C96.6023 99.5812 96.0197 98.998 95.3011 98.998C94.5825 98.998 94 99.5812 94 100.301C94 101.02 94.5825 101.603 95.3011 101.603Z" fill="#56C6EB"/>
<path d="M95.3047 100.301V88.5331L121.714 72" stroke="#56C6EB"/>
<path d="M8.86768 116.271C8.86768 117.316 8.66667 118.19 8.26465 118.893C7.86686 119.591 7.28923 120.118 6.53174 120.473C5.77425 120.824 4.8623 121 3.7959 121H1.16797V111.72H4.08154C5.05485 111.72 5.89909 111.893 6.61426 112.24C7.32943 112.583 7.88379 113.093 8.27734 113.77C8.6709 114.443 8.86768 115.277 8.86768 116.271ZM6.82373 116.322C6.82373 115.636 6.72217 115.073 6.51904 114.633C6.32015 114.189 6.02393 113.861 5.63037 113.649C5.24105 113.438 4.75863 113.332 4.18311 113.332H3.13574V119.375H3.97998C4.94059 119.375 5.65365 119.119 6.11914 118.607C6.58887 118.095 6.82373 117.333 6.82373 116.322ZM14.7329 113.224C14.3563 113.224 14.022 113.298 13.73 113.446C13.4422 113.59 13.1989 113.8 13 114.075C12.8053 114.35 12.6572 114.682 12.5557 115.071C12.4541 115.461 12.4033 115.899 12.4033 116.385C12.4033 117.041 12.4837 117.602 12.6445 118.067C12.8096 118.529 13.0635 118.882 13.4062 119.127C13.749 119.369 14.1912 119.489 14.7329 119.489C15.1095 119.489 15.4862 119.447 15.8628 119.362C16.2437 119.278 16.6562 119.157 17.1006 119V120.651C16.6901 120.82 16.286 120.941 15.8882 121.013C15.4904 121.089 15.0439 121.127 14.5488 121.127C13.5924 121.127 12.8053 120.93 12.1875 120.537C11.5739 120.139 11.119 119.584 10.8228 118.874C10.5265 118.158 10.3784 117.325 10.3784 116.373C10.3784 115.67 10.4736 115.027 10.6641 114.443C10.8545 113.859 11.1338 113.353 11.502 112.926C11.8701 112.498 12.325 112.168 12.8667 111.936C13.4084 111.703 14.0304 111.586 14.7329 111.586C15.1942 111.586 15.6554 111.646 16.1167 111.764C16.5822 111.878 17.0265 112.037 17.4497 112.24L16.8149 113.84C16.4679 113.675 16.1188 113.531 15.7676 113.408C15.4163 113.285 15.0715 113.224 14.7329 113.224ZM22.0454 111.72C23.243 111.72 24.1169 111.978 24.667 112.494C25.2171 113.006 25.4922 113.713 25.4922 114.614C25.4922 115.021 25.4308 115.41 25.3081 115.782C25.1854 116.15 24.9844 116.478 24.7051 116.766C24.43 117.054 24.0618 117.282 23.6006 117.452C23.1393 117.617 22.5701 117.699 21.8931 117.699H21.0488V121H19.0811V111.72H22.0454ZM21.9438 113.332H21.0488V116.087H21.6963C22.0645 116.087 22.384 116.038 22.6548 115.941C22.9256 115.844 23.1351 115.691 23.2832 115.484C23.4313 115.277 23.5054 115.01 23.5054 114.684C23.5054 114.227 23.3784 113.889 23.1245 113.668C22.8706 113.444 22.4771 113.332 21.9438 113.332ZM34.5503 121L32.3159 113.719H32.2588C32.2673 113.893 32.2799 114.155 32.2969 114.506C32.318 114.853 32.3371 115.224 32.354 115.617C32.3709 116.011 32.3794 116.366 32.3794 116.684V121H30.6211V111.72H33.2998L35.4961 118.816H35.5342L37.8638 111.72H40.5425V121H38.708V116.607C38.708 116.315 38.7122 115.979 38.7207 115.598C38.7334 115.217 38.7482 114.855 38.7651 114.513C38.7821 114.166 38.7948 113.905 38.8032 113.732H38.7461L36.353 121H34.5503ZM45.6587 113.77C46.3146 113.77 46.8796 113.897 47.3535 114.151C47.8275 114.401 48.1935 114.764 48.4517 115.243C48.7098 115.721 48.8389 116.305 48.8389 116.995V117.934H44.2622C44.2834 118.48 44.4463 118.91 44.751 119.223C45.0599 119.532 45.4873 119.686 46.0332 119.686C46.486 119.686 46.9007 119.639 47.2773 119.546C47.654 119.453 48.0412 119.314 48.439 119.127V120.625C48.0877 120.799 47.7196 120.926 47.3345 121.006C46.9536 121.087 46.4902 121.127 45.9443 121.127C45.2334 121.127 44.6029 120.996 44.0527 120.733C43.5068 120.471 43.0773 120.071 42.7642 119.534C42.4552 118.996 42.3008 118.319 42.3008 117.502C42.3008 116.673 42.4404 115.983 42.7197 115.433C43.0033 114.879 43.3968 114.464 43.9004 114.189C44.404 113.91 44.9901 113.77 45.6587 113.77ZM45.6714 115.147C45.2948 115.147 44.9816 115.268 44.7319 115.509C44.4865 115.75 44.3447 116.129 44.3066 116.646H47.0234C47.0192 116.358 46.9663 116.102 46.8647 115.877C46.7674 115.653 46.6193 115.475 46.4204 115.344C46.2257 115.213 45.9761 115.147 45.6714 115.147ZM58.7476 113.77C59.5516 113.77 60.1589 113.977 60.5693 114.392C60.984 114.803 61.1914 115.463 61.1914 116.373V121H59.249V116.855C59.249 116.347 59.1623 115.964 58.9888 115.706C58.8153 115.448 58.5465 115.319 58.1826 115.319C57.6706 115.319 57.3066 115.503 57.0908 115.871C56.875 116.235 56.7671 116.758 56.7671 117.439V121H54.8311V116.855C54.8311 116.516 54.793 116.233 54.7168 116.004C54.6406 115.776 54.5243 115.604 54.3677 115.49C54.2111 115.376 54.0101 115.319 53.7646 115.319C53.4049 115.319 53.1214 115.41 52.9141 115.592C52.7109 115.77 52.5649 116.034 52.4761 116.385C52.3914 116.732 52.3491 117.158 52.3491 117.661V121H50.4131V113.903H51.8921L52.1523 114.811H52.2603C52.4041 114.566 52.584 114.367 52.7998 114.214C53.0199 114.062 53.2611 113.95 53.5234 113.878C53.7858 113.806 54.0524 113.77 54.3232 113.77C54.8438 113.77 55.2839 113.855 55.6436 114.024C56.0075 114.193 56.2868 114.456 56.4814 114.811H56.6528C56.8644 114.447 57.1628 114.183 57.5479 114.018C57.9372 113.853 58.3371 113.77 58.7476 113.77ZM65.1206 111.123V113.421C65.1206 113.688 65.1121 113.952 65.0952 114.214C65.0825 114.477 65.0656 114.68 65.0444 114.824H65.1206C65.3068 114.532 65.5607 114.284 65.8823 114.081C66.2039 113.874 66.6208 113.77 67.1328 113.77C67.9284 113.77 68.5737 114.081 69.0688 114.703C69.564 115.325 69.8115 116.237 69.8115 117.439C69.8115 118.247 69.6973 118.926 69.4688 119.477C69.2402 120.022 68.9207 120.435 68.5103 120.714C68.0998 120.989 67.6237 121.127 67.082 121.127C66.5615 121.127 66.151 121.034 65.8506 120.848C65.5501 120.661 65.3068 120.452 65.1206 120.219H64.9873L64.6636 121H63.1846V111.123H65.1206ZM66.5107 115.319C66.1722 115.319 65.9035 115.389 65.7046 115.528C65.5057 115.668 65.3597 115.877 65.2666 116.157C65.1777 116.436 65.1291 116.789 65.1206 117.217V117.426C65.1206 118.116 65.2222 118.645 65.4253 119.013C65.6284 119.377 65.9987 119.559 66.5361 119.559C66.9339 119.559 67.2492 119.375 67.4819 119.007C67.7189 118.639 67.8374 118.108 67.8374 117.414C67.8374 116.72 67.7189 116.197 67.4819 115.846C67.245 115.494 66.9212 115.319 66.5107 115.319ZM74.3374 113.77C74.9933 113.77 75.5583 113.897 76.0322 114.151C76.5062 114.401 76.8722 114.764 77.1304 115.243C77.3885 115.721 77.5176 116.305 77.5176 116.995V117.934H72.9409C72.9621 118.48 73.125 118.91 73.4297 119.223C73.7386 119.532 74.166 119.686 74.7119 119.686C75.1647 119.686 75.5794 119.639 75.9561 119.546C76.3327 119.453 76.7199 119.314 77.1177 119.127V120.625C76.7664 120.799 76.3983 120.926 76.0132 121.006C75.6323 121.087 75.1689 121.127 74.623 121.127C73.9121 121.127 73.2816 120.996 72.7314 120.733C72.1855 120.471 71.756 120.071 71.4429 119.534C71.134 118.996 70.9795 118.319 70.9795 117.502C70.9795 116.673 71.1191 115.983 71.3984 115.433C71.682 114.879 72.0755 114.464 72.5791 114.189C73.0827 113.91 73.6688 113.77 74.3374 113.77ZM74.3501 115.147C73.9735 115.147 73.6603 115.268 73.4106 115.509C73.1652 115.75 73.0234 116.129 72.9854 116.646H75.7021C75.6979 116.358 75.645 116.102 75.5435 115.877C75.4461 115.653 75.298 115.475 75.0991 115.344C74.9045 115.213 74.6548 115.147 74.3501 115.147ZM83.0527 113.77C83.1501 113.77 83.2622 113.776 83.3892 113.789C83.5203 113.798 83.6261 113.81 83.7065 113.827L83.5605 115.643C83.4971 115.621 83.4061 115.607 83.2876 115.598C83.1733 115.585 83.0739 115.579 82.9893 115.579C82.7396 115.579 82.4963 115.611 82.2593 115.674C82.0265 115.738 81.8171 115.841 81.6309 115.985C81.4447 116.125 81.2965 116.311 81.1865 116.544C81.0807 116.772 81.0278 117.054 81.0278 117.388V121H79.0918V113.903H80.5581L80.8438 115.097H80.939C81.0786 114.855 81.2521 114.635 81.4595 114.437C81.6711 114.233 81.9102 114.073 82.1768 113.954C82.4476 113.831 82.7396 113.77 83.0527 113.77ZM91.4888 111.72C92.6864 111.72 93.5602 111.978 94.1104 112.494C94.6605 113.006 94.9355 113.713 94.9355 114.614C94.9355 115.021 94.8742 115.41 94.7515 115.782C94.6287 116.15 94.4277 116.478 94.1484 116.766C93.8734 117.054 93.5052 117.282 93.0439 117.452C92.5827 117.617 92.0135 117.699 91.3364 117.699H90.4922V121H88.5244V111.72H91.4888ZM91.3872 113.332H90.4922V116.087H91.1396C91.5078 116.087 91.8273 116.038 92.0981 115.941C92.369 115.844 92.5785 115.691 92.7266 115.484C92.8747 115.277 92.9487 115.01 92.9487 114.684C92.9487 114.227 92.8218 113.889 92.5679 113.668C92.314 113.444 91.9204 113.332 91.3872 113.332ZM99.4424 113.757C100.395 113.757 101.125 113.965 101.632 114.379C102.14 114.794 102.394 115.425 102.394 116.271V121H101.042L100.667 120.035H100.617C100.414 120.289 100.206 120.496 99.9946 120.657C99.783 120.818 99.5397 120.937 99.2646 121.013C98.9896 121.089 98.6553 121.127 98.2617 121.127C97.8428 121.127 97.4661 121.047 97.1318 120.886C96.8018 120.725 96.5415 120.479 96.3511 120.149C96.1606 119.815 96.0654 119.392 96.0654 118.88C96.0654 118.127 96.3299 117.572 96.8589 117.217C97.3879 116.857 98.1813 116.658 99.2393 116.62L100.471 116.582V116.271C100.471 115.899 100.373 115.626 100.179 115.452C99.984 115.279 99.7132 115.192 99.3662 115.192C99.0234 115.192 98.687 115.241 98.3569 115.338C98.0269 115.435 97.6968 115.558 97.3667 115.706L96.7256 114.398C97.1022 114.2 97.5233 114.043 97.9888 113.929C98.4585 113.814 98.943 113.757 99.4424 113.757ZM100.471 117.712L99.7217 117.737C99.0954 117.754 98.6595 117.866 98.4141 118.074C98.1729 118.281 98.0522 118.554 98.0522 118.893C98.0522 119.189 98.139 119.4 98.3125 119.527C98.486 119.65 98.7124 119.711 98.9917 119.711C99.4064 119.711 99.7555 119.589 100.039 119.343C100.327 119.098 100.471 118.749 100.471 118.296V117.712ZM108.354 113.77C108.452 113.77 108.564 113.776 108.691 113.789C108.822 113.798 108.928 113.81 109.008 113.827L108.862 115.643C108.799 115.621 108.708 115.607 108.589 115.598C108.475 115.585 108.376 115.579 108.291 115.579C108.041 115.579 107.798 115.611 107.561 115.674C107.328 115.738 107.119 115.841 106.933 115.985C106.746 116.125 106.598 116.311 106.488 116.544C106.382 116.772 106.33 117.054 106.33 117.388V121H104.394V113.903H105.86L106.146 115.097H106.241C106.38 114.855 106.554 114.635 106.761 114.437C106.973 114.233 107.212 114.073 107.479 113.954C107.749 113.831 108.041 113.77 108.354 113.77ZM112.233 111.123V115.541C112.233 115.808 112.222 116.074 112.201 116.341C112.18 116.607 112.157 116.874 112.131 117.141H112.157C112.288 116.954 112.421 116.77 112.557 116.588C112.696 116.406 112.844 116.231 113.001 116.062L114.988 113.903H117.171L114.353 116.982L117.343 121H115.108L113.064 118.125L112.233 118.791V121H110.297V111.123H112.233ZM123.31 118.893C123.31 119.375 123.195 119.783 122.967 120.118C122.743 120.448 122.406 120.7 121.958 120.873C121.509 121.042 120.95 121.127 120.282 121.127C119.787 121.127 119.361 121.095 119.006 121.032C118.655 120.968 118.299 120.862 117.939 120.714V119.115C118.325 119.288 118.737 119.432 119.177 119.546C119.622 119.656 120.011 119.711 120.345 119.711C120.722 119.711 120.991 119.656 121.151 119.546C121.316 119.432 121.399 119.284 121.399 119.102C121.399 118.984 121.365 118.878 121.297 118.785C121.234 118.687 121.094 118.579 120.878 118.461C120.663 118.338 120.324 118.18 119.863 117.985C119.418 117.799 119.052 117.61 118.765 117.42C118.481 117.229 118.27 117.005 118.13 116.747C117.994 116.485 117.927 116.153 117.927 115.75C117.927 115.095 118.181 114.602 118.688 114.271C119.201 113.937 119.884 113.77 120.739 113.77C121.179 113.77 121.598 113.814 121.996 113.903C122.398 113.992 122.81 114.134 123.233 114.329L122.649 115.725C122.298 115.573 121.966 115.448 121.653 115.351C121.344 115.253 121.029 115.205 120.707 115.205C120.424 115.205 120.21 115.243 120.066 115.319C119.922 115.395 119.85 115.511 119.85 115.668C119.85 115.782 119.886 115.884 119.958 115.973C120.034 116.062 120.178 116.161 120.39 116.271C120.605 116.377 120.921 116.514 121.335 116.684C121.737 116.849 122.087 117.022 122.383 117.204C122.679 117.382 122.908 117.604 123.068 117.871C123.229 118.133 123.31 118.474 123.31 118.893Z" fill="#56C6EB"/>
<g style="mix-blend-mode:multiply">
<path d="M3.48584 139.264H2.56738V132.217H0.0966797V131.411H5.9458V132.217H3.48584V139.264ZM12.0742 136.31C12.0742 136.793 12.0116 137.224 11.8862 137.604C11.7609 137.984 11.5801 138.304 11.3438 138.565C11.1074 138.827 10.821 139.027 10.4844 139.167C10.1514 139.303 9.7736 139.371 9.35107 139.371C8.95719 139.371 8.59554 139.303 8.26611 139.167C7.94027 139.027 7.65739 138.827 7.41748 138.565C7.18115 138.304 6.99674 137.984 6.86426 137.604C6.73535 137.224 6.6709 136.793 6.6709 136.31C6.6709 135.665 6.78011 135.117 6.99854 134.666C7.21696 134.211 7.52848 133.866 7.93311 133.629C8.34131 133.389 8.8265 133.27 9.38867 133.27C9.92578 133.27 10.3949 133.389 10.7959 133.629C11.2005 133.869 11.5138 134.217 11.7358 134.671C11.9614 135.123 12.0742 135.669 12.0742 136.31ZM7.59473 136.31C7.59473 136.782 7.65739 137.192 7.78271 137.54C7.90804 137.887 8.1014 138.155 8.36279 138.345C8.62419 138.535 8.96077 138.63 9.37256 138.63C9.78076 138.63 10.1156 138.535 10.377 138.345C10.6419 138.155 10.8371 137.887 10.9624 137.54C11.0877 137.192 11.1504 136.782 11.1504 136.31C11.1504 135.84 11.0877 135.436 10.9624 135.096C10.8371 134.752 10.6437 134.487 10.3823 134.301C10.1209 134.115 9.78255 134.021 9.36719 134.021C8.75488 134.021 8.3055 134.224 8.01904 134.628C7.73617 135.033 7.59473 135.593 7.59473 136.31ZM15.5171 138.641C15.6639 138.641 15.8143 138.628 15.9683 138.603C16.1222 138.578 16.2476 138.548 16.3442 138.512V139.205C16.2404 139.251 16.0954 139.291 15.9092 139.323C15.7266 139.355 15.5475 139.371 15.3721 139.371C15.0605 139.371 14.7777 139.317 14.5234 139.21C14.2692 139.099 14.0651 138.913 13.9111 138.651C13.7607 138.39 13.6855 138.028 13.6855 137.566V134.075H12.8477V133.64L13.6909 133.291L14.0454 132.013H14.5825V133.377H16.3066V134.075H14.5825V137.54C14.5825 137.908 14.6667 138.184 14.835 138.367C15.0068 138.549 15.2342 138.641 15.5171 138.641ZM19.7388 133.28C20.4406 133.28 20.9616 133.438 21.3018 133.753C21.6419 134.068 21.812 134.571 21.812 135.262V139.264H21.1621L20.9902 138.394H20.9473C20.7826 138.608 20.6107 138.789 20.4316 138.936C20.2526 139.079 20.0449 139.188 19.8086 139.264C19.5758 139.335 19.2894 139.371 18.9492 139.371C18.5911 139.371 18.2725 139.308 17.9932 139.183C17.7174 139.058 17.499 138.868 17.3379 138.614C17.1803 138.36 17.1016 138.037 17.1016 137.647C17.1016 137.06 17.3343 136.609 17.7998 136.293C18.2653 135.978 18.9743 135.806 19.9268 135.778L20.9419 135.735V135.375C20.9419 134.867 20.8327 134.51 20.6143 134.306C20.3958 134.102 20.0879 134 19.6904 134C19.3825 134 19.0889 134.045 18.8096 134.134C18.5303 134.224 18.2653 134.329 18.0146 134.451L17.7407 133.774C18.0057 133.638 18.3101 133.522 18.6538 133.425C18.9976 133.329 19.3592 133.28 19.7388 133.28ZM20.9312 136.363L20.0342 136.401C19.3001 136.43 18.7827 136.549 18.4819 136.761C18.1812 136.972 18.0308 137.271 18.0308 137.658C18.0308 137.994 18.1328 138.243 18.3369 138.404C18.541 138.565 18.8114 138.646 19.1479 138.646C19.6707 138.646 20.0986 138.501 20.4316 138.211C20.7646 137.921 20.9312 137.486 20.9312 136.906V136.363ZM24.5459 139.264H23.6489V130.906H24.5459V139.264ZM31.8345 139.264H30.916V132.217H28.4453V131.411H34.2944V132.217H31.8345V139.264ZM40.4067 139.264L39.4399 136.771H36.2925L35.3311 139.264H34.4072L37.4795 131.379H38.3013L41.3521 139.264H40.4067ZM39.166 135.96L38.2476 133.484C38.2261 133.42 38.1903 133.314 38.1401 133.167C38.0936 133.021 38.0452 132.868 37.9951 132.711C37.945 132.553 37.9038 132.426 37.8716 132.33C37.8358 132.476 37.7964 132.623 37.7534 132.77C37.714 132.913 37.6746 133.048 37.6353 133.173C37.5959 133.295 37.5618 133.398 37.5332 133.484L36.5986 135.96H39.166Z" fill="#56C6EB"/>
</g>
<g style="mix-blend-mode:multiply">
<path d="M52.1069 137.636H51.1616V139.264H49.5396V137.636H46.188V136.481L49.6309 131.411H51.1616V136.347H52.1069V137.636ZM49.5396 136.347V135.015C49.5396 134.89 49.5413 134.741 49.5449 134.569C49.5521 134.397 49.5592 134.226 49.5664 134.054C49.5736 133.882 49.5807 133.73 49.5879 133.597C49.5986 133.461 49.6058 133.366 49.6094 133.312H49.5664C49.4984 133.459 49.4268 133.603 49.3516 133.742C49.2764 133.878 49.1886 134.021 49.0884 134.172L47.6489 136.347H49.5396ZM55.5928 134.247C56.0726 134.247 56.4987 134.338 56.8711 134.521C57.2471 134.704 57.5425 134.972 57.7573 135.327C57.9722 135.681 58.0796 136.118 58.0796 136.637C58.0796 137.203 57.9614 137.692 57.7251 138.104C57.4924 138.512 57.1432 138.825 56.6777 139.043C56.2158 139.262 55.6393 139.371 54.9482 139.371C54.5365 139.371 54.1479 139.335 53.7827 139.264C53.4211 139.196 53.1042 139.09 52.832 138.947V137.513C53.1042 137.656 53.43 137.778 53.8096 137.878C54.1927 137.975 54.5526 138.023 54.8892 138.023C55.2186 138.023 55.4961 137.98 55.7217 137.894C55.9473 137.805 56.1174 137.668 56.2319 137.486C56.3501 137.3 56.4092 137.063 56.4092 136.777C56.4092 136.394 56.2803 136.1 56.0225 135.896C55.7646 135.692 55.369 135.59 54.8354 135.59C54.6313 135.59 54.4183 135.61 54.1963 135.649C53.9779 135.688 53.7952 135.728 53.6484 135.767L52.9878 135.413L53.2832 131.411H57.5425V132.818H54.7388L54.5938 134.36C54.7155 134.335 54.848 134.31 54.9912 134.285C55.1344 134.26 55.335 134.247 55.5928 134.247ZM64.5195 139.264H59.0303V138.109L61.0015 136.116C61.3989 135.708 61.7176 135.368 61.9575 135.096C62.201 134.82 62.3765 134.569 62.4839 134.344C62.5949 134.118 62.6504 133.876 62.6504 133.619C62.6504 133.307 62.5627 133.074 62.3872 132.92C62.2153 132.763 61.9844 132.684 61.6943 132.684C61.39 132.684 61.0946 132.754 60.8081 132.894C60.5216 133.033 60.2227 133.232 59.9111 133.49L59.0088 132.421C59.2344 132.228 59.4725 132.045 59.7231 131.873C59.9774 131.701 60.271 131.563 60.604 131.459C60.9406 131.352 61.3434 131.298 61.8125 131.298C62.3281 131.298 62.7703 131.391 63.1392 131.578C63.5116 131.764 63.798 132.018 63.9985 132.34C64.1991 132.659 64.2993 133.021 64.2993 133.425C64.2993 133.859 64.2134 134.254 64.0415 134.612C63.8696 134.97 63.619 135.325 63.2896 135.676C62.9637 136.027 62.5698 136.415 62.1079 136.841L61.0981 137.792V137.867H64.5195V139.264ZM65.5132 138.496C65.5132 138.159 65.6045 137.923 65.7871 137.787C65.9733 137.651 66.1971 137.583 66.4585 137.583C66.7127 137.583 66.9312 137.651 67.1138 137.787C67.3 137.923 67.3931 138.159 67.3931 138.496C67.3931 138.818 67.3 139.051 67.1138 139.194C66.9312 139.337 66.7127 139.409 66.4585 139.409C66.1971 139.409 65.9733 139.337 65.7871 139.194C65.6045 139.051 65.5132 138.818 65.5132 138.496ZM74.1284 137.636H73.1831V139.264H71.561V137.636H68.2095V136.481L71.6523 131.411H73.1831V136.347H74.1284V137.636ZM71.561 136.347V135.015C71.561 134.89 71.5628 134.741 71.5664 134.569C71.5736 134.397 71.5807 134.226 71.5879 134.054C71.5951 133.882 71.6022 133.73 71.6094 133.597C71.6201 133.461 71.6273 133.366 71.6309 133.312H71.5879C71.5199 133.459 71.4482 133.603 71.373 133.742C71.2979 133.878 71.2101 134.021 71.1099 134.172L69.6704 136.347H71.561ZM81.9219 137.652C81.9219 138.028 81.827 138.345 81.6372 138.603C81.451 138.857 81.1825 139.049 80.8315 139.178C80.4842 139.307 80.0688 139.371 79.5854 139.371C79.1737 139.371 78.8174 139.339 78.5166 139.274C78.2158 139.21 77.9526 139.119 77.7271 139V138.179C77.967 138.297 78.2534 138.404 78.5864 138.501C78.9194 138.598 79.2596 138.646 79.6069 138.646C80.1154 138.646 80.4842 138.564 80.7134 138.399C80.9425 138.234 81.0571 138.01 81.0571 137.728C81.0571 137.566 81.0106 137.425 80.9175 137.303C80.828 137.178 80.6758 137.058 80.4609 136.943C80.2461 136.825 79.9489 136.696 79.5693 136.557C79.1934 136.413 78.8675 136.272 78.5918 136.132C78.3197 135.989 78.1084 135.815 77.958 135.611C77.8112 135.407 77.7378 135.142 77.7378 134.816C77.7378 134.319 77.9383 133.937 78.3394 133.672C78.744 133.404 79.2739 133.27 79.9292 133.27C80.2837 133.27 80.6149 133.305 80.9229 133.377C81.2344 133.445 81.5244 133.538 81.793 133.656L81.4922 134.371C81.2487 134.267 80.9891 134.179 80.7134 134.107C80.4377 134.036 80.1566 134 79.8701 134C79.4583 134 79.1414 134.068 78.9194 134.204C78.701 134.34 78.5918 134.526 78.5918 134.763C78.5918 134.945 78.6419 135.096 78.7422 135.214C78.846 135.332 79.0107 135.443 79.2363 135.547C79.4619 135.651 79.7591 135.772 80.1279 135.912C80.4967 136.048 80.8154 136.19 81.084 136.336C81.3525 136.48 81.5584 136.655 81.7017 136.863C81.8485 137.067 81.9219 137.33 81.9219 137.652ZM87.3037 141.896V139.371C87.3037 139.231 87.3073 139.07 87.3145 138.888C87.3216 138.705 87.3341 138.548 87.3521 138.415H87.293C87.1283 138.687 86.8937 138.915 86.5894 139.097C86.285 139.28 85.8929 139.371 85.4131 139.371C84.6934 139.371 84.1151 139.117 83.6782 138.608C83.2414 138.1 83.0229 137.341 83.0229 136.331C83.0229 135.669 83.1232 135.11 83.3237 134.655C83.5243 134.201 83.8071 133.857 84.1724 133.624C84.5412 133.388 84.9709 133.27 85.4614 133.27C85.9305 133.27 86.3136 133.363 86.6108 133.549C86.908 133.731 87.1408 133.955 87.3091 134.22H87.3521L87.4863 133.377H88.1953V141.896H87.3037ZM85.5796 138.63C85.995 138.63 86.328 138.553 86.5786 138.399C86.8293 138.241 87.0119 138.005 87.1265 137.69C87.2446 137.375 87.3073 136.983 87.3145 136.514V136.326C87.3145 135.567 87.1855 134.992 86.9277 134.602C86.6699 134.208 86.2205 134.011 85.5796 134.011C85.0282 134.011 84.6182 134.222 84.3496 134.645C84.0811 135.063 83.9468 135.633 83.9468 136.353C83.9468 137.072 84.0811 137.633 84.3496 138.034C84.6182 138.431 85.0282 138.63 85.5796 138.63ZM99.3403 133.27C99.9884 133.27 100.477 133.44 100.807 133.78C101.136 134.116 101.301 134.659 101.301 135.407V139.264H100.42V135.45C100.42 134.974 100.316 134.618 100.108 134.381C99.9043 134.141 99.5999 134.021 99.1953 134.021C98.626 134.021 98.2124 134.186 97.9546 134.516C97.6968 134.845 97.5679 135.33 97.5679 135.971V139.264H96.6816V135.45C96.6816 135.132 96.6351 134.867 96.542 134.655C96.4525 134.444 96.3164 134.286 96.1338 134.183C95.9548 134.075 95.7274 134.021 95.4517 134.021C95.0614 134.021 94.748 134.102 94.5117 134.263C94.2754 134.424 94.1035 134.664 93.9961 134.983C93.8923 135.298 93.8403 135.687 93.8403 136.148V139.264H92.9487V133.377H93.6685L93.8027 134.209H93.8511C93.9692 134.005 94.1178 133.833 94.2969 133.694C94.4759 133.554 94.6764 133.449 94.8984 133.377C95.1204 133.305 95.3568 133.27 95.6074 133.27C96.055 133.27 96.4292 133.354 96.73 133.522C97.0343 133.687 97.2546 133.939 97.3906 134.279H97.439C97.6323 133.939 97.8973 133.687 98.2339 133.522C98.5705 133.354 98.9393 133.27 99.3403 133.27ZM104.024 133.377V139.264H103.132V133.377H104.024ZM103.589 131.175C103.736 131.175 103.861 131.223 103.965 131.32C104.072 131.413 104.126 131.56 104.126 131.76C104.126 131.957 104.072 132.104 103.965 132.201C103.861 132.297 103.736 132.346 103.589 132.346C103.435 132.346 103.306 132.297 103.202 132.201C103.102 132.104 103.052 131.957 103.052 131.76C103.052 131.56 103.102 131.413 103.202 131.32C103.306 131.223 103.435 131.175 103.589 131.175Z" fill="#56C6EB"/>
</g>
</svg>
