<svg width="18" height="18" viewBox="0 0 18 18" fill="none" xmlns="http://www.w3.org/2000/svg">
<g id="Color=blue">
<path id="Path 5 (Stroke)" fill-rule="evenodd" clip-rule="evenodd" d="M5.7295 3.65729C6.33175 2.69493 7.61483 2.80983 8.07822 3.86763L11.5648 11.8266C11.7794 12.3165 12.3777 12.359 12.6439 11.9033L15.688 6.69153C15.8029 6.49484 16.0357 6.44169 16.208 6.57282C16.3804 6.70394 16.4269 6.96968 16.312 7.16636L13.2679 12.3781C12.6823 13.3807 11.3661 13.2872 10.894 12.2094L7.4074 4.25045C7.19676 3.76964 6.61355 3.71741 6.3398 4.15484L2.30518 10.6018C2.1848 10.7942 1.95059 10.8387 1.78206 10.7013C1.61354 10.5639 1.5745 10.2966 1.69488 10.1043L5.7295 3.65729Z" fill="#49565D"/>
<path id="Oval Copy 5" d="M14 13C14 14.1046 13.1046 15 12 15C10.8954 15 10 14.1046 10 13C10 11.8954 10.8954 11 12 11C13.1046 11 14 11.8954 14 13Z" fill="#676DFD"/>
<path id="Oval Copy 7" d="M18 7C18 8.10457 17.1046 9 16 9C14.8954 9 14 8.10457 14 7C14 5.89543 14.8954 5 16 5C17.1046 5 18 5.89543 18 7Z" fill="white"/>
<path id="Oval Copy 7 (Stroke)" fill-rule="evenodd" clip-rule="evenodd" d="M16 8.25C16.6904 8.25 17.25 7.69036 17.25 7C17.25 6.30964 16.6904 5.75 16 5.75C15.3096 5.75 14.75 6.30964 14.75 7C14.75 7.69036 15.3096 8.25 16 8.25ZM16 9C17.1046 9 18 8.10457 18 7C18 5.89543 17.1046 5 16 5C14.8954 5 14 5.89543 14 7C14 8.10457 14.8954 9 16 9Z" fill="#49565D"/>
<path id="Oval Copy 5_2" d="M4 10C4 11.1046 3.10457 12 2 12C0.895431 12 0 11.1046 0 10C0 8.89543 0.895431 8 2 8C3.10457 8 4 8.89543 4 10Z" fill="white"/>
<path id="Oval Copy 5 (Stroke)" fill-rule="evenodd" clip-rule="evenodd" d="M2 11.25C2.69036 11.25 3.25 10.6904 3.25 10C3.25 9.30964 2.69036 8.75 2 8.75C1.30964 8.75 0.75 9.30964 0.75 10C0.75 10.6904 1.30964 11.25 2 11.25ZM2 12C3.10457 12 4 11.1046 4 10C4 8.89543 3.10457 8 2 8C0.895431 8 0 8.89543 0 10C0 11.1046 0.895431 12 2 12Z" fill="#49565D"/>
<path id="Oval Copy 4" d="M10 3C10 4.65685 8.65685 6 7 6C5.34315 6 4 4.65685 4 3C4 1.34315 5.34315 0 7 0C8.65685 0 10 1.34315 10 3Z" fill="#676DFD"/>
<g id="Vector">
<path fill-rule="evenodd" clip-rule="evenodd" d="M7 5.25C8.24264 5.25 9.25 4.24264 9.25 3C9.25 1.75736 8.24264 0.75 7 0.75C5.75736 0.75 4.75 1.75736 4.75 3C4.75 4.24264 5.75736 5.25 7 5.25ZM7 6C8.65685 6 10 4.65685 10 3C10 1.34315 8.65685 0 7 0C5.34315 0 4 1.34315 4 3C4 4.65685 5.34315 6 7 6Z" fill="#49565D"/>
<path fill-rule="evenodd" clip-rule="evenodd" d="M12 14.25C12.6904 14.25 13.25 13.6904 13.25 13C13.25 12.3096 12.6904 11.75 12 11.75C11.3096 11.75 10.75 12.3096 10.75 13C10.75 13.6904 11.3096 14.25 12 14.25ZM12 15C13.1046 15 14 14.1046 14 13C14 11.8954 13.1046 11 12 11C10.8954 11 10 11.8954 10 13C10 14.1046 10.8954 15 12 15Z" fill="#49565D"/>
<path fill-rule="evenodd" clip-rule="evenodd" d="M0.125 17.5C0.125 17.2929 0.292893 17.125 0.5 17.125H17.5C17.7071 17.125 17.875 17.2929 17.875 17.5C17.875 17.7071 17.7071 17.875 17.5 17.875H0.5C0.292893 17.875 0.125 17.7071 0.125 17.5Z" fill="#49565D"/>
</g>
</g>
</svg>
