<svg width="24" height="30" viewBox="0 0 24 30" fill="none" xmlns="http://www.w3.org/2000/svg">
<path d="M20.5158 20.2733L20.5157 20.2734C19.5047 21.4973 17.2941 23.8346 15.3214 25.8801C14.3382 26.8997 13.4188 27.8419 12.7452 28.5293C12.4411 28.8396 12.1871 29.098 12 29.2879C11.813 29.098 11.559 28.8396 11.2549 28.5293C10.5814 27.8419 9.66215 26.8997 8.67896 25.8802C6.70642 23.8346 4.49574 21.4973 3.48425 20.2733L3.48417 20.2732C1.49589 17.8684 0.5 15.3846 0.5 12.3343C0.5 5.78428 5.65229 0.5 11.975 0.5H12.0239C18.3477 0.5 23.5 5.78431 23.5 12.3343C23.5 15.3845 22.5031 17.8683 20.5158 20.2733Z" fill="#5E63E5" stroke="#393EB7"/>
</svg>
