<svg width="20" height="20" viewBox="0 0 20 20" fill="none" xmlns="http://www.w3.org/2000/svg">
<rect width="20" height="20" rx="2" fill="white"/>
<path fill-rule="evenodd" clip-rule="evenodd" d="M10.1025 11.6572V11.9648H8.7627V11.5273C8.7627 11.026 8.85384 10.609 9.03613 10.2764C9.21842 9.94369 9.53743 9.59961 9.99316 9.24414C10.5355 8.81576 10.8853 8.48307 11.0425 8.24609C11.1997 8.00911 11.2783 7.72656 11.2783 7.39844C11.2783 7.01562 11.1507 6.72168 10.8955 6.5166C10.6403 6.31152 10.2734 6.20898 9.79492 6.20898C9.36198 6.20898 8.96094 6.27051 8.5918 6.39355C8.22266 6.5166 7.86263 6.66471 7.51172 6.83789L6.9375 5.63477C7.86263 5.11979 8.85384 4.8623 9.91113 4.8623C10.8044 4.8623 11.513 5.08105 12.0371 5.51855C12.5612 5.95605 12.8232 6.5599 12.8232 7.33008C12.8232 7.67188 12.7731 7.97607 12.6729 8.24268C12.5726 8.50928 12.4211 8.76335 12.2183 9.00488C12.0155 9.24642 11.6657 9.56087 11.1689 9.94824C10.7451 10.2809 10.4614 10.5566 10.3179 10.7754C10.1743 10.9941 10.1025 11.2881 10.1025 11.6572ZM10.2358 14.9146C10.0604 15.1037 9.81087 15.1982 9.4873 15.1982C9.16374 15.1982 8.91536 15.106 8.74219 14.9214C8.56901 14.7368 8.48242 14.4782 8.48242 14.1455C8.48242 13.4574 8.81738 13.1133 9.4873 13.1133C9.81543 13.1133 10.0661 13.2033 10.2393 13.3833C10.4124 13.5633 10.499 13.8174 10.499 14.1455C10.499 14.4691 10.4113 14.7254 10.2358 14.9146Z" fill="#49565D"/>
</svg>
