<svg width="7" height="12" viewBox="0 0 7 12" fill="none" xmlns="http://www.w3.org/2000/svg">
<path fill-rule="evenodd" clip-rule="evenodd" d="M4.10254 7.65723V7.96484H2.7627V7.52734C2.7627 7.02604 2.85384 6.60905 3.03613 6.27637C3.21842 5.94369 3.53743 5.59961 3.99316 5.24414C4.53548 4.81576 4.88525 4.48307 5.04248 4.24609C5.19971 4.00911 5.27832 3.72656 5.27832 3.39844C5.27832 3.01562 5.15072 2.72168 4.89551 2.5166C4.6403 2.31152 4.27344 2.20898 3.79492 2.20898C3.36198 2.20898 2.96094 2.27051 2.5918 2.39355C2.22266 2.5166 1.86263 2.66471 1.51172 2.83789L0.9375 1.63477C1.86263 1.11979 2.85384 0.862305 3.91113 0.862305C4.80436 0.862305 5.51302 1.08105 6.03711 1.51855C6.5612 1.95605 6.82324 2.5599 6.82324 3.33008C6.82324 3.67188 6.77311 3.97607 6.67285 4.24268C6.57259 4.50928 6.42106 4.76335 6.21826 5.00488C6.01546 5.24642 5.66569 5.56087 5.16895 5.94824C4.74512 6.28092 4.46143 6.55664 4.31787 6.77539C4.17432 6.99414 4.10254 7.28809 4.10254 7.65723ZM4.23584 10.9146C4.06038 11.1037 3.81087 11.1982 3.4873 11.1982C3.16374 11.1982 2.91536 11.106 2.74219 10.9214C2.56901 10.7368 2.48242 10.4782 2.48242 10.1455C2.48242 9.45736 2.81738 9.11328 3.4873 9.11328C3.81543 9.11328 4.06608 9.20329 4.23926 9.3833C4.41243 9.56331 4.49902 9.81738 4.49902 10.1455C4.49902 10.4691 4.4113 10.7254 4.23584 10.9146Z" fill="#49565D"/>
</svg>
