<svg width="17" height="20" viewBox="0 0 17 20" fill="none" xmlns="http://www.w3.org/2000/svg">
<path d="M14.1344 13.5237L14.1343 13.5238C13.4402 14.3376 11.9132 15.8583 10.5413 17.192C9.85918 17.8551 9.2213 18.4663 8.75389 18.9117C8.59126 19.0667 8.44931 19.2016 8.33336 19.3116C8.21742 19.2016 8.0755 19.0667 7.9129 18.9117C7.44554 18.4663 6.80773 17.8551 6.12565 17.192C4.75386 15.8584 3.22679 14.3376 2.53231 13.5237L2.53222 13.5236C1.17293 11.9315 0.5 10.2992 0.5 8.29499C0.5 3.99108 3.99877 0.5 8.316 0.5H8.34995C12.6679 0.5 16.1667 3.99111 16.1667 8.29499C16.1667 10.2991 15.4931 11.9314 14.1344 13.5237Z" fill="#EF637B" stroke="#D0D0D0"/>
<ellipse cx="8.33366" cy="8.33333" rx="2.91667" ry="2.91667" fill="white"/>
</svg>
