<svg width="21" height="27" viewBox="0 0 21 27" fill="none" xmlns="http://www.w3.org/2000/svg">
<path d="M17.9075 17.203L17.9074 17.2031C17.025 18.2424 15.0928 20.2297 13.3661 21.9713C12.5059 22.839 11.7016 23.6408 11.1123 24.2257C10.8671 24.4691 10.6592 24.6749 10.5 24.8322C10.3409 24.6749 10.133 24.4691 9.88784 24.2257C9.2986 23.6408 8.49438 22.839 7.63425 21.9713C5.90772 20.2297 3.97546 18.2423 3.09253 17.203L3.09245 17.2029C1.36219 15.1672 0.5 13.0713 0.5 10.4983C0.5 4.97544 4.96907 0.5 10.4782 0.5H10.5209C16.031 0.5 20.5 4.97547 20.5 10.4983C20.5 13.0712 19.637 15.1672 17.9075 17.203Z" fill="#EF5771" stroke="white"/>
<path fill-rule="evenodd" clip-rule="evenodd" d="M14.33 10.5275C14.33 12.6627 12.6067 14.3937 10.4801 14.3937C8.35521 14.3937 6.63184 12.6627 6.63184 10.5275C6.63184 8.39225 8.35521 6.66119 10.4801 6.66119C12.6067 6.66119 14.33 8.39225 14.33 10.5275Z" fill="white"/>
</svg>
