<svg width="15" height="18" viewBox="0 0 15 18" fill="none" xmlns="http://www.w3.org/2000/svg">
<path d="M12.6829 12.1389L12.6828 12.139C12.06 12.8693 10.6875 14.2362 9.45232 15.4369C8.83856 16.0336 8.26459 16.5835 7.84401 16.9844C7.71339 17.1088 7.59759 17.2189 7.50002 17.3115C7.40248 17.2189 7.2867 17.1089 7.15611 16.9844C6.73557 16.5835 6.16166 16.0336 5.54793 15.4369C4.31287 14.2362 2.94033 12.8692 2.31711 12.1389L2.31703 12.1388C1.10033 10.7137 0.5 9.25584 0.5 7.46549C0.5 3.61971 3.62639 0.5 7.4844 0.5H7.51495C11.3736 0.5 14.5 3.61974 14.5 7.46549C14.5 9.25574 13.8991 10.7136 12.6829 12.1389Z" fill="#F7ABB8" stroke="white"/>
<ellipse cx="7.5" cy="7.5" rx="2.625" ry="2.625" fill="white"/>
</svg>
