<svg width="40" height="51" viewBox="0 0 40 51" fill="none" xmlns="http://www.w3.org/2000/svg">
<path d="M34.4556 32.7807L34.4555 32.7808C32.7612 34.7597 29.0674 38.5265 25.782 41.8128C24.1425 43.4528 22.6096 44.9682 21.4865 46.0737C20.925 46.6264 20.466 47.0765 20.1474 47.3885C20.0943 47.4405 20.0451 47.4886 20 47.5328C19.9549 47.4886 19.9058 47.4405 19.8527 47.3885C19.5342 47.0766 19.0752 46.6264 18.5138 46.0737C17.3908 44.9682 15.8581 43.4528 14.2187 41.8128C10.9335 38.5266 7.23966 34.7596 5.54442 32.7807L5.54434 32.7807C2.18887 28.8657 0.5 24.8078 0.5 19.8302C0.5 9.15732 9.21031 0.5 19.9584 0.5H20.0399C30.7897 0.5 39.5 9.15735 39.5 19.8302C39.5 24.8077 37.8095 28.8657 34.4556 32.7807Z" fill="#EF5771" stroke="#C8374F"/>
<path fill-rule="evenodd" clip-rule="evenodd" d="M27.2951 19.8852C27.2951 23.9184 24.0125 27.1882 19.9618 27.1882C15.9144 27.1882 12.6318 23.9184 12.6318 19.8852C12.6318 15.852 15.9144 12.5822 19.9618 12.5822C24.0125 12.5822 27.2951 15.852 27.2951 19.8852Z" fill="white"/>
</svg>
