<svg width="432" height="192" viewBox="0 0 432 192" fill="none" xmlns="http://www.w3.org/2000/svg">
<g style="mix-blend-mode:multiply">
<path d="M178 147C217.212 147 249 115.212 249 76C249 36.7878 217.212 5 178 5C138.788 5 107 36.7878 107 76C107 115.212 138.788 147 178 147Z" fill="#86D5F3" fill-opacity="0.4"/>
<path d="M178 147C217.212 147 249 115.212 249 76C249 36.7878 217.212 5 178 5C138.788 5 107 36.7878 107 76C107 115.212 138.788 147 178 147Z" stroke="#56C6EB" stroke-width="1.97989"/>
</g>
<g style="mix-blend-mode:multiply">
<path d="M223.5 150C264.645 150 298 116.645 298 75.5C298 34.3548 264.645 1 223.5 1C182.355 1 149 34.3548 149 75.5C149 116.645 182.355 150 223.5 150Z" fill="#FE9AB3" fill-opacity="0.4"/>
<path d="M223.5 150C264.645 150 298 116.645 298 75.5C298 34.3548 264.645 1 223.5 1C182.355 1 149 34.3548 149 75.5C149 116.645 182.355 150 223.5 150Z" stroke="#EF5771" stroke-width="1.97989"/>
</g>
<path d="M81.3011 105.605C82.0197 105.605 82.6023 105.022 82.6023 104.303C82.6023 103.583 82.0197 103 81.3011 103C80.5825 103 80 103.583 80 104.303C80 105.022 80.5825 105.605 81.3011 105.605Z" fill="#56C6EB"/>
<path d="M81.3008 104.301V92.5331L107.71 76" stroke="#56C6EB"/>
<path d="M325.937 105.605C326.655 105.605 327.238 105.022 327.238 104.303C327.238 103.583 326.655 103 325.937 103C325.218 103 324.636 103.583 324.636 104.303C324.636 105.022 325.218 105.605 325.937 105.605Z" fill="#EF5771"/>
<path d="M325.937 104.301V92.5331L299 76" stroke="#EE0909" stroke-opacity="0.62"/>
<g style="mix-blend-mode:multiply">
<path d="M176.891 184.077H175.774V186H173.857V184.077H169.896V182.712L173.965 176.72H175.774V182.553H176.891V184.077ZM173.857 182.553V180.979C173.857 180.831 173.859 180.655 173.863 180.452C173.872 180.249 173.88 180.046 173.889 179.843C173.897 179.64 173.906 179.46 173.914 179.303C173.927 179.142 173.935 179.03 173.939 178.967H173.889C173.808 179.14 173.724 179.31 173.635 179.475C173.546 179.635 173.442 179.805 173.324 179.982L171.623 182.553H173.857ZM180.833 176.599C181.366 176.599 181.857 176.682 182.306 176.847C182.758 177.012 183.12 177.261 183.391 177.596C183.662 177.926 183.797 178.34 183.797 178.84C183.797 179.212 183.723 179.538 183.575 179.817C183.431 180.097 183.235 180.342 182.985 180.554C182.735 180.761 182.452 180.943 182.134 181.1C182.464 181.273 182.778 181.476 183.074 181.709C183.37 181.938 183.611 182.206 183.797 182.515C183.988 182.824 184.083 183.184 184.083 183.594C184.083 184.111 183.945 184.559 183.67 184.94C183.395 185.317 183.014 185.609 182.528 185.816C182.041 186.023 181.476 186.127 180.833 186.127C180.139 186.127 179.549 186.028 179.062 185.829C178.575 185.63 178.205 185.346 177.951 184.978C177.697 184.606 177.57 184.161 177.57 183.645C177.57 183.222 177.649 182.854 177.805 182.541C177.966 182.227 178.182 181.959 178.453 181.734C178.723 181.506 179.022 181.311 179.348 181.15C179.073 180.977 178.821 180.78 178.592 180.56C178.368 180.34 178.188 180.088 178.053 179.805C177.922 179.521 177.856 179.195 177.856 178.827C177.856 178.336 177.993 177.926 178.269 177.596C178.548 177.266 178.914 177.018 179.367 176.853C179.819 176.684 180.308 176.599 180.833 176.599ZM179.386 183.531C179.386 183.865 179.504 184.142 179.741 184.362C179.982 184.578 180.338 184.686 180.808 184.686C181.294 184.686 181.658 184.582 181.899 184.375C182.141 184.163 182.261 183.886 182.261 183.543C182.261 183.306 182.191 183.099 182.052 182.921C181.916 182.744 181.745 182.585 181.538 182.445C181.33 182.301 181.121 182.168 180.909 182.045L180.738 181.957C180.467 182.079 180.23 182.217 180.027 182.369C179.828 182.521 179.671 182.693 179.557 182.883C179.443 183.074 179.386 183.29 179.386 183.531ZM180.82 178.034C180.499 178.034 180.232 178.116 180.021 178.281C179.809 178.446 179.703 178.679 179.703 178.979C179.703 179.191 179.754 179.377 179.855 179.538C179.961 179.695 180.099 179.832 180.268 179.951C180.442 180.069 180.63 180.179 180.833 180.281C181.028 180.188 181.21 180.084 181.379 179.97C181.548 179.855 181.686 179.718 181.792 179.557C181.897 179.396 181.95 179.204 181.95 178.979C181.95 178.679 181.842 178.446 181.626 178.281C181.415 178.116 181.146 178.034 180.82 178.034ZM188.45 180.071C189.017 180.071 189.521 180.179 189.961 180.395C190.405 180.611 190.754 180.928 191.008 181.347C191.262 181.766 191.389 182.282 191.389 182.896C191.389 183.565 191.25 184.142 190.97 184.629C190.695 185.111 190.283 185.482 189.732 185.74C189.187 185.998 188.505 186.127 187.688 186.127C187.202 186.127 186.743 186.085 186.311 186C185.884 185.92 185.509 185.795 185.188 185.625V183.931C185.509 184.1 185.894 184.244 186.343 184.362C186.796 184.477 187.221 184.534 187.619 184.534C188.008 184.534 188.336 184.483 188.603 184.381C188.869 184.276 189.07 184.115 189.206 183.899C189.345 183.679 189.415 183.4 189.415 183.061C189.415 182.608 189.263 182.261 188.958 182.02C188.653 181.779 188.186 181.658 187.555 181.658C187.314 181.658 187.062 181.681 186.8 181.728C186.542 181.775 186.326 181.821 186.152 181.868L185.372 181.449L185.721 176.72H190.754V178.383H187.441L187.27 180.205C187.413 180.175 187.57 180.145 187.739 180.116C187.909 180.086 188.146 180.071 188.45 180.071ZM192.735 185.092C192.735 184.694 192.843 184.415 193.059 184.254C193.279 184.094 193.543 184.013 193.852 184.013C194.153 184.013 194.411 184.094 194.626 184.254C194.847 184.415 194.957 184.694 194.957 185.092C194.957 185.473 194.847 185.748 194.626 185.917C194.411 186.087 194.153 186.171 193.852 186.171C193.543 186.171 193.279 186.087 193.059 185.917C192.843 185.748 192.735 185.473 192.735 185.092ZM202.669 180.681C202.669 181.214 202.629 181.743 202.548 182.268C202.472 182.792 202.337 183.287 202.142 183.753C201.947 184.214 201.674 184.625 201.323 184.984C200.972 185.34 200.526 185.619 199.984 185.822C199.442 186.025 198.786 186.127 198.016 186.127C197.834 186.127 197.62 186.118 197.375 186.102C197.13 186.089 196.926 186.068 196.766 186.038V184.464C196.935 184.506 197.115 184.54 197.305 184.565C197.496 184.587 197.688 184.597 197.883 184.597C198.657 184.597 199.254 184.474 199.673 184.229C200.096 183.984 200.392 183.643 200.562 183.207C200.735 182.771 200.834 182.268 200.86 181.696H200.784C200.661 181.899 200.515 182.083 200.346 182.249C200.181 182.409 199.969 182.538 199.711 182.636C199.453 182.729 199.125 182.775 198.727 182.775C198.198 182.775 197.737 182.661 197.343 182.433C196.954 182.2 196.651 181.866 196.436 181.43C196.224 180.99 196.118 180.458 196.118 179.836C196.118 179.164 196.245 178.588 196.499 178.11C196.757 177.627 197.123 177.257 197.597 176.999C198.071 176.741 198.63 176.612 199.273 176.612C199.747 176.612 200.189 176.694 200.6 176.859C201.01 177.02 201.37 177.268 201.679 177.602C201.992 177.936 202.235 178.36 202.409 178.872C202.582 179.384 202.669 179.987 202.669 180.681ZM199.311 178.186C198.93 178.186 198.619 178.317 198.378 178.58C198.137 178.842 198.016 179.252 198.016 179.811C198.016 180.26 198.12 180.615 198.327 180.877C198.535 181.14 198.85 181.271 199.273 181.271C199.565 181.271 199.819 181.208 200.035 181.081C200.25 180.949 200.418 180.786 200.536 180.592C200.659 180.393 200.72 180.19 200.72 179.982C200.72 179.767 200.691 179.553 200.631 179.341C200.572 179.13 200.483 178.937 200.365 178.764C200.246 178.59 200.098 178.451 199.92 178.345C199.747 178.239 199.544 178.186 199.311 178.186ZM212.482 183.893C212.482 184.375 212.368 184.783 212.14 185.118C211.915 185.448 211.579 185.7 211.13 185.873C210.682 186.042 210.123 186.127 209.455 186.127C208.959 186.127 208.534 186.095 208.179 186.032C207.827 185.968 207.472 185.862 207.112 185.714V184.115C207.497 184.288 207.91 184.432 208.35 184.546C208.794 184.656 209.184 184.711 209.518 184.711C209.895 184.711 210.163 184.656 210.324 184.546C210.489 184.432 210.572 184.284 210.572 184.102C210.572 183.984 210.538 183.878 210.47 183.785C210.407 183.687 210.267 183.579 210.051 183.461C209.835 183.338 209.497 183.18 209.036 182.985C208.591 182.799 208.225 182.61 207.938 182.42C207.654 182.229 207.442 182.005 207.303 181.747C207.167 181.485 207.1 181.153 207.1 180.75C207.1 180.095 207.354 179.602 207.861 179.271C208.373 178.937 209.057 178.77 209.912 178.77C210.352 178.77 210.771 178.814 211.168 178.903C211.57 178.992 211.983 179.134 212.406 179.329L211.822 180.725C211.471 180.573 211.139 180.448 210.826 180.351C210.517 180.253 210.201 180.205 209.88 180.205C209.596 180.205 209.383 180.243 209.239 180.319C209.095 180.395 209.023 180.511 209.023 180.668C209.023 180.782 209.059 180.884 209.131 180.973C209.207 181.062 209.351 181.161 209.562 181.271C209.778 181.377 210.094 181.514 210.508 181.684C210.91 181.849 211.259 182.022 211.556 182.204C211.852 182.382 212.08 182.604 212.241 182.871C212.402 183.133 212.482 183.474 212.482 183.893ZM218.252 189.123V186.146C218.252 185.968 218.259 185.791 218.271 185.613C218.288 185.431 218.31 185.253 218.335 185.08H218.252C218.07 185.372 217.819 185.619 217.497 185.822C217.18 186.025 216.761 186.127 216.24 186.127C215.44 186.127 214.793 185.818 214.298 185.2C213.807 184.578 213.562 183.666 213.562 182.464C213.562 181.656 213.676 180.979 213.904 180.433C214.133 179.883 214.45 179.468 214.856 179.189C215.267 178.91 215.741 178.77 216.278 178.77C216.799 178.77 217.22 178.872 217.542 179.075C217.867 179.274 218.132 179.519 218.335 179.811H218.386L218.557 178.903H220.195V189.123H218.252ZM216.932 184.61C217.288 184.61 217.569 184.54 217.776 184.4C217.988 184.261 218.14 184.051 218.233 183.772C218.326 183.488 218.377 183.135 218.386 182.712V182.477C218.386 181.787 218.28 181.26 218.068 180.896C217.857 180.528 217.467 180.344 216.9 180.344C216.439 180.344 216.096 180.528 215.872 180.896C215.648 181.265 215.536 181.796 215.536 182.49C215.536 183.196 215.65 183.728 215.878 184.083C216.107 184.434 216.458 184.61 216.932 184.61ZM233.931 178.77C234.735 178.77 235.342 178.977 235.753 179.392C236.168 179.803 236.375 180.463 236.375 181.373V186H234.433V181.855C234.433 181.347 234.346 180.964 234.172 180.706C233.999 180.448 233.73 180.319 233.366 180.319C232.854 180.319 232.49 180.503 232.274 180.871C232.059 181.235 231.951 181.758 231.951 182.439V186H230.015V181.855C230.015 181.516 229.977 181.233 229.9 181.004C229.824 180.776 229.708 180.604 229.551 180.49C229.395 180.376 229.194 180.319 228.948 180.319C228.589 180.319 228.305 180.41 228.098 180.592C227.895 180.77 227.749 181.034 227.66 181.385C227.575 181.732 227.533 182.158 227.533 182.661V186H225.597V178.903H227.076L227.336 179.811H227.444C227.588 179.566 227.768 179.367 227.983 179.214C228.203 179.062 228.445 178.95 228.707 178.878C228.969 178.806 229.236 178.77 229.507 178.77C230.027 178.77 230.467 178.855 230.827 179.024C231.191 179.193 231.47 179.456 231.665 179.811H231.836C232.048 179.447 232.346 179.183 232.731 179.018C233.121 178.853 233.521 178.77 233.931 178.77ZM240.304 178.903V186H238.368V178.903H240.304ZM239.339 176.123C239.627 176.123 239.875 176.191 240.082 176.326C240.289 176.457 240.393 176.705 240.393 177.069C240.393 177.429 240.289 177.678 240.082 177.818C239.875 177.953 239.627 178.021 239.339 178.021C239.047 178.021 238.798 177.953 238.59 177.818C238.387 177.678 238.286 177.429 238.286 177.069C238.286 176.705 238.387 176.457 238.59 176.326C238.798 176.191 239.047 176.123 239.339 176.123Z" fill="#333333"/>
</g>
<path d="M196.651 118H196V173H196.651V118Z" fill="#49565D"/>
<path d="M196.626 174.257C197.525 174.257 198.253 173.528 198.253 172.628C198.253 171.729 197.525 171 196.626 171C195.728 171 195 171.729 195 172.628C195 173.528 195.728 174.257 196.626 174.257Z" fill="#9164C2"/>
<path d="M12.5684 111.72L10.207 121H7.96631L6.70947 116.125C6.68408 116.032 6.65023 115.89 6.60791 115.7C6.56559 115.509 6.52116 115.302 6.47461 115.078C6.42806 114.849 6.38574 114.635 6.34766 114.437C6.3138 114.233 6.29053 114.073 6.27783 113.954C6.26514 114.073 6.23975 114.231 6.20166 114.43C6.16781 114.629 6.1276 114.841 6.08105 115.065C6.03874 115.289 5.99642 115.499 5.9541 115.693C5.91178 115.888 5.87793 116.036 5.85254 116.138L4.60205 121H2.36768L0 111.72H1.93604L3.12305 116.785C3.1569 116.938 3.19499 117.119 3.2373 117.331C3.28385 117.543 3.32829 117.765 3.37061 117.998C3.41715 118.226 3.45736 118.448 3.49121 118.664C3.5293 118.876 3.5568 119.06 3.57373 119.216C3.59489 119.056 3.6224 118.869 3.65625 118.658C3.6901 118.442 3.72607 118.224 3.76416 118.004C3.80648 117.78 3.8488 117.572 3.89111 117.382C3.93343 117.191 3.97152 117.037 4.00537 116.918L5.35742 111.72H7.21729L8.56934 116.918C8.59896 117.033 8.63281 117.187 8.6709 117.382C8.71322 117.572 8.75553 117.78 8.79785 118.004C8.84017 118.228 8.87826 118.448 8.91211 118.664C8.9502 118.876 8.9777 119.06 8.99463 119.216C9.02425 119.005 9.06445 118.749 9.11523 118.448C9.17025 118.144 9.22738 117.841 9.28662 117.541C9.3501 117.24 9.40511 116.988 9.45166 116.785L10.6323 111.72H12.5684ZM15.52 111.123V113.135C15.52 113.486 15.5073 113.821 15.4819 114.138C15.4608 114.456 15.4438 114.68 15.4312 114.811H15.5327C15.6851 114.566 15.8649 114.367 16.0723 114.214C16.2839 114.062 16.5166 113.95 16.7705 113.878C17.0244 113.806 17.2974 113.77 17.5894 113.77C18.1014 113.77 18.5479 113.861 18.9287 114.043C19.3096 114.221 19.6058 114.502 19.8174 114.887C20.029 115.268 20.1348 115.763 20.1348 116.373V121H18.1987V116.855C18.1987 116.347 18.1056 115.964 17.9194 115.706C17.7332 115.448 17.4455 115.319 17.0562 115.319C16.6668 115.319 16.36 115.41 16.1357 115.592C15.9115 115.77 15.7528 116.034 15.6597 116.385C15.5666 116.732 15.52 117.158 15.52 117.661V121H13.584V111.123H15.52ZM28.5771 117.439C28.5771 118.031 28.4967 118.556 28.3359 119.013C28.1794 119.47 27.9487 119.857 27.644 120.175C27.3436 120.488 26.9797 120.725 26.5522 120.886C26.1291 121.047 25.6509 121.127 25.1177 121.127C24.6183 121.127 24.1592 121.047 23.7402 120.886C23.3255 120.725 22.9637 120.488 22.6548 120.175C22.3501 119.857 22.1131 119.47 21.9438 119.013C21.7788 118.556 21.6963 118.031 21.6963 117.439C21.6963 116.652 21.8359 115.985 22.1152 115.439C22.3945 114.894 22.7923 114.479 23.3086 114.195C23.8249 113.912 24.4406 113.77 25.1558 113.77C25.8201 113.77 26.4084 113.912 26.9204 114.195C27.4367 114.479 27.8408 114.894 28.1328 115.439C28.429 115.985 28.5771 116.652 28.5771 117.439ZM23.6704 117.439C23.6704 117.904 23.7212 118.296 23.8228 118.613C23.9243 118.931 24.083 119.17 24.2988 119.331C24.5146 119.491 24.7961 119.572 25.1431 119.572C25.4858 119.572 25.763 119.491 25.9746 119.331C26.1904 119.17 26.347 118.931 26.4443 118.613C26.5459 118.296 26.5967 117.904 26.5967 117.439C26.5967 116.969 26.5459 116.58 26.4443 116.271C26.347 115.958 26.1904 115.723 25.9746 115.566C25.7588 115.41 25.4774 115.332 25.1304 115.332C24.6183 115.332 24.2459 115.507 24.0132 115.858C23.7847 116.21 23.6704 116.736 23.6704 117.439ZM32.1128 121H30.1768V111.123H32.1128V121ZM37.0767 113.77C37.7326 113.77 38.2975 113.897 38.7715 114.151C39.2454 114.401 39.6115 114.764 39.8696 115.243C40.1278 115.721 40.2568 116.305 40.2568 116.995V117.934H35.6802C35.7013 118.48 35.8643 118.91 36.1689 119.223C36.4779 119.532 36.9053 119.686 37.4512 119.686C37.904 119.686 38.3187 119.639 38.6953 119.546C39.0719 119.453 39.4591 119.314 39.8569 119.127V120.625C39.5057 120.799 39.1375 120.926 38.7524 121.006C38.3716 121.087 37.9082 121.127 37.3623 121.127C36.6514 121.127 36.0208 120.996 35.4707 120.733C34.9248 120.471 34.4953 120.071 34.1821 119.534C33.8732 118.996 33.7188 118.319 33.7188 117.502C33.7188 116.673 33.8584 115.983 34.1377 115.433C34.4212 114.879 34.8148 114.464 35.3184 114.189C35.8219 113.91 36.408 113.77 37.0767 113.77ZM37.0894 115.147C36.7127 115.147 36.3996 115.268 36.1499 115.509C35.9045 115.75 35.7627 116.129 35.7246 116.646H38.4414C38.4372 116.358 38.3843 116.102 38.2827 115.877C38.1854 115.653 38.0373 115.475 37.8384 115.344C37.6437 115.213 37.394 115.147 37.0894 115.147ZM47.2964 121H45.3604V111.72H50.6797V113.332H47.2964V115.725H50.4448V117.331H47.2964V121ZM58.792 117.439C58.792 118.031 58.7116 118.556 58.5508 119.013C58.3942 119.47 58.1636 119.857 57.8589 120.175C57.5584 120.488 57.1945 120.725 56.7671 120.886C56.3439 121.047 55.8657 121.127 55.3325 121.127C54.8332 121.127 54.374 121.047 53.9551 120.886C53.5404 120.725 53.1785 120.488 52.8696 120.175C52.5649 119.857 52.328 119.47 52.1587 119.013C51.9937 118.556 51.9111 118.031 51.9111 117.439C51.9111 116.652 52.0508 115.985 52.3301 115.439C52.6094 114.894 53.0072 114.479 53.5234 114.195C54.0397 113.912 54.6554 113.77 55.3706 113.77C56.035 113.77 56.6232 113.912 57.1353 114.195C57.6515 114.479 58.0557 114.894 58.3477 115.439C58.6439 115.985 58.792 116.652 58.792 117.439ZM53.8853 117.439C53.8853 117.904 53.936 118.296 54.0376 118.613C54.1392 118.931 54.2979 119.17 54.5137 119.331C54.7295 119.491 55.0109 119.572 55.3579 119.572C55.7007 119.572 55.9779 119.491 56.1895 119.331C56.4053 119.17 56.5618 118.931 56.6592 118.613C56.7607 118.296 56.8115 117.904 56.8115 117.439C56.8115 116.969 56.7607 116.58 56.6592 116.271C56.5618 115.958 56.4053 115.723 56.1895 115.566C55.9736 115.41 55.6922 115.332 55.3452 115.332C54.8332 115.332 54.4608 115.507 54.228 115.858C53.9995 116.21 53.8853 116.736 53.8853 117.439ZM66.8408 117.439C66.8408 118.031 66.7604 118.556 66.5996 119.013C66.443 119.47 66.2124 119.857 65.9077 120.175C65.6073 120.488 65.2433 120.725 64.8159 120.886C64.3927 121.047 63.9146 121.127 63.3813 121.127C62.882 121.127 62.4229 121.047 62.0039 120.886C61.5892 120.725 61.2274 120.488 60.9185 120.175C60.6138 119.857 60.3768 119.47 60.2075 119.013C60.0425 118.556 59.96 118.031 59.96 117.439C59.96 116.652 60.0996 115.985 60.3789 115.439C60.6582 114.894 61.056 114.479 61.5723 114.195C62.0885 113.912 62.7043 113.77 63.4194 113.77C64.0838 113.77 64.672 113.912 65.1841 114.195C65.7004 114.479 66.1045 114.894 66.3965 115.439C66.6927 115.985 66.8408 116.652 66.8408 117.439ZM61.9341 117.439C61.9341 117.904 61.9849 118.296 62.0864 118.613C62.188 118.931 62.3467 119.17 62.5625 119.331C62.7783 119.491 63.0597 119.572 63.4067 119.572C63.7495 119.572 64.0267 119.491 64.2383 119.331C64.4541 119.17 64.6107 118.931 64.708 118.613C64.8096 118.296 64.8604 117.904 64.8604 117.439C64.8604 116.969 64.8096 116.58 64.708 116.271C64.6107 115.958 64.4541 115.723 64.2383 115.566C64.0225 115.41 63.741 115.332 63.394 115.332C62.882 115.332 62.5096 115.507 62.2769 115.858C62.0483 116.21 61.9341 116.736 61.9341 117.439ZM70.6875 121.127C69.8962 121.127 69.2508 120.818 68.7515 120.2C68.2563 119.578 68.0088 118.666 68.0088 117.464C68.0088 116.25 68.2606 115.332 68.7642 114.709C69.2677 114.083 69.9258 113.77 70.7383 113.77C71.0768 113.77 71.3752 113.817 71.6333 113.91C71.8914 114.003 72.1136 114.128 72.2998 114.284C72.4902 114.441 72.651 114.616 72.7822 114.811H72.8457C72.8203 114.676 72.7886 114.477 72.7505 114.214C72.7166 113.948 72.6997 113.675 72.6997 113.396V111.123H74.6421V121H73.1567L72.7822 120.08H72.6997C72.577 120.274 72.4225 120.452 72.2363 120.613C72.0544 120.769 71.8364 120.894 71.5825 120.987C71.3286 121.08 71.0303 121.127 70.6875 121.127ZM71.3667 119.584C71.8957 119.584 72.2681 119.428 72.4839 119.115C72.7039 118.797 72.8203 118.321 72.833 117.687V117.477C72.833 116.787 72.7272 116.26 72.5156 115.896C72.304 115.528 71.9105 115.344 71.335 115.344C70.9076 115.344 70.5732 115.528 70.332 115.896C70.0908 116.265 69.9702 116.796 69.9702 117.49C69.9702 118.184 70.0908 118.706 70.332 119.058C70.5775 119.409 70.9224 119.584 71.3667 119.584ZM81.6182 118.893C81.6182 119.375 81.5039 119.783 81.2754 120.118C81.0511 120.448 80.7147 120.7 80.2661 120.873C79.8175 121.042 79.259 121.127 78.5903 121.127C78.0952 121.127 77.6699 121.095 77.3145 121.032C76.9632 120.968 76.6077 120.862 76.248 120.714V119.115C76.6331 119.288 77.0457 119.432 77.4858 119.546C77.9302 119.656 78.3195 119.711 78.6538 119.711C79.0304 119.711 79.2992 119.656 79.46 119.546C79.625 119.432 79.7075 119.284 79.7075 119.102C79.7075 118.984 79.6737 118.878 79.606 118.785C79.5425 118.687 79.4028 118.579 79.187 118.461C78.9712 118.338 78.6326 118.18 78.1714 117.985C77.7271 117.799 77.361 117.61 77.0732 117.42C76.7897 117.229 76.5781 117.005 76.4385 116.747C76.3031 116.485 76.2354 116.153 76.2354 115.75C76.2354 115.095 76.4893 114.602 76.9971 114.271C77.5091 113.937 78.1925 113.77 79.0474 113.77C79.4875 113.77 79.9064 113.814 80.3042 113.903C80.7062 113.992 81.1188 114.134 81.542 114.329L80.958 115.725C80.6068 115.573 80.2746 115.448 79.9614 115.351C79.6525 115.253 79.3372 115.205 79.0156 115.205C78.7321 115.205 78.5184 115.243 78.3745 115.319C78.2306 115.395 78.1587 115.511 78.1587 115.668C78.1587 115.782 78.1947 115.884 78.2666 115.973C78.3428 116.062 78.4867 116.161 78.6982 116.271C78.9141 116.377 79.2293 116.514 79.644 116.684C80.0461 116.849 80.3952 117.022 80.6914 117.204C80.9876 117.382 81.2161 117.604 81.377 117.871C81.5378 118.133 81.6182 118.474 81.6182 118.893Z" fill="#56C6EB"/>
<g style="mix-blend-mode:multiply">
<path d="M5.48584 143H4.56738V135.953H2.09668V135.147H7.9458V135.953H5.48584V143ZM14.0742 140.046C14.0742 140.529 14.0116 140.961 13.8862 141.34C13.7609 141.72 13.5801 142.04 13.3438 142.302C13.1074 142.563 12.821 142.764 12.4844 142.903C12.1514 143.039 11.7736 143.107 11.3511 143.107C10.9572 143.107 10.5955 143.039 10.2661 142.903C9.94027 142.764 9.65739 142.563 9.41748 142.302C9.18115 142.04 8.99674 141.72 8.86426 141.34C8.73535 140.961 8.6709 140.529 8.6709 140.046C8.6709 139.401 8.78011 138.854 8.99854 138.402C9.21696 137.948 9.52848 137.602 9.93311 137.366C10.3413 137.126 10.8265 137.006 11.3887 137.006C11.9258 137.006 12.3949 137.126 12.7959 137.366C13.2005 137.606 13.5138 137.953 13.7358 138.408C13.9614 138.859 14.0742 139.405 14.0742 140.046ZM9.59473 140.046C9.59473 140.519 9.65739 140.929 9.78271 141.276C9.90804 141.623 10.1014 141.892 10.3628 142.082C10.6242 142.271 10.9608 142.366 11.3726 142.366C11.7808 142.366 12.1156 142.271 12.377 142.082C12.6419 141.892 12.8371 141.623 12.9624 141.276C13.0877 140.929 13.1504 140.519 13.1504 140.046C13.1504 139.577 13.0877 139.172 12.9624 138.832C12.8371 138.488 12.6437 138.223 12.3823 138.037C12.1209 137.851 11.7826 137.758 11.3672 137.758C10.7549 137.758 10.3055 137.96 10.019 138.365C9.73617 138.769 9.59473 139.33 9.59473 140.046ZM17.5171 142.377C17.6639 142.377 17.8143 142.364 17.9683 142.339C18.1222 142.314 18.2476 142.284 18.3442 142.248V142.941C18.2404 142.987 18.0954 143.027 17.9092 143.059C17.7266 143.091 17.5475 143.107 17.3721 143.107C17.0605 143.107 16.7777 143.054 16.5234 142.946C16.2692 142.835 16.0651 142.649 15.9111 142.388C15.7607 142.126 15.6855 141.765 15.6855 141.303V137.812H14.8477V137.376L15.6909 137.027L16.0454 135.749H16.5825V137.113H18.3066V137.812H16.5825V141.276C16.5825 141.645 16.6667 141.92 16.835 142.103C17.0068 142.286 17.2342 142.377 17.5171 142.377ZM21.7388 137.017C22.4406 137.017 22.9616 137.174 23.3018 137.489C23.6419 137.804 23.812 138.307 23.812 138.999V143H23.1621L22.9902 142.13H22.9473C22.7826 142.345 22.6107 142.526 22.4316 142.672C22.2526 142.816 22.0449 142.925 21.8086 143C21.5758 143.072 21.2894 143.107 20.9492 143.107C20.5911 143.107 20.2725 143.045 19.9932 142.919C19.7174 142.794 19.499 142.604 19.3379 142.35C19.1803 142.096 19.1016 141.774 19.1016 141.383C19.1016 140.796 19.3343 140.345 19.7998 140.03C20.2653 139.715 20.9743 139.543 21.9268 139.514L22.9419 139.471V139.111C22.9419 138.603 22.8327 138.247 22.6143 138.042C22.3958 137.838 22.0879 137.736 21.6904 137.736C21.3825 137.736 21.0889 137.781 20.8096 137.871C20.5303 137.96 20.2653 138.066 20.0146 138.188L19.7407 137.511C20.0057 137.375 20.3101 137.258 20.6538 137.162C20.9976 137.065 21.3592 137.017 21.7388 137.017ZM22.9312 140.1L22.0342 140.137C21.3001 140.166 20.7827 140.286 20.4819 140.497C20.1812 140.708 20.0308 141.007 20.0308 141.394C20.0308 141.731 20.1328 141.979 20.3369 142.141C20.541 142.302 20.8114 142.382 21.1479 142.382C21.6707 142.382 22.0986 142.237 22.4316 141.947C22.7646 141.657 22.9312 141.222 22.9312 140.642V140.1ZM26.5459 143H25.6489V134.643H26.5459V143ZM33.8345 143H32.916V135.953H30.4453V135.147H36.2944V135.953H33.8345V143ZM42.4067 143L41.4399 140.508H38.2925L37.3311 143H36.4072L39.4795 135.115H40.3013L43.3521 143H42.4067ZM41.166 139.697L40.2476 137.221C40.2261 137.156 40.1903 137.051 40.1401 136.904C40.0936 136.757 40.0452 136.605 39.9951 136.447C39.945 136.29 39.9038 136.163 39.8716 136.066C39.8358 136.213 39.7964 136.36 39.7534 136.506C39.714 136.65 39.6746 136.784 39.6353 136.909C39.5959 137.031 39.5618 137.135 39.5332 137.221L38.5986 139.697H41.166Z" fill="#56C6EB"/>
</g>
<g style="mix-blend-mode:multiply">
<path d="M49.5576 143L52.7803 135.964H48.4995V135.147H53.7363V135.835L50.5352 143H49.5576ZM54.918 139.643C54.918 139.17 54.9502 138.708 55.0146 138.257C55.0827 137.806 55.1955 137.387 55.353 137C55.5106 136.61 55.7254 136.268 55.9976 135.975C56.2697 135.681 56.6081 135.452 57.0127 135.287C57.4209 135.119 57.9097 135.035 58.479 135.035C58.6401 135.035 58.8138 135.044 59 135.062C59.1862 135.076 59.3402 135.101 59.4619 135.137V135.905C59.3294 135.858 59.1772 135.824 59.0054 135.803C58.8371 135.781 58.667 135.771 58.4951 135.771C57.8291 135.771 57.3045 135.916 56.9214 136.206C56.5418 136.496 56.2679 136.889 56.0996 137.387C55.9313 137.881 55.8346 138.438 55.8096 139.058H55.8687C55.9797 138.879 56.1211 138.717 56.293 138.574C56.4648 138.427 56.6725 138.311 56.916 138.225C57.1631 138.139 57.4495 138.096 57.7754 138.096C58.2337 138.096 58.633 138.189 58.9731 138.375C59.3169 138.562 59.5819 138.832 59.7681 139.187C59.9578 139.541 60.0527 139.971 60.0527 140.476C60.0527 141.016 59.9525 141.484 59.752 141.877C59.5514 142.271 59.265 142.576 58.8926 142.791C58.5238 143.002 58.0833 143.107 57.5713 143.107C57.1882 143.107 56.8354 143.034 56.5132 142.887C56.1909 142.74 55.9098 142.522 55.6699 142.232C55.4336 141.942 55.2492 141.582 55.1167 141.152C54.9842 140.719 54.918 140.216 54.918 139.643ZM57.5605 142.355C58.0475 142.355 58.4378 142.2 58.7314 141.888C59.0251 141.577 59.1719 141.106 59.1719 140.476C59.1719 139.96 59.0412 139.552 58.7798 139.251C58.5184 138.95 58.1245 138.8 57.5981 138.8C57.2401 138.8 56.9285 138.875 56.6636 139.025C56.3986 139.172 56.1927 139.358 56.0459 139.584C55.8991 139.81 55.8257 140.039 55.8257 140.271C55.8257 140.508 55.8597 140.748 55.9277 140.991C55.9993 141.235 56.1068 141.46 56.25 141.668C56.3932 141.876 56.5741 142.042 56.7925 142.167C57.0109 142.293 57.2669 142.355 57.5605 142.355ZM65.9878 136.979C65.9878 137.33 65.9198 137.634 65.7837 137.892C65.6476 138.15 65.4578 138.361 65.2144 138.526C64.9709 138.687 64.6844 138.8 64.355 138.864V138.907C64.978 138.986 65.4453 139.187 65.7568 139.509C66.0719 139.831 66.2295 140.254 66.2295 140.776C66.2295 141.231 66.1221 141.634 65.9072 141.985C65.696 142.336 65.3701 142.611 64.9297 142.812C64.4928 143.009 63.9325 143.107 63.2485 143.107C62.8332 143.107 62.4482 143.073 62.0938 143.005C61.7428 142.941 61.4062 142.832 61.084 142.678V141.84C61.4098 142.001 61.7643 142.128 62.1475 142.221C62.5306 142.311 62.9012 142.355 63.2593 142.355C63.9754 142.355 64.4928 142.214 64.8115 141.931C65.1302 141.645 65.2896 141.254 65.2896 140.76C65.2896 140.42 65.2 140.146 65.021 139.938C64.8455 139.727 64.5913 139.573 64.2583 139.477C63.9289 139.376 63.5314 139.326 63.0659 139.326H62.2817V138.563H63.0713C63.4974 138.563 63.859 138.501 64.1562 138.375C64.4535 138.25 64.679 138.075 64.833 137.849C64.9906 137.62 65.0693 137.35 65.0693 137.038C65.0693 136.641 64.9368 136.334 64.6719 136.12C64.4069 135.901 64.047 135.792 63.5923 135.792C63.313 135.792 63.0588 135.821 62.8296 135.878C62.6004 135.935 62.3856 136.014 62.1851 136.114C61.9845 136.215 61.784 136.331 61.5835 136.463L61.1323 135.851C61.4188 135.629 61.7679 135.438 62.1797 135.276C62.5915 135.115 63.0588 135.035 63.5815 135.035C64.3836 135.035 64.9852 135.217 65.3862 135.583C65.7873 135.948 65.9878 136.413 65.9878 136.979ZM67.6904 142.441C67.6904 142.191 67.7513 142.014 67.873 141.91C67.9948 141.802 68.1434 141.749 68.3188 141.749C68.5015 141.749 68.6554 141.802 68.7808 141.91C68.9061 142.014 68.9688 142.191 68.9688 142.441C68.9688 142.688 68.9061 142.869 68.7808 142.984C68.6554 143.095 68.5015 143.15 68.3188 143.15C68.1434 143.15 67.9948 143.095 67.873 142.984C67.7513 142.869 67.6904 142.688 67.6904 142.441ZM71.332 143L74.5547 135.964H70.2739V135.147H75.5107V135.835L72.3096 143H71.332ZM83.6748 141.389C83.6748 141.765 83.5799 142.082 83.3901 142.339C83.2039 142.594 82.9354 142.785 82.5845 142.914C82.2371 143.043 81.8218 143.107 81.3384 143.107C80.9266 143.107 80.5703 143.075 80.2695 143.011C79.9688 142.946 79.7056 142.855 79.48 142.737V141.915C79.7199 142.033 80.0063 142.141 80.3394 142.237C80.6724 142.334 81.0125 142.382 81.3599 142.382C81.8683 142.382 82.2371 142.3 82.4663 142.135C82.6955 141.971 82.8101 141.747 82.8101 141.464C82.8101 141.303 82.7635 141.161 82.6704 141.04C82.5809 140.914 82.4287 140.794 82.2139 140.68C81.999 140.562 81.7018 140.433 81.3223 140.293C80.9463 140.15 80.6204 140.008 80.3447 139.869C80.0726 139.725 79.8613 139.552 79.7109 139.348C79.5641 139.144 79.4907 138.879 79.4907 138.553C79.4907 138.055 79.6912 137.674 80.0923 137.409C80.4969 137.14 81.0269 137.006 81.6821 137.006C82.0366 137.006 82.3678 137.042 82.6758 137.113C82.9873 137.181 83.2773 137.274 83.5459 137.393L83.2451 138.107C83.0016 138.003 82.742 137.915 82.4663 137.844C82.1906 137.772 81.9095 137.736 81.623 137.736C81.2113 137.736 80.8944 137.804 80.6724 137.94C80.4539 138.076 80.3447 138.263 80.3447 138.499C80.3447 138.682 80.3949 138.832 80.4951 138.95C80.599 139.068 80.7637 139.179 80.9893 139.283C81.2148 139.387 81.512 139.509 81.8809 139.648C82.2497 139.785 82.5684 139.926 82.8369 140.073C83.1055 140.216 83.3114 140.391 83.4546 140.599C83.6014 140.803 83.6748 141.066 83.6748 141.389ZM89.0566 145.632V143.107C89.0566 142.968 89.0602 142.807 89.0674 142.624C89.0745 142.441 89.0871 142.284 89.105 142.151H89.0459C88.8812 142.424 88.6466 142.651 88.3423 142.833C88.0379 143.016 87.6458 143.107 87.166 143.107C86.4463 143.107 85.868 142.853 85.4312 142.345C84.9943 141.836 84.7759 141.077 84.7759 140.067C84.7759 139.405 84.8761 138.846 85.0767 138.392C85.2772 137.937 85.5601 137.593 85.9253 137.36C86.2941 137.124 86.7238 137.006 87.2144 137.006C87.6834 137.006 88.0666 137.099 88.3638 137.285C88.661 137.468 88.8937 137.692 89.062 137.957H89.105L89.2393 137.113H89.9482V145.632H89.0566ZM87.3325 142.366C87.7479 142.366 88.0809 142.289 88.3315 142.135C88.5822 141.978 88.7648 141.741 88.8794 141.426C88.9976 141.111 89.0602 140.719 89.0674 140.25V140.062C89.0674 139.303 88.9385 138.728 88.6807 138.338C88.4229 137.944 87.9735 137.747 87.3325 137.747C86.7811 137.747 86.3711 137.958 86.1025 138.381C85.834 138.8 85.6997 139.369 85.6997 140.089C85.6997 140.809 85.834 141.369 86.1025 141.77C86.3711 142.167 86.7811 142.366 87.3325 142.366ZM101.093 137.006C101.741 137.006 102.23 137.176 102.56 137.516C102.889 137.853 103.054 138.395 103.054 139.144V143H102.173V139.187C102.173 138.71 102.069 138.354 101.861 138.118C101.657 137.878 101.353 137.758 100.948 137.758C100.379 137.758 99.9653 137.923 99.7075 138.252C99.4497 138.581 99.3208 139.067 99.3208 139.708V143H98.4346V139.187C98.4346 138.868 98.388 138.603 98.2949 138.392C98.2054 138.18 98.0693 138.023 97.8867 137.919C97.7077 137.812 97.4803 137.758 97.2046 137.758C96.8143 137.758 96.501 137.838 96.2646 138C96.0283 138.161 95.8564 138.401 95.749 138.719C95.6452 139.034 95.5933 139.423 95.5933 139.885V143H94.7017V137.113H95.4214L95.5557 137.946H95.604C95.7222 137.742 95.8708 137.57 96.0498 137.43C96.2288 137.291 96.4294 137.185 96.6514 137.113C96.8734 137.042 97.1097 137.006 97.3604 137.006C97.8079 137.006 98.1821 137.09 98.4829 137.258C98.7873 137.423 99.0075 137.675 99.1436 138.016H99.1919C99.3853 137.675 99.6502 137.423 99.9868 137.258C100.323 137.09 100.692 137.006 101.093 137.006ZM105.777 137.113V143H104.885V137.113H105.777ZM105.342 134.911C105.489 134.911 105.614 134.959 105.718 135.056C105.825 135.149 105.879 135.296 105.879 135.497C105.879 135.694 105.825 135.84 105.718 135.937C105.614 136.034 105.489 136.082 105.342 136.082C105.188 136.082 105.059 136.034 104.955 135.937C104.855 135.84 104.805 135.694 104.805 135.497C104.805 135.296 104.855 135.149 104.955 135.056C105.059 134.959 105.188 134.911 105.342 134.911Z" fill="#56C6EB"/>
</g>
<g style="mix-blend-mode:multiply">
<path d="M9.88477 155.063C9.88477 155.668 9.80778 156.22 9.65381 156.717C9.49984 157.211 9.27067 157.638 8.96631 157.996C8.66553 158.35 8.29134 158.624 7.84375 158.817C7.39616 159.011 6.87695 159.107 6.28613 159.107C5.67741 159.107 5.14567 159.011 4.69092 158.817C4.23975 158.624 3.86377 158.348 3.56299 157.99C3.26579 157.632 3.04199 157.204 2.8916 156.707C2.74479 156.209 2.67139 155.657 2.67139 155.052C2.67139 154.25 2.80387 153.547 3.06885 152.941C3.33382 152.336 3.73486 151.865 4.27197 151.529C4.81266 151.192 5.48942 151.024 6.30225 151.024C7.07926 151.024 7.73275 151.19 8.2627 151.523C8.79622 151.856 9.19906 152.326 9.47119 152.931C9.74691 153.532 9.88477 154.243 9.88477 155.063ZM3.63281 155.063C3.63281 155.729 3.7277 156.306 3.91748 156.792C4.10726 157.279 4.3973 157.655 4.7876 157.92C5.18148 158.185 5.68099 158.318 6.28613 158.318C6.89486 158.318 7.39258 158.185 7.7793 157.92C8.1696 157.655 8.45785 157.279 8.64404 156.792C8.83024 156.306 8.92334 155.729 8.92334 155.063C8.92334 154.05 8.71029 153.258 8.28418 152.689C7.86165 152.116 7.20101 151.83 6.30225 151.83C5.69352 151.83 5.19222 151.96 4.79834 152.222C4.40446 152.483 4.11084 152.855 3.91748 153.339C3.7277 153.819 3.63281 154.393 3.63281 155.063ZM12.7959 159L10.5615 153.113H11.5176L12.812 156.674C12.9015 156.918 12.9928 157.186 13.0859 157.48C13.179 157.774 13.2435 158.01 13.2793 158.189H13.3169C13.3599 158.01 13.4315 157.774 13.5317 157.48C13.632 157.183 13.7233 156.914 13.8057 156.674L15.1001 153.113H16.0562L13.8164 159H12.7959ZM19.2681 153.006C19.7694 153.006 20.1991 153.117 20.5571 153.339C20.9152 153.561 21.1891 153.872 21.3789 154.273C21.5687 154.671 21.6636 155.136 21.6636 155.67V156.223H17.5977C17.6084 156.914 17.7803 157.441 18.1133 157.802C18.4463 158.164 18.9154 158.345 19.5205 158.345C19.8929 158.345 20.2223 158.311 20.5088 158.243C20.7952 158.175 21.0924 158.074 21.4004 157.942V158.726C21.1032 158.859 20.8078 158.955 20.5142 159.016C20.2241 159.077 19.8804 159.107 19.4829 159.107C18.9172 159.107 18.423 158.993 18.0005 158.764C17.5815 158.531 17.2557 158.191 17.0229 157.743C16.7902 157.296 16.6738 156.748 16.6738 156.1C16.6738 155.466 16.7795 154.918 16.9907 154.456C17.2056 153.991 17.5063 153.632 17.8931 153.382C18.2834 153.131 18.7417 153.006 19.2681 153.006ZM19.2573 153.736C18.7811 153.736 18.4015 153.892 18.1187 154.204C17.8358 154.515 17.6675 154.95 17.6138 155.509H20.729C20.7254 155.158 20.6699 154.85 20.5625 154.585C20.4587 154.316 20.2993 154.109 20.0845 153.962C19.8696 153.812 19.5939 153.736 19.2573 153.736ZM25.853 153.006C25.9712 153.006 26.0947 153.013 26.2236 153.027C26.3525 153.038 26.4671 153.054 26.5674 153.076L26.4546 153.903C26.3579 153.878 26.2505 153.858 26.1323 153.844C26.0142 153.829 25.9032 153.822 25.7993 153.822C25.563 153.822 25.3392 153.871 25.1279 153.967C24.9202 154.06 24.7376 154.196 24.5801 154.375C24.4225 154.551 24.299 154.764 24.2095 155.015C24.12 155.262 24.0752 155.537 24.0752 155.842V159H23.1782V153.113H23.9194L24.0161 154.198H24.0537C24.1755 153.98 24.3223 153.781 24.4941 153.602C24.666 153.419 24.8647 153.274 25.0903 153.167C25.3195 153.06 25.5737 153.006 25.853 153.006ZM28.5762 159H27.6792V150.643H28.5762V159ZM32.6636 153.017C33.3654 153.017 33.8864 153.174 34.2266 153.489C34.5667 153.804 34.7368 154.307 34.7368 154.999V159H34.0869L33.915 158.13H33.8721C33.7074 158.345 33.5355 158.526 33.3564 158.672C33.1774 158.816 32.9697 158.925 32.7334 159C32.5007 159.072 32.2142 159.107 31.874 159.107C31.516 159.107 31.1973 159.045 30.918 158.919C30.6423 158.794 30.4238 158.604 30.2627 158.35C30.1051 158.096 30.0264 157.774 30.0264 157.383C30.0264 156.796 30.2591 156.345 30.7246 156.03C31.1901 155.715 31.8991 155.543 32.8516 155.514L33.8667 155.471V155.111C33.8667 154.603 33.7575 154.247 33.5391 154.042C33.3206 153.838 33.0127 153.736 32.6152 153.736C32.3073 153.736 32.0137 153.781 31.7344 153.871C31.4551 153.96 31.1901 154.066 30.9395 154.188L30.6655 153.511C30.9305 153.375 31.2349 153.258 31.5786 153.162C31.9224 153.065 32.284 153.017 32.6636 153.017ZM33.856 156.1L32.959 156.137C32.2249 156.166 31.7075 156.286 31.4067 156.497C31.106 156.708 30.9556 157.007 30.9556 157.394C30.9556 157.731 31.0576 157.979 31.2617 158.141C31.4658 158.302 31.7362 158.382 32.0728 158.382C32.5955 158.382 33.0234 158.237 33.3564 157.947C33.6895 157.657 33.856 157.222 33.856 156.642V156.1ZM39.3398 153.006C40.0739 153.006 40.6593 153.258 41.0962 153.763C41.533 154.268 41.7515 155.027 41.7515 156.041C41.7515 156.71 41.6512 157.272 41.4507 157.727C41.2502 158.182 40.9673 158.526 40.6021 158.758C40.2404 158.991 39.8125 159.107 39.3184 159.107C39.0068 159.107 38.7329 159.066 38.4966 158.984C38.2603 158.902 38.0579 158.791 37.8896 158.651C37.7214 158.511 37.5817 158.359 37.4707 158.194H37.4062C37.417 158.334 37.4295 158.502 37.4438 158.699C37.4618 158.896 37.4707 159.068 37.4707 159.215V161.632H36.5737V153.113H37.3096L37.4277 153.983H37.4707C37.5853 153.804 37.7249 153.641 37.8896 153.495C38.0544 153.344 38.2549 153.226 38.4912 153.14C38.7311 153.051 39.014 153.006 39.3398 153.006ZM39.1841 153.758C38.7759 153.758 38.4465 153.837 38.1958 153.994C37.9487 154.152 37.7679 154.388 37.6533 154.703C37.5387 155.015 37.4779 155.407 37.4707 155.879V156.051C37.4707 156.549 37.5244 156.97 37.6318 157.313C37.7428 157.657 37.9237 157.919 38.1743 158.098C38.4285 158.277 38.7687 158.366 39.1948 158.366C39.5601 158.366 39.8644 158.268 40.1079 158.071C40.3514 157.874 40.5322 157.6 40.6504 157.249C40.7721 156.895 40.833 156.488 40.833 156.03C40.833 155.335 40.6969 154.784 40.4248 154.375C40.1562 153.964 39.7427 153.758 39.1841 153.758Z" fill="#56C6EB"/>
</g>
<g style="mix-blend-mode:multiply">
<path d="M49.623 155.643C49.623 155.17 49.6553 154.708 49.7197 154.257C49.7878 153.806 49.9006 153.387 50.0581 153C50.2157 152.61 50.4305 152.268 50.7026 151.975C50.9748 151.681 51.3132 151.452 51.7178 151.287C52.126 151.119 52.6147 151.035 53.1841 151.035C53.3452 151.035 53.5189 151.044 53.7051 151.062C53.8913 151.076 54.0452 151.101 54.167 151.137V151.905C54.0345 151.858 53.8823 151.824 53.7104 151.803C53.5422 151.781 53.3721 151.771 53.2002 151.771C52.5342 151.771 52.0096 151.916 51.6265 152.206C51.2469 152.496 50.973 152.889 50.8047 153.387C50.6364 153.881 50.5397 154.438 50.5146 155.058H50.5737C50.6847 154.879 50.8262 154.717 50.998 154.574C51.1699 154.427 51.3776 154.311 51.6211 154.225C51.8682 154.139 52.1546 154.096 52.4805 154.096C52.9388 154.096 53.3381 154.189 53.6782 154.375C54.022 154.562 54.2869 154.832 54.4731 155.187C54.6629 155.541 54.7578 155.971 54.7578 156.476C54.7578 157.016 54.6576 157.484 54.457 157.877C54.2565 158.271 53.9701 158.576 53.5977 158.791C53.2288 159.002 52.7884 159.107 52.2764 159.107C51.8932 159.107 51.5405 159.034 51.2183 158.887C50.896 158.74 50.6149 158.522 50.375 158.232C50.1387 157.942 49.9543 157.582 49.8218 157.152C49.6893 156.719 49.623 156.216 49.623 155.643ZM52.2656 158.355C52.7526 158.355 53.1429 158.2 53.4365 157.888C53.7301 157.577 53.877 157.106 53.877 156.476C53.877 155.96 53.7463 155.552 53.4849 155.251C53.2235 154.95 52.8296 154.8 52.3032 154.8C51.9451 154.8 51.6336 154.875 51.3687 155.025C51.1037 155.172 50.8978 155.358 50.751 155.584C50.6042 155.81 50.5308 156.039 50.5308 156.271C50.5308 156.508 50.5648 156.748 50.6328 156.991C50.7044 157.235 50.8118 157.46 50.9551 157.668C51.0983 157.876 51.2791 158.042 51.4976 158.167C51.716 158.293 51.972 158.355 52.2656 158.355ZM60.6929 152.979C60.6929 153.33 60.6248 153.634 60.4888 153.892C60.3527 154.15 60.1629 154.361 59.9194 154.526C59.6759 154.687 59.3895 154.8 59.0601 154.864V154.907C59.6831 154.986 60.1504 155.187 60.4619 155.509C60.777 155.831 60.9346 156.254 60.9346 156.776C60.9346 157.231 60.8271 157.634 60.6123 157.985C60.401 158.336 60.0752 158.611 59.6348 158.812C59.1979 159.009 58.6375 159.107 57.9536 159.107C57.5382 159.107 57.1533 159.073 56.7988 159.005C56.4479 158.941 56.1113 158.832 55.7891 158.678V157.84C56.1149 158.001 56.4694 158.128 56.8525 158.221C57.2357 158.311 57.6063 158.355 57.9644 158.355C58.6805 158.355 59.1979 158.214 59.5166 157.931C59.8353 157.645 59.9946 157.254 59.9946 156.76C59.9946 156.42 59.9051 156.146 59.7261 155.938C59.5506 155.727 59.2964 155.573 58.9634 155.477C58.634 155.376 58.2365 155.326 57.771 155.326H56.9868V154.563H57.7764C58.2025 154.563 58.5641 154.501 58.8613 154.375C59.1585 154.25 59.3841 154.075 59.5381 153.849C59.6956 153.62 59.7744 153.35 59.7744 153.038C59.7744 152.641 59.6419 152.334 59.377 152.12C59.112 151.901 58.7521 151.792 58.2974 151.792C58.0181 151.792 57.7638 151.821 57.5347 151.878C57.3055 151.935 57.0907 152.014 56.8901 152.114C56.6896 152.215 56.4891 152.331 56.2886 152.463L55.8374 151.851C56.1239 151.629 56.473 151.438 56.8848 151.276C57.2965 151.115 57.7638 151.035 58.2866 151.035C59.0887 151.035 59.6903 151.217 60.0913 151.583C60.4924 151.948 60.6929 152.413 60.6929 152.979ZM62.3955 158.441C62.3955 158.191 62.4564 158.014 62.5781 157.91C62.6999 157.802 62.8485 157.749 63.0239 157.749C63.2065 157.749 63.3605 157.802 63.4858 157.91C63.6112 158.014 63.6738 158.191 63.6738 158.441C63.6738 158.688 63.6112 158.869 63.4858 158.984C63.3605 159.095 63.2065 159.15 63.0239 159.15C62.8485 159.15 62.6999 159.095 62.5781 158.984C62.4564 158.869 62.3955 158.688 62.3955 158.441ZM65.1025 155.643C65.1025 155.17 65.1348 154.708 65.1992 154.257C65.2673 153.806 65.38 153.387 65.5376 153C65.6951 152.61 65.91 152.268 66.1821 151.975C66.4543 151.681 66.7926 151.452 67.1973 151.287C67.6055 151.119 68.0942 151.035 68.6636 151.035C68.8247 151.035 68.9984 151.044 69.1846 151.062C69.3708 151.076 69.5247 151.101 69.6465 151.137V151.905C69.514 151.858 69.3618 151.824 69.1899 151.803C69.0216 151.781 68.8516 151.771 68.6797 151.771C68.0137 151.771 67.4891 151.916 67.106 152.206C66.7264 152.496 66.4525 152.889 66.2842 153.387C66.1159 153.881 66.0192 154.438 65.9941 155.058H66.0532C66.1642 154.879 66.3057 154.717 66.4775 154.574C66.6494 154.427 66.8571 154.311 67.1006 154.225C67.3477 154.139 67.6341 154.096 67.96 154.096C68.4183 154.096 68.8175 154.189 69.1577 154.375C69.5015 154.562 69.7664 154.832 69.9526 155.187C70.1424 155.541 70.2373 155.971 70.2373 156.476C70.2373 157.016 70.137 157.484 69.9365 157.877C69.736 158.271 69.4495 158.576 69.0771 158.791C68.7083 159.002 68.2679 159.107 67.7559 159.107C67.3727 159.107 67.02 159.034 66.6978 158.887C66.3755 158.74 66.0944 158.522 65.8545 158.232C65.6182 157.942 65.4338 157.582 65.3013 157.152C65.1688 156.719 65.1025 156.216 65.1025 155.643ZM67.7451 158.355C68.2321 158.355 68.6224 158.2 68.916 157.888C69.2096 157.577 69.3564 157.106 69.3564 156.476C69.3564 155.96 69.2257 155.552 68.9644 155.251C68.703 154.95 68.3091 154.8 67.7827 154.8C67.4246 154.8 67.1131 154.875 66.8481 155.025C66.5832 155.172 66.3773 155.358 66.2305 155.584C66.0837 155.81 66.0103 156.039 66.0103 156.271C66.0103 156.508 66.0443 156.748 66.1123 156.991C66.1839 157.235 66.2913 157.46 66.4346 157.668C66.5778 157.876 66.7586 158.042 66.9771 158.167C67.1955 158.293 67.4515 158.355 67.7451 158.355ZM72.9175 151.035C73.4546 151.035 73.861 151.25 74.1367 151.679C74.416 152.105 74.5557 152.709 74.5557 153.489C74.5557 154.27 74.4214 154.879 74.1528 155.315C73.8843 155.749 73.4725 155.965 72.9175 155.965C72.4019 155.965 72.0062 155.749 71.7305 155.315C71.4583 154.879 71.3223 154.27 71.3223 153.489C71.3223 152.709 71.453 152.105 71.7144 151.679C71.9757 151.25 72.3768 151.035 72.9175 151.035ZM72.9175 151.674C72.6274 151.674 72.4144 151.826 72.2783 152.13C72.1423 152.431 72.0742 152.884 72.0742 153.489C72.0742 154.094 72.1423 154.551 72.2783 154.859C72.4144 155.167 72.6274 155.321 72.9175 155.321C73.2183 155.321 73.4421 155.167 73.5889 154.859C73.7357 154.551 73.8091 154.094 73.8091 153.489C73.8091 152.888 73.7357 152.435 73.5889 152.13C73.4456 151.826 73.2218 151.674 72.9175 151.674ZM77.8911 151.147L73.5352 159H72.751L77.1069 151.147H77.8911ZM77.6816 154.182C78.2152 154.182 78.6216 154.397 78.9009 154.827C79.1802 155.253 79.3198 155.856 79.3198 156.637C79.3198 157.414 79.1855 158.021 78.917 158.458C78.6484 158.891 78.2367 159.107 77.6816 159.107C77.1624 159.107 76.7668 158.891 76.4946 158.458C76.2225 158.021 76.0864 157.414 76.0864 156.637C76.0864 155.856 76.2153 155.253 76.4731 154.827C76.7345 154.397 77.1374 154.182 77.6816 154.182ZM77.6816 154.827C77.3916 154.827 77.1785 154.977 77.0425 155.278C76.9064 155.579 76.8384 156.032 76.8384 156.637C76.8384 157.242 76.9064 157.698 77.0425 158.006C77.1785 158.311 77.3916 158.463 77.6816 158.463C77.9824 158.463 78.2062 158.312 78.353 158.012C78.4998 157.707 78.5732 157.249 78.5732 156.637C78.5732 156.035 78.4998 155.584 78.353 155.283C78.2098 154.979 77.986 154.827 77.6816 154.827Z" fill="#56C6EB"/>
</g>
<path d="M328.748 125H326.78V117.357H324.26V115.72H331.268V117.357H328.748V125ZM336.505 117.77C336.602 117.77 336.714 117.776 336.841 117.789C336.972 117.798 337.078 117.81 337.159 117.827L337.013 119.643C336.949 119.621 336.858 119.607 336.74 119.598C336.625 119.585 336.526 119.579 336.441 119.579C336.192 119.579 335.948 119.611 335.711 119.674C335.479 119.738 335.269 119.841 335.083 119.985C334.897 120.125 334.749 120.311 334.639 120.544C334.533 120.772 334.48 121.054 334.48 121.388V125H332.544V117.903H334.01L334.296 119.097H334.391C334.531 118.855 334.704 118.635 334.912 118.437C335.123 118.233 335.362 118.073 335.629 117.954C335.9 117.831 336.192 117.77 336.505 117.77ZM341.354 117.757C342.307 117.757 343.037 117.965 343.544 118.379C344.052 118.794 344.306 119.425 344.306 120.271V125H342.954L342.58 124.035H342.529C342.326 124.289 342.118 124.496 341.907 124.657C341.695 124.818 341.452 124.937 341.177 125.013C340.902 125.089 340.567 125.127 340.174 125.127C339.755 125.127 339.378 125.047 339.044 124.886C338.714 124.725 338.454 124.479 338.263 124.149C338.073 123.815 337.978 123.392 337.978 122.88C337.978 122.127 338.242 121.572 338.771 121.217C339.3 120.857 340.093 120.658 341.151 120.62L342.383 120.582V120.271C342.383 119.899 342.285 119.626 342.091 119.452C341.896 119.279 341.625 119.192 341.278 119.192C340.936 119.192 340.599 119.241 340.269 119.338C339.939 119.435 339.609 119.558 339.279 119.706L338.638 118.398C339.014 118.2 339.435 118.043 339.901 117.929C340.371 117.814 340.855 117.757 341.354 117.757ZM342.383 121.712L341.634 121.737C341.007 121.754 340.572 121.866 340.326 122.074C340.085 122.281 339.964 122.554 339.964 122.893C339.964 123.189 340.051 123.4 340.225 123.527C340.398 123.65 340.625 123.711 340.904 123.711C341.319 123.711 341.668 123.589 341.951 123.343C342.239 123.098 342.383 122.749 342.383 122.296V121.712ZM348.553 125.127C347.761 125.127 347.116 124.818 346.617 124.2C346.122 123.578 345.874 122.666 345.874 121.464C345.874 120.25 346.126 119.332 346.629 118.709C347.133 118.083 347.791 117.77 348.604 117.77C348.942 117.77 349.24 117.817 349.499 117.91C349.757 118.003 349.979 118.128 350.165 118.284C350.355 118.441 350.516 118.616 350.647 118.811H350.711C350.686 118.676 350.654 118.477 350.616 118.214C350.582 117.948 350.565 117.675 350.565 117.396V115.123H352.507V125H351.022L350.647 124.08H350.565C350.442 124.274 350.288 124.452 350.102 124.613C349.92 124.769 349.702 124.894 349.448 124.987C349.194 125.08 348.896 125.127 348.553 125.127ZM349.232 123.584C349.761 123.584 350.133 123.428 350.349 123.115C350.569 122.797 350.686 122.321 350.698 121.687V121.477C350.698 120.787 350.592 120.26 350.381 119.896C350.169 119.528 349.776 119.344 349.2 119.344C348.773 119.344 348.438 119.528 348.197 119.896C347.956 120.265 347.835 120.796 347.835 121.49C347.835 122.184 347.956 122.706 348.197 123.058C348.443 123.409 348.788 123.584 349.232 123.584ZM357.458 117.77C358.114 117.77 358.679 117.897 359.153 118.151C359.627 118.401 359.993 118.764 360.251 119.243C360.51 119.721 360.639 120.305 360.639 120.995V121.934H356.062C356.083 122.48 356.246 122.91 356.551 123.223C356.86 123.532 357.287 123.686 357.833 123.686C358.286 123.686 358.701 123.639 359.077 123.546C359.454 123.453 359.841 123.314 360.239 123.127V124.625C359.888 124.799 359.519 124.926 359.134 125.006C358.753 125.087 358.29 125.127 357.744 125.127C357.033 125.127 356.403 124.996 355.853 124.733C355.307 124.471 354.877 124.071 354.564 123.534C354.255 122.996 354.101 122.319 354.101 121.502C354.101 120.673 354.24 119.983 354.52 119.433C354.803 118.879 355.197 118.464 355.7 118.189C356.204 117.91 356.79 117.77 357.458 117.77ZM357.471 119.147C357.095 119.147 356.781 119.268 356.532 119.509C356.286 119.75 356.145 120.129 356.106 120.646H358.823C358.819 120.358 358.766 120.102 358.665 119.877C358.567 119.653 358.419 119.475 358.22 119.344C358.026 119.213 357.776 119.147 357.471 119.147ZM366.174 117.77C366.271 117.77 366.383 117.776 366.51 117.789C366.641 117.798 366.747 117.81 366.828 117.827L366.682 119.643C366.618 119.621 366.527 119.607 366.409 119.598C366.294 119.585 366.195 119.579 366.11 119.579C365.861 119.579 365.617 119.611 365.38 119.674C365.148 119.738 364.938 119.841 364.752 119.985C364.566 120.125 364.418 120.311 364.308 120.544C364.202 120.772 364.149 121.054 364.149 121.388V125H362.213V117.903H363.679L363.965 119.097H364.06C364.2 118.855 364.373 118.635 364.581 118.437C364.792 118.233 365.031 118.073 365.298 117.954C365.569 117.831 365.861 117.77 366.174 117.77ZM370.674 127.729C370.42 127.729 370.198 127.715 370.008 127.685C369.813 127.66 369.648 127.628 369.513 127.59V125.952C369.648 125.982 369.794 126.009 369.951 126.035C370.103 126.064 370.266 126.079 370.439 126.079C370.668 126.079 370.873 126.035 371.055 125.946C371.237 125.861 371.381 125.698 371.487 125.457C371.593 125.216 371.646 124.869 371.646 124.416V115.72H373.613V124.403C373.613 125.199 373.488 125.84 373.239 126.327C372.993 126.818 372.648 127.173 372.204 127.393C371.764 127.617 371.254 127.729 370.674 127.729ZM382.246 121.439C382.246 122.031 382.166 122.556 382.005 123.013C381.848 123.47 381.618 123.857 381.313 124.175C381.013 124.488 380.649 124.725 380.221 124.886C379.798 125.047 379.32 125.127 378.787 125.127C378.287 125.127 377.828 125.047 377.409 124.886C376.994 124.725 376.633 124.488 376.324 124.175C376.019 123.857 375.782 123.47 375.613 123.013C375.448 122.556 375.365 122.031 375.365 121.439C375.365 120.652 375.505 119.985 375.784 119.439C376.063 118.894 376.461 118.479 376.978 118.195C377.494 117.912 378.11 117.77 378.825 117.77C379.489 117.77 380.077 117.912 380.589 118.195C381.106 118.479 381.51 118.894 381.802 119.439C382.098 119.985 382.246 120.652 382.246 121.439ZM377.339 121.439C377.339 121.904 377.39 122.296 377.492 122.613C377.593 122.931 377.752 123.17 377.968 123.331C378.184 123.491 378.465 123.572 378.812 123.572C379.155 123.572 379.432 123.491 379.644 123.331C379.859 123.17 380.016 122.931 380.113 122.613C380.215 122.296 380.266 121.904 380.266 121.439C380.266 120.969 380.215 120.58 380.113 120.271C380.016 119.958 379.859 119.723 379.644 119.566C379.428 119.41 379.146 119.332 378.799 119.332C378.287 119.332 377.915 119.507 377.682 119.858C377.454 120.21 377.339 120.736 377.339 121.439ZM386.772 117.77C387.428 117.77 387.993 117.897 388.467 118.151C388.941 118.401 389.307 118.764 389.565 119.243C389.823 119.721 389.952 120.305 389.952 120.995V121.934H385.375C385.397 122.48 385.56 122.91 385.864 123.223C386.173 123.532 386.601 123.686 387.146 123.686C387.599 123.686 388.014 123.639 388.391 123.546C388.767 123.453 389.154 123.314 389.552 123.127V124.625C389.201 124.799 388.833 124.926 388.448 125.006C388.067 125.087 387.604 125.127 387.058 125.127C386.347 125.127 385.716 124.996 385.166 124.733C384.62 124.471 384.191 124.071 383.877 123.534C383.569 122.996 383.414 122.319 383.414 121.502C383.414 120.673 383.554 119.983 383.833 119.433C384.117 118.879 384.51 118.464 385.014 118.189C385.517 117.91 386.103 117.77 386.772 117.77ZM386.785 119.147C386.408 119.147 386.095 119.268 385.845 119.509C385.6 119.75 385.458 120.129 385.42 120.646H388.137C388.132 120.358 388.08 120.102 387.978 119.877C387.881 119.653 387.733 119.475 387.534 119.344C387.339 119.213 387.089 119.147 386.785 119.147ZM393.088 115.72L393.177 115.859C393.101 116.168 393.001 116.498 392.878 116.85C392.76 117.197 392.629 117.546 392.485 117.897C392.345 118.248 392.203 118.583 392.06 118.9H390.669C390.729 118.646 390.788 118.379 390.847 118.1C390.911 117.821 390.97 117.542 391.025 117.262C391.084 116.983 391.137 116.712 391.184 116.45C391.23 116.187 391.27 115.944 391.304 115.72H393.088ZM399.296 122.893C399.296 123.375 399.182 123.783 398.953 124.118C398.729 124.448 398.392 124.7 397.944 124.873C397.495 125.042 396.937 125.127 396.268 125.127C395.773 125.127 395.348 125.095 394.992 125.032C394.641 124.968 394.285 124.862 393.926 124.714V123.115C394.311 123.288 394.723 123.432 395.164 123.546C395.608 123.656 395.997 123.711 396.332 123.711C396.708 123.711 396.977 123.656 397.138 123.546C397.303 123.432 397.385 123.284 397.385 123.102C397.385 122.984 397.351 122.878 397.284 122.785C397.22 122.687 397.081 122.579 396.865 122.461C396.649 122.338 396.31 122.18 395.849 121.985C395.405 121.799 395.039 121.61 394.751 121.42C394.467 121.229 394.256 121.005 394.116 120.747C393.981 120.485 393.913 120.153 393.913 119.75C393.913 119.095 394.167 118.602 394.675 118.271C395.187 117.937 395.87 117.77 396.725 117.77C397.165 117.77 397.584 117.814 397.982 117.903C398.384 117.992 398.797 118.134 399.22 118.329L398.636 119.725C398.285 119.573 397.952 119.448 397.639 119.351C397.33 119.253 397.015 119.205 396.693 119.205C396.41 119.205 396.196 119.243 396.052 119.319C395.908 119.395 395.836 119.511 395.836 119.668C395.836 119.782 395.872 119.884 395.944 119.973C396.021 120.062 396.164 120.161 396.376 120.271C396.592 120.377 396.907 120.514 397.322 120.684C397.724 120.849 398.073 121.022 398.369 121.204C398.665 121.382 398.894 121.604 399.055 121.871C399.215 122.133 399.296 122.474 399.296 122.893Z" fill="#EF5771"/>
<g style="mix-blend-mode:multiply">
<path d="M327.486 145H326.567V137.953H324.097V137.147H329.946V137.953H327.486V145ZM336.074 142.046C336.074 142.529 336.012 142.961 335.886 143.34C335.761 143.72 335.58 144.04 335.344 144.302C335.107 144.563 334.821 144.764 334.484 144.903C334.151 145.039 333.774 145.107 333.351 145.107C332.957 145.107 332.596 145.039 332.266 144.903C331.94 144.764 331.657 144.563 331.417 144.302C331.181 144.04 330.997 143.72 330.864 143.34C330.735 142.961 330.671 142.529 330.671 142.046C330.671 141.401 330.78 140.854 330.999 140.402C331.217 139.948 331.528 139.602 331.933 139.366C332.341 139.126 332.826 139.006 333.389 139.006C333.926 139.006 334.395 139.126 334.796 139.366C335.201 139.606 335.514 139.953 335.736 140.408C335.961 140.859 336.074 141.405 336.074 142.046ZM331.595 142.046C331.595 142.519 331.657 142.929 331.783 143.276C331.908 143.623 332.101 143.892 332.363 144.082C332.624 144.271 332.961 144.366 333.373 144.366C333.781 144.366 334.116 144.271 334.377 144.082C334.642 143.892 334.837 143.623 334.962 143.276C335.088 142.929 335.15 142.519 335.15 142.046C335.15 141.577 335.088 141.172 334.962 140.832C334.837 140.488 334.644 140.223 334.382 140.037C334.121 139.851 333.783 139.758 333.367 139.758C332.755 139.758 332.306 139.96 332.019 140.365C331.736 140.769 331.595 141.33 331.595 142.046ZM339.517 144.377C339.664 144.377 339.814 144.364 339.968 144.339C340.122 144.314 340.248 144.284 340.344 144.248V144.941C340.24 144.987 340.095 145.027 339.909 145.059C339.727 145.091 339.548 145.107 339.372 145.107C339.061 145.107 338.778 145.054 338.523 144.946C338.269 144.835 338.065 144.649 337.911 144.388C337.761 144.126 337.686 143.765 337.686 143.303V139.812H336.848V139.376L337.691 139.027L338.045 137.749H338.583V139.113H340.307V139.812H338.583V143.276C338.583 143.645 338.667 143.92 338.835 144.103C339.007 144.286 339.234 144.377 339.517 144.377ZM343.739 139.017C344.441 139.017 344.962 139.174 345.302 139.489C345.642 139.804 345.812 140.307 345.812 140.999V145H345.162L344.99 144.13H344.947C344.783 144.345 344.611 144.526 344.432 144.672C344.253 144.816 344.045 144.925 343.809 145C343.576 145.072 343.289 145.107 342.949 145.107C342.591 145.107 342.272 145.045 341.993 144.919C341.717 144.794 341.499 144.604 341.338 144.35C341.18 144.096 341.102 143.774 341.102 143.383C341.102 142.796 341.334 142.345 341.8 142.03C342.265 141.715 342.974 141.543 343.927 141.514L344.942 141.471V141.111C344.942 140.603 344.833 140.247 344.614 140.042C344.396 139.838 344.088 139.736 343.69 139.736C343.382 139.736 343.089 139.781 342.81 139.871C342.53 139.96 342.265 140.066 342.015 140.188L341.741 139.511C342.006 139.375 342.31 139.258 342.654 139.162C342.998 139.065 343.359 139.017 343.739 139.017ZM344.931 142.1L344.034 142.137C343.3 142.166 342.783 142.286 342.482 142.497C342.181 142.708 342.031 143.007 342.031 143.394C342.031 143.731 342.133 143.979 342.337 144.141C342.541 144.302 342.811 144.382 343.148 144.382C343.671 144.382 344.099 144.237 344.432 143.947C344.765 143.657 344.931 143.222 344.931 142.642V142.1ZM348.546 145H347.649V136.643H348.546V145ZM355.834 145H354.916V137.953H352.445V137.147H358.294V137.953H355.834V145ZM364.407 145L363.44 142.508H360.292L359.331 145H358.407L361.479 137.115H362.301L365.352 145H364.407ZM363.166 141.697L362.248 139.221C362.226 139.156 362.19 139.051 362.14 138.904C362.094 138.757 362.045 138.605 361.995 138.447C361.945 138.29 361.904 138.163 361.872 138.066C361.836 138.213 361.796 138.36 361.753 138.506C361.714 138.65 361.675 138.784 361.635 138.909C361.596 139.031 361.562 139.135 361.533 139.221L360.599 141.697H363.166Z" fill="#EF5771"/>
</g>
<g style="mix-blend-mode:multiply">
<path d="M374.137 137.035C374.591 137.035 374.994 137.106 375.345 137.25C375.696 137.393 375.97 137.604 376.167 137.883C376.368 138.159 376.468 138.499 376.468 138.904C376.468 139.222 376.398 139.502 376.258 139.742C376.122 139.978 375.938 140.186 375.705 140.365C375.472 140.54 375.215 140.698 374.932 140.837C375.268 140.991 375.571 141.165 375.839 141.358C376.111 141.552 376.326 141.779 376.484 142.041C376.641 142.302 376.72 142.612 376.72 142.97C376.72 143.41 376.613 143.792 376.398 144.114C376.187 144.432 375.889 144.678 375.506 144.85C375.123 145.021 374.674 145.107 374.158 145.107C373.603 145.107 373.131 145.025 372.74 144.86C372.354 144.692 372.058 144.452 371.854 144.141C371.653 143.826 371.553 143.448 371.553 143.007C371.553 142.646 371.63 142.332 371.784 142.067C371.938 141.799 372.142 141.568 372.396 141.375C372.651 141.181 372.928 141.018 373.229 140.886C372.968 140.743 372.728 140.58 372.509 140.397C372.294 140.214 372.123 140.001 371.994 139.758C371.868 139.511 371.806 139.224 371.806 138.898C371.806 138.501 371.906 138.164 372.106 137.889C372.311 137.609 372.588 137.398 372.939 137.255C373.293 137.108 373.693 137.035 374.137 137.035ZM372.429 143.013C372.429 143.414 372.57 143.745 372.853 144.006C373.136 144.264 373.564 144.393 374.137 144.393C374.681 144.393 375.102 144.264 375.399 144.006C375.696 143.745 375.845 143.403 375.845 142.98C375.845 142.719 375.777 142.49 375.641 142.293C375.505 142.092 375.311 141.913 375.061 141.756C374.81 141.598 374.514 141.455 374.174 141.326L373.981 141.256C373.652 141.392 373.37 141.545 373.138 141.713C372.909 141.878 372.733 142.066 372.611 142.277C372.49 142.488 372.429 142.733 372.429 143.013ZM374.126 137.765C373.703 137.765 373.358 137.867 373.089 138.071C372.821 138.272 372.687 138.562 372.687 138.941C372.687 139.214 372.751 139.444 372.88 139.634C373.012 139.82 373.191 139.982 373.417 140.118C373.643 140.25 373.895 140.374 374.174 140.488C374.446 140.374 374.688 140.248 374.899 140.112C375.111 139.973 375.277 139.808 375.399 139.618C375.521 139.428 375.582 139.201 375.582 138.936C375.582 138.556 375.447 138.266 375.179 138.066C374.914 137.865 374.563 137.765 374.126 137.765ZM383.026 141.063C383.026 141.7 382.978 142.27 382.881 142.771C382.784 143.272 382.632 143.697 382.424 144.044C382.217 144.391 381.948 144.656 381.619 144.839C381.289 145.018 380.894 145.107 380.432 145.107C379.848 145.107 379.365 144.948 378.981 144.629C378.602 144.311 378.317 143.851 378.127 143.249C377.941 142.644 377.848 141.915 377.848 141.063C377.848 140.225 377.932 139.505 378.101 138.904C378.272 138.299 378.548 137.835 378.928 137.513C379.307 137.187 379.809 137.024 380.432 137.024C381.022 137.024 381.509 137.185 381.893 137.507C382.276 137.826 382.56 138.288 382.747 138.893C382.933 139.495 383.026 140.218 383.026 141.063ZM378.745 141.063C378.745 141.793 378.801 142.402 378.912 142.889C379.023 143.376 379.202 143.741 379.449 143.985C379.699 144.225 380.027 144.345 380.432 144.345C380.836 144.345 381.162 144.225 381.409 143.985C381.66 143.745 381.841 143.382 381.952 142.895C382.066 142.408 382.124 141.797 382.124 141.063C382.124 140.343 382.068 139.742 381.957 139.258C381.846 138.771 381.667 138.406 381.42 138.163C381.173 137.916 380.843 137.792 380.432 137.792C380.02 137.792 379.69 137.916 379.443 138.163C379.196 138.406 379.017 138.771 378.906 139.258C378.799 139.742 378.745 140.343 378.745 141.063ZM387.452 145H386.582V139.436C386.582 139.224 386.582 139.043 386.582 138.893C386.585 138.739 386.589 138.599 386.592 138.474C386.599 138.345 386.608 138.215 386.619 138.082C386.508 138.197 386.404 138.295 386.308 138.377C386.211 138.456 386.091 138.555 385.948 138.673L385.051 139.393L384.583 138.786L386.71 137.147H387.452V145ZM390.69 144.441C390.69 144.191 390.751 144.014 390.873 143.91C390.995 143.802 391.143 143.749 391.319 143.749C391.501 143.749 391.655 143.802 391.781 143.91C391.906 144.014 391.969 144.191 391.969 144.441C391.969 144.688 391.906 144.869 391.781 144.984C391.655 145.095 391.501 145.15 391.319 145.15C391.143 145.15 390.995 145.095 390.873 144.984C390.751 144.869 390.69 144.688 390.69 144.441ZM398.172 138.979C398.172 139.33 398.104 139.634 397.968 139.892C397.832 140.15 397.642 140.361 397.399 140.526C397.155 140.687 396.869 140.8 396.54 140.864V140.907C397.163 140.986 397.63 141.187 397.941 141.509C398.257 141.831 398.414 142.254 398.414 142.776C398.414 143.231 398.307 143.634 398.092 143.985C397.881 144.336 397.555 144.611 397.114 144.812C396.677 145.009 396.117 145.107 395.433 145.107C395.018 145.107 394.633 145.073 394.278 145.005C393.927 144.941 393.591 144.832 393.269 144.678V143.84C393.594 144.001 393.949 144.128 394.332 144.221C394.715 144.311 395.086 144.355 395.444 144.355C396.16 144.355 396.677 144.214 396.996 143.931C397.315 143.645 397.474 143.254 397.474 142.76C397.474 142.42 397.385 142.146 397.206 141.938C397.03 141.727 396.776 141.573 396.443 141.477C396.113 141.376 395.716 141.326 395.25 141.326H394.466V140.563H395.256C395.682 140.563 396.044 140.501 396.341 140.375C396.638 140.25 396.864 140.075 397.018 139.849C397.175 139.62 397.254 139.35 397.254 139.038C397.254 138.641 397.121 138.334 396.856 138.12C396.591 137.901 396.232 137.792 395.777 137.792C395.498 137.792 395.243 137.821 395.014 137.878C394.785 137.935 394.57 138.014 394.37 138.114C394.169 138.215 393.969 138.331 393.768 138.463L393.317 137.851C393.603 137.629 393.952 137.438 394.364 137.276C394.776 137.115 395.243 137.035 395.766 137.035C396.568 137.035 397.17 137.217 397.571 137.583C397.972 137.948 398.172 138.413 398.172 138.979ZM406.675 143.389C406.675 143.765 406.58 144.082 406.39 144.339C406.204 144.594 405.935 144.785 405.584 144.914C405.237 145.043 404.822 145.107 404.338 145.107C403.927 145.107 403.57 145.075 403.27 145.011C402.969 144.946 402.706 144.855 402.48 144.737V143.915C402.72 144.033 403.006 144.141 403.339 144.237C403.672 144.334 404.013 144.382 404.36 144.382C404.868 144.382 405.237 144.3 405.466 144.135C405.695 143.971 405.81 143.747 405.81 143.464C405.81 143.303 405.764 143.161 405.67 143.04C405.581 142.914 405.429 142.794 405.214 142.68C404.999 142.562 404.702 142.433 404.322 142.293C403.946 142.15 403.62 142.008 403.345 141.869C403.073 141.725 402.861 141.552 402.711 141.348C402.564 141.144 402.491 140.879 402.491 140.553C402.491 140.055 402.691 139.674 403.092 139.409C403.497 139.14 404.027 139.006 404.682 139.006C405.037 139.006 405.368 139.042 405.676 139.113C405.987 139.181 406.277 139.274 406.546 139.393L406.245 140.107C406.002 140.003 405.742 139.915 405.466 139.844C405.191 139.772 404.91 139.736 404.623 139.736C404.211 139.736 403.894 139.804 403.672 139.94C403.454 140.076 403.345 140.263 403.345 140.499C403.345 140.682 403.395 140.832 403.495 140.95C403.599 141.068 403.764 141.179 403.989 141.283C404.215 141.387 404.512 141.509 404.881 141.648C405.25 141.785 405.568 141.926 405.837 142.073C406.105 142.216 406.311 142.391 406.455 142.599C406.601 142.803 406.675 143.066 406.675 143.389ZM412.057 147.632V145.107C412.057 144.968 412.06 144.807 412.067 144.624C412.075 144.441 412.087 144.284 412.105 144.151H412.046C411.881 144.424 411.647 144.651 411.342 144.833C411.038 145.016 410.646 145.107 410.166 145.107C409.446 145.107 408.868 144.853 408.431 144.345C407.994 143.836 407.776 143.077 407.776 142.067C407.776 141.405 407.876 140.846 408.077 140.392C408.277 139.937 408.56 139.593 408.925 139.36C409.294 139.124 409.724 139.006 410.214 139.006C410.683 139.006 411.067 139.099 411.364 139.285C411.661 139.468 411.894 139.692 412.062 139.957H412.105L412.239 139.113H412.948V147.632H412.057ZM410.333 144.366C410.748 144.366 411.081 144.289 411.332 144.135C411.582 143.978 411.765 143.741 411.879 143.426C411.998 143.111 412.06 142.719 412.067 142.25V142.062C412.067 141.303 411.938 140.728 411.681 140.338C411.423 139.944 410.973 139.747 410.333 139.747C409.781 139.747 409.371 139.958 409.103 140.381C408.834 140.8 408.7 141.369 408.7 142.089C408.7 142.809 408.834 143.369 409.103 143.77C409.371 144.167 409.781 144.366 410.333 144.366ZM424.093 139.006C424.741 139.006 425.23 139.176 425.56 139.516C425.889 139.853 426.054 140.395 426.054 141.144V145H425.173V141.187C425.173 140.71 425.069 140.354 424.861 140.118C424.657 139.878 424.353 139.758 423.948 139.758C423.379 139.758 422.965 139.923 422.708 140.252C422.45 140.581 422.321 141.067 422.321 141.708V145H421.435V141.187C421.435 140.868 421.388 140.603 421.295 140.392C421.205 140.18 421.069 140.023 420.887 139.919C420.708 139.812 420.48 139.758 420.205 139.758C419.814 139.758 419.501 139.838 419.265 140C419.028 140.161 418.856 140.401 418.749 140.719C418.645 141.034 418.593 141.423 418.593 141.885V145H417.702V139.113H418.421L418.556 139.946H418.604C418.722 139.742 418.871 139.57 419.05 139.43C419.229 139.291 419.429 139.185 419.651 139.113C419.873 139.042 420.11 139.006 420.36 139.006C420.808 139.006 421.182 139.09 421.483 139.258C421.787 139.423 422.007 139.675 422.144 140.016H422.192C422.385 139.675 422.65 139.423 422.987 139.258C423.323 139.09 423.692 139.006 424.093 139.006ZM428.777 139.113V145H427.885V139.113H428.777ZM428.342 136.911C428.489 136.911 428.614 136.959 428.718 137.056C428.825 137.149 428.879 137.296 428.879 137.497C428.879 137.694 428.825 137.84 428.718 137.937C428.614 138.034 428.489 138.082 428.342 138.082C428.188 138.082 428.059 138.034 427.955 137.937C427.855 137.84 427.805 137.694 427.805 137.497C427.805 137.296 427.855 137.149 427.955 137.056C428.059 136.959 428.188 136.911 428.342 136.911Z" fill="#EF5771"/>
</g>
<g style="mix-blend-mode:multiply">
<path d="M331.885 157.063C331.885 157.668 331.808 158.22 331.654 158.717C331.5 159.211 331.271 159.638 330.966 159.996C330.666 160.35 330.291 160.624 329.844 160.817C329.396 161.011 328.877 161.107 328.286 161.107C327.677 161.107 327.146 161.011 326.691 160.817C326.24 160.624 325.864 160.348 325.563 159.99C325.266 159.632 325.042 159.204 324.892 158.707C324.745 158.209 324.671 157.657 324.671 157.052C324.671 156.25 324.804 155.547 325.069 154.941C325.334 154.336 325.735 153.865 326.272 153.529C326.813 153.192 327.489 153.024 328.302 153.024C329.079 153.024 329.733 153.19 330.263 153.523C330.796 153.856 331.199 154.326 331.471 154.931C331.747 155.532 331.885 156.243 331.885 157.063ZM325.633 157.063C325.633 157.729 325.728 158.306 325.917 158.792C326.107 159.279 326.397 159.655 326.788 159.92C327.181 160.185 327.681 160.318 328.286 160.318C328.895 160.318 329.393 160.185 329.779 159.92C330.17 159.655 330.458 159.279 330.644 158.792C330.83 158.306 330.923 157.729 330.923 157.063C330.923 156.05 330.71 155.258 330.284 154.689C329.862 154.116 329.201 153.83 328.302 153.83C327.694 153.83 327.192 153.96 326.798 154.222C326.404 154.483 326.111 154.855 325.917 155.339C325.728 155.819 325.633 156.393 325.633 157.063ZM334.796 161L332.562 155.113H333.518L334.812 158.674C334.902 158.918 334.993 159.186 335.086 159.48C335.179 159.774 335.243 160.01 335.279 160.189H335.317C335.36 160.01 335.431 159.774 335.532 159.48C335.632 159.183 335.723 158.914 335.806 158.674L337.1 155.113H338.056L335.816 161H334.796ZM341.268 155.006C341.769 155.006 342.199 155.117 342.557 155.339C342.915 155.561 343.189 155.872 343.379 156.273C343.569 156.671 343.664 157.136 343.664 157.67V158.223H339.598C339.608 158.914 339.78 159.441 340.113 159.802C340.446 160.164 340.915 160.345 341.521 160.345C341.893 160.345 342.222 160.311 342.509 160.243C342.795 160.175 343.092 160.074 343.4 159.942V160.726C343.103 160.859 342.808 160.955 342.514 161.016C342.224 161.077 341.88 161.107 341.483 161.107C340.917 161.107 340.423 160.993 340 160.764C339.582 160.531 339.256 160.191 339.023 159.743C338.79 159.296 338.674 158.748 338.674 158.1C338.674 157.466 338.779 156.918 338.991 156.456C339.206 155.991 339.506 155.632 339.893 155.382C340.283 155.131 340.742 155.006 341.268 155.006ZM341.257 155.736C340.781 155.736 340.402 155.892 340.119 156.204C339.836 156.515 339.667 156.95 339.614 157.509H342.729C342.725 157.158 342.67 156.85 342.562 156.585C342.459 156.316 342.299 156.109 342.084 155.962C341.87 155.812 341.594 155.736 341.257 155.736ZM347.853 155.006C347.971 155.006 348.095 155.013 348.224 155.027C348.353 155.038 348.467 155.054 348.567 155.076L348.455 155.903C348.358 155.878 348.25 155.858 348.132 155.844C348.014 155.829 347.903 155.822 347.799 155.822C347.563 155.822 347.339 155.871 347.128 155.967C346.92 156.06 346.738 156.196 346.58 156.375C346.423 156.551 346.299 156.764 346.209 157.015C346.12 157.262 346.075 157.537 346.075 157.842V161H345.178V155.113H345.919L346.016 156.198H346.054C346.175 155.98 346.322 155.781 346.494 155.602C346.666 155.419 346.865 155.274 347.09 155.167C347.319 155.06 347.574 155.006 347.853 155.006ZM350.576 161H349.679V152.643H350.576V161ZM354.664 155.017C355.365 155.017 355.886 155.174 356.227 155.489C356.567 155.804 356.737 156.307 356.737 156.999V161H356.087L355.915 160.13H355.872C355.707 160.345 355.535 160.526 355.356 160.672C355.177 160.816 354.97 160.925 354.733 161C354.501 161.072 354.214 161.107 353.874 161.107C353.516 161.107 353.197 161.045 352.918 160.919C352.642 160.794 352.424 160.604 352.263 160.35C352.105 160.096 352.026 159.774 352.026 159.383C352.026 158.796 352.259 158.345 352.725 158.03C353.19 157.715 353.899 157.543 354.852 157.514L355.867 157.471V157.111C355.867 156.603 355.757 156.247 355.539 156.042C355.321 155.838 355.013 155.736 354.615 155.736C354.307 155.736 354.014 155.781 353.734 155.871C353.455 155.96 353.19 156.066 352.939 156.188L352.666 155.511C352.931 155.375 353.235 155.258 353.579 155.162C353.922 155.065 354.284 155.017 354.664 155.017ZM355.856 158.1L354.959 158.137C354.225 158.166 353.708 158.286 353.407 158.497C353.106 158.708 352.956 159.007 352.956 159.394C352.956 159.731 353.058 159.979 353.262 160.141C353.466 160.302 353.736 160.382 354.073 160.382C354.596 160.382 355.023 160.237 355.356 159.947C355.689 159.657 355.856 159.222 355.856 158.642V158.1ZM361.34 155.006C362.074 155.006 362.659 155.258 363.096 155.763C363.533 156.268 363.751 157.027 363.751 158.041C363.751 158.71 363.651 159.272 363.451 159.727C363.25 160.182 362.967 160.526 362.602 160.758C362.24 160.991 361.812 161.107 361.318 161.107C361.007 161.107 360.733 161.066 360.497 160.984C360.26 160.902 360.058 160.791 359.89 160.651C359.721 160.511 359.582 160.359 359.471 160.194H359.406C359.417 160.334 359.43 160.502 359.444 160.699C359.462 160.896 359.471 161.068 359.471 161.215V163.632H358.574V155.113H359.31L359.428 155.983H359.471C359.585 155.804 359.725 155.641 359.89 155.495C360.054 155.344 360.255 155.226 360.491 155.14C360.731 155.051 361.014 155.006 361.34 155.006ZM361.184 155.758C360.776 155.758 360.446 155.837 360.196 155.994C359.949 156.152 359.768 156.388 359.653 156.703C359.539 157.015 359.478 157.407 359.471 157.879V158.051C359.471 158.549 359.524 158.97 359.632 159.313C359.743 159.657 359.924 159.919 360.174 160.098C360.429 160.277 360.769 160.366 361.195 160.366C361.56 160.366 361.864 160.268 362.108 160.071C362.351 159.874 362.532 159.6 362.65 159.249C362.772 158.895 362.833 158.488 362.833 158.03C362.833 157.335 362.697 156.784 362.425 156.375C362.156 155.964 361.743 155.758 361.184 155.758Z" fill="#EF5771"/>
</g>
<g style="mix-blend-mode:multiply">
<path d="M372.623 157.643C372.623 157.17 372.655 156.708 372.72 156.257C372.788 155.806 372.901 155.387 373.058 155C373.216 154.61 373.431 154.268 373.703 153.975C373.975 153.681 374.313 153.452 374.718 153.287C375.126 153.119 375.615 153.035 376.184 153.035C376.345 153.035 376.519 153.044 376.705 153.062C376.891 153.076 377.045 153.101 377.167 153.137V153.905C377.035 153.858 376.882 153.824 376.71 153.803C376.542 153.781 376.372 153.771 376.2 153.771C375.534 153.771 375.01 153.916 374.626 154.206C374.247 154.496 373.973 154.889 373.805 155.387C373.636 155.881 373.54 156.438 373.515 157.058H373.574C373.685 156.879 373.826 156.717 373.998 156.574C374.17 156.427 374.378 156.311 374.621 156.225C374.868 156.139 375.155 156.096 375.48 156.096C375.939 156.096 376.338 156.189 376.678 156.375C377.022 156.562 377.287 156.832 377.473 157.187C377.663 157.541 377.758 157.971 377.758 158.476C377.758 159.016 377.658 159.484 377.457 159.877C377.257 160.271 376.97 160.576 376.598 160.791C376.229 161.002 375.788 161.107 375.276 161.107C374.893 161.107 374.541 161.034 374.218 160.887C373.896 160.74 373.615 160.522 373.375 160.232C373.139 159.942 372.954 159.582 372.822 159.152C372.689 158.719 372.623 158.216 372.623 157.643ZM375.266 160.355C375.753 160.355 376.143 160.2 376.437 159.888C376.73 159.577 376.877 159.106 376.877 158.476C376.877 157.96 376.746 157.552 376.485 157.251C376.223 156.95 375.83 156.8 375.303 156.8C374.945 156.8 374.634 156.875 374.369 157.025C374.104 157.172 373.898 157.358 373.751 157.584C373.604 157.81 373.531 158.039 373.531 158.271C373.531 158.508 373.565 158.748 373.633 158.991C373.704 159.235 373.812 159.46 373.955 159.668C374.098 159.876 374.279 160.042 374.498 160.167C374.716 160.293 374.972 160.355 375.266 160.355ZM384.026 157.063C384.026 157.7 383.978 158.27 383.881 158.771C383.784 159.272 383.632 159.697 383.424 160.044C383.217 160.391 382.948 160.656 382.619 160.839C382.289 161.018 381.894 161.107 381.432 161.107C380.848 161.107 380.365 160.948 379.981 160.629C379.602 160.311 379.317 159.851 379.127 159.249C378.941 158.644 378.848 157.915 378.848 157.063C378.848 156.225 378.932 155.505 379.101 154.904C379.272 154.299 379.548 153.835 379.928 153.513C380.307 153.187 380.809 153.024 381.432 153.024C382.022 153.024 382.509 153.185 382.893 153.507C383.276 153.826 383.56 154.288 383.747 154.893C383.933 155.495 384.026 156.218 384.026 157.063ZM379.745 157.063C379.745 157.793 379.801 158.402 379.912 158.889C380.023 159.376 380.202 159.741 380.449 159.985C380.699 160.225 381.027 160.345 381.432 160.345C381.836 160.345 382.162 160.225 382.409 159.985C382.66 159.745 382.841 159.382 382.952 158.895C383.066 158.408 383.124 157.797 383.124 157.063C383.124 156.343 383.068 155.742 382.957 155.258C382.846 154.771 382.667 154.406 382.42 154.163C382.173 153.916 381.843 153.792 381.432 153.792C381.02 153.792 380.69 153.916 380.443 154.163C380.196 154.406 380.017 154.771 379.906 155.258C379.799 155.742 379.745 156.343 379.745 157.063ZM385.396 160.441C385.396 160.191 385.456 160.014 385.578 159.91C385.7 159.802 385.848 159.749 386.024 159.749C386.207 159.749 386.361 159.802 386.486 159.91C386.611 160.014 386.674 160.191 386.674 160.441C386.674 160.688 386.611 160.869 386.486 160.984C386.361 161.095 386.207 161.15 386.024 161.15C385.848 161.15 385.7 161.095 385.578 160.984C385.456 160.869 385.396 160.688 385.396 160.441ZM388.103 157.643C388.103 157.17 388.135 156.708 388.199 156.257C388.267 155.806 388.38 155.387 388.538 155C388.695 154.61 388.91 154.268 389.182 153.975C389.454 153.681 389.793 153.452 390.197 153.287C390.605 153.119 391.094 153.035 391.664 153.035C391.825 153.035 391.998 153.044 392.185 153.062C392.371 153.076 392.525 153.101 392.646 153.137V153.905C392.514 153.858 392.362 153.824 392.19 153.803C392.022 153.781 391.852 153.771 391.68 153.771C391.014 153.771 390.489 153.916 390.106 154.206C389.726 154.496 389.452 154.889 389.284 155.387C389.116 155.881 389.019 156.438 388.994 157.058H389.053C389.164 156.879 389.306 156.717 389.478 156.574C389.649 156.427 389.857 156.311 390.101 156.225C390.348 156.139 390.634 156.096 390.96 156.096C391.418 156.096 391.818 156.189 392.158 156.375C392.501 156.562 392.766 156.832 392.953 157.187C393.142 157.541 393.237 157.971 393.237 158.476C393.237 159.016 393.137 159.484 392.937 159.877C392.736 160.271 392.45 160.576 392.077 160.791C391.708 161.002 391.268 161.107 390.756 161.107C390.373 161.107 390.02 161.034 389.698 160.887C389.375 160.74 389.094 160.522 388.854 160.232C388.618 159.942 388.434 159.582 388.301 159.152C388.169 158.719 388.103 158.216 388.103 157.643ZM390.745 160.355C391.232 160.355 391.622 160.2 391.916 159.888C392.21 159.577 392.356 159.106 392.356 158.476C392.356 157.96 392.226 157.552 391.964 157.251C391.703 156.95 391.309 156.8 390.783 156.8C390.425 156.8 390.113 156.875 389.848 157.025C389.583 157.172 389.377 157.358 389.23 157.584C389.084 157.81 389.01 158.039 389.01 158.271C389.01 158.508 389.044 158.748 389.112 158.991C389.184 159.235 389.291 159.46 389.435 159.668C389.578 159.876 389.759 160.042 389.977 160.167C390.195 160.293 390.451 160.355 390.745 160.355ZM395.917 153.035C396.455 153.035 396.861 153.25 397.137 153.679C397.416 154.105 397.556 154.709 397.556 155.489C397.556 156.27 397.421 156.879 397.153 157.315C396.884 157.749 396.472 157.965 395.917 157.965C395.402 157.965 395.006 157.749 394.73 157.315C394.458 156.879 394.322 156.27 394.322 155.489C394.322 154.709 394.453 154.105 394.714 153.679C394.976 153.25 395.377 153.035 395.917 153.035ZM395.917 153.674C395.627 153.674 395.414 153.826 395.278 154.13C395.142 154.431 395.074 154.884 395.074 155.489C395.074 156.094 395.142 156.551 395.278 156.859C395.414 157.167 395.627 157.321 395.917 157.321C396.218 157.321 396.442 157.167 396.589 156.859C396.736 156.551 396.809 156.094 396.809 155.489C396.809 154.888 396.736 154.435 396.589 154.13C396.446 153.826 396.222 153.674 395.917 153.674ZM400.891 153.147L396.535 161H395.751L400.107 153.147H400.891ZM400.682 156.182C401.215 156.182 401.622 156.397 401.901 156.827C402.18 157.253 402.32 157.856 402.32 158.637C402.32 159.414 402.186 160.021 401.917 160.458C401.648 160.891 401.237 161.107 400.682 161.107C400.162 161.107 399.767 160.891 399.495 160.458C399.222 160.021 399.086 159.414 399.086 158.637C399.086 157.856 399.215 157.253 399.473 156.827C399.735 156.397 400.137 156.182 400.682 156.182ZM400.682 156.827C400.392 156.827 400.179 156.977 400.042 157.278C399.906 157.579 399.838 158.032 399.838 158.637C399.838 159.242 399.906 159.698 400.042 160.006C400.179 160.311 400.392 160.463 400.682 160.463C400.982 160.463 401.206 160.312 401.353 160.012C401.5 159.707 401.573 159.249 401.573 158.637C401.573 158.035 401.5 157.584 401.353 157.283C401.21 156.979 400.986 156.827 400.682 156.827Z" fill="#EF5771"/>
</g>
</svg>
