<svg width="119" height="14" viewBox="0 0 119 14" fill="none" xmlns="http://www.w3.org/2000/svg">
<path fill-rule="evenodd" clip-rule="evenodd" d="M2.11303 0.900881H8.45338L10.3554 6.53627C9.53106 5.9054 8.66443 4.73329 8.24169 4.28237C7.79843 3.80888 7.18518 4.0566 7.18518 4.0566C5.70594 4.95843 6.76245 9.01597 8.24169 13.5244H2.11303C3.80396 9.46688 4.22669 6.08536 4.015 5.18353C4.015 5.18353 3.82962 4.24135 3.38123 4.0566C2.98929 3.89512 2.32472 4.28237 2.32472 4.28237C1.47925 4.9584 1.05651 5.63444 0 6.53627L2.11303 0.900881Z" fill="#D21242"/>
<path fill-rule="evenodd" clip-rule="evenodd" d="M101.863 13.5243H93.6207C93.6207 13.1863 94.8889 10.5486 94.8889 7.66311C94.8889 4.57513 93.6207 1.21619 93.6207 0.900759H101.863L102.709 4.95831C101.927 4.93573 98.1855 2.59154 97.4253 3.38047C96.0301 4.80095 96.263 6.51357 99.5384 5.63432V8.11403C99.3273 8.11403 97.2765 7.25737 97.0026 7.88893C96.7274 8.54238 96.4535 11.2479 97.8474 11.0446C99.3273 10.8195 101.673 9.06101 102.709 9.01585L101.863 13.5243Z" fill="#D21242"/>
<path fill-rule="evenodd" clip-rule="evenodd" d="M52.8336 13.5243H44.5912C44.5912 13.1863 45.8594 10.5486 45.8594 7.66311C45.8594 4.57513 44.5912 1.21619 44.5912 0.900759H52.8336L53.6791 4.95831C52.8971 4.93573 49.1566 2.59154 48.3952 3.38047C47.0013 4.80095 47.2335 6.51357 50.5089 5.63432V8.11403C50.2972 8.11403 48.2477 7.25737 47.9731 7.88893C47.6979 8.54238 47.4234 11.2479 48.8179 11.0446C50.2972 10.8195 52.6437 9.06101 53.6791 9.01585L52.8336 13.5243Z" fill="#D21242"/>
<path fill-rule="evenodd" clip-rule="evenodd" d="M75.2352 0.900846H82.8431C82.8431 1.0808 79.8847 2.25359 80.0957 7.6632C80.2016 10.7744 79.3137 12.1265 77.3489 13.2993C76.3758 13.8624 74.9607 13.8179 73.967 13.0735C73.3968 12.6452 72.9522 11.9014 72.4878 11.0447C71.8534 9.91775 70.1631 9.46685 70.1631 9.46685C70.7969 9.19658 74.6008 6.98717 75.2352 6.76137C72.6989 9.24175 76.1436 10.5261 76.9255 9.46685C79.4613 6.08533 76.5028 1.80268 75.2352 0.900846Z" fill="#D21242"/>
<path fill-rule="evenodd" clip-rule="evenodd" d="M116.425 1.13409C116.847 1.58501 118.327 0.728351 118.75 0.908991L116.425 5.64188C116.489 4.76263 116.003 3.83887 115.792 3.61376C115.665 3.47828 115.369 2.93708 114.312 2.93708C113.509 2.93708 112.875 3.0951 112.621 3.61376C112.199 4.5149 112.621 5.77736 114.101 6.0928C115.158 6.31791 116.847 7.67064 116.847 9.92453C116.847 12.9222 115.369 13.5305 113.044 13.5305C110.508 13.5305 110.932 13.3054 109.452 13.0803C109.03 13.3054 108.184 13.8008 107.55 13.5305L109.241 8.34669C109.515 8.36927 109.748 11.0515 111.142 11.0515C111.777 11.0515 112.875 10.1278 112.199 9.24852C111.142 7.89577 110.932 8.57179 109.664 7.21972C109.282 6.81397 108.819 6.09279 108.755 4.53751C108.713 3.29835 109.536 1.99075 110.508 1.35919C112.537 0.0522928 116.151 1.13409 116.425 1.13409Z" fill="#D21242"/>
<path fill-rule="evenodd" clip-rule="evenodd" d="M105.649 5.64207L106.071 3.83909C106.071 3.83909 103.325 1.81032 105.226 0.232455C105.649 -0.105561 106.917 -0.217793 107.762 0.908469C108.903 2.44117 105.649 5.64207 105.649 5.64207Z" fill="#D21242"/>
<path fill-rule="evenodd" clip-rule="evenodd" d="M14.3704 2.70433C14.3704 2.70433 16.9062 2.47851 16.6951 4.73308C16.6104 5.67939 14.7931 6.53606 14.3704 6.53606C14.3704 6.53606 14.5821 5.61233 14.5821 4.73308C14.5821 3.94415 14.3704 2.70433 14.3704 2.70433ZM10.3554 0.900677H18.386C19.2309 1.12648 19.823 2.56883 19.6542 3.83126C19.4637 5.36396 17.7523 6.76188 17.7523 6.76188C17.794 7.07731 18.3225 9.06093 19.0198 10.3685C19.8646 11.9464 20.8795 12.8934 20.9218 13.5242H16.6951C16.6951 13.1411 17.3289 11.9464 16.4841 9.6925C16.146 8.74551 15.4269 8.11461 15.4269 8.11461C15.0042 7.4379 14.3704 7.8888 14.3704 7.8888C13.5256 8.33972 14.1594 12.1722 15.2159 13.5242H10.3554C11.4119 12.3973 12.0457 7.8888 12.0457 7.8888C12.4684 2.47851 10.3554 1.53155 10.3554 0.900677Z" fill="#D21242"/>
<path fill-rule="evenodd" clip-rule="evenodd" d="M26.8395 4.05668C27.685 7.43821 28.7415 7.66332 28.3187 7.66332H25.5713C25.5713 7.66332 26.1634 6.59863 26.4168 5.86034C26.6496 5.17883 26.8395 4.05668 26.8395 4.05668ZM33.1799 13.5245H29.1636C29.1636 13.3213 28.6363 10.7964 27.896 9.69207C27.4309 8.99346 26.565 9.15152 26.2051 9.24116C24.5148 9.69207 25.3179 12.8033 25.3596 13.5245H21.3446C21.3446 13.1188 23.2889 7.7988 24.0914 4.95851C24.9375 2.0279 24.5148 1.19382 24.5148 0.900962H29.3753C29.4599 1.14866 29.143 2.92973 29.798 4.95851C30.9815 8.67736 33.1799 13.5245 33.1799 13.5245Z" fill="#D21242"/>
<path fill-rule="evenodd" clip-rule="evenodd" d="M37.8288 3.15504C37.8288 3.15504 40.9143 4.1472 40.999 6.53657C41.083 9.10658 39.097 9.69226 38.4626 9.91806C38.4626 9.91806 38.4626 10.8192 37.8288 7.88931C37.4273 6.01791 37.8288 3.15504 37.8288 3.15504ZM34.2359 13.457C34.2359 13.457 35.1661 11.2927 35.5041 8.04667C35.9268 3.98912 34.0672 2.2532 34.0242 0.833403H39.9425C41.8445 1.50943 43.9363 4.1472 43.9575 6.91974C43.9998 10.2787 42.0555 13.2312 39.7308 13.457C38.2939 13.5918 35.5888 13.457 34.2359 13.457Z" fill="#D21242"/>
<path fill-rule="evenodd" clip-rule="evenodd" d="M59.1738 2.70433C59.1738 2.70433 61.7095 2.47851 61.4979 4.73308C61.4138 5.67939 59.5959 6.53606 59.1738 6.53606C59.1738 6.53606 59.3855 5.61233 59.3855 4.73308C59.3855 3.94415 59.1738 2.70433 59.1738 2.70433ZM55.1581 0.900677H63.1894C64.0342 1.12648 64.6263 2.56883 64.457 3.83126C64.2665 5.36396 62.555 6.76188 62.555 6.76188C62.5974 7.07731 63.1259 9.06093 63.8232 10.3685C64.668 11.9464 65.6828 12.8934 65.7245 13.5242H61.4979C61.4979 13.1411 62.1323 11.9464 61.2874 9.6925C60.9481 8.74551 60.2303 8.11461 60.2303 8.11461C59.8076 7.4379 59.1738 7.8888 59.1738 7.8888C58.3283 8.33972 58.9621 12.1722 60.0193 13.5242H55.1581C56.2147 12.3973 56.8491 7.8888 56.8491 7.8888C57.2718 2.47851 55.1581 1.53155 55.1581 0.900677Z" fill="#D21242"/>
<path fill-rule="evenodd" clip-rule="evenodd" d="M84.5341 7.43795C84.5341 5.94425 85.6688 4.73314 87.0698 4.73314C88.4702 4.73314 89.6056 5.94425 89.6056 7.43795C89.6056 8.93165 88.4702 10.1434 87.0698 10.1434C85.6688 10.1434 84.5341 8.93165 84.5341 7.43795ZM82.6321 7.32507C82.6321 3.77727 84.9029 0.900696 87.7036 0.900696C90.5049 0.900696 92.7764 3.77727 92.7764 7.32507C92.7764 10.8735 90.5049 13.7501 87.7036 13.7501C84.9029 13.7501 82.6321 10.8735 82.6321 7.32507Z" fill="#D21242"/>
</svg>
