<svg width="726" height="750" viewBox="0 0 726 750" fill="none" xmlns="http://www.w3.org/2000/svg">
<path d="M564.228 532.875L560.685 533.529L563.645 535.582L721.883 645.366C721.185 645.529 720.379 645.716 719.467 645.926C715.74 646.782 710.244 648.016 703.171 649.527C689.026 652.549 668.578 656.677 643.374 661.099C592.963 669.944 523.543 679.964 447.495 684.665L446.087 684.752V686.163V748.5H279.913V686.163V684.752L278.505 684.665C202.451 679.964 133.031 669.944 82.6217 661.099C57.4186 656.677 36.9711 652.549 22.8271 649.527C15.7551 648.016 10.2592 646.782 6.53283 645.926C5.62044 645.716 4.81414 645.529 4.11676 645.366L162.343 535.582L165.302 533.529L161.76 532.875C131.537 527.294 106.422 521.575 88.8664 517.253C80.0886 515.092 73.2011 513.28 68.5101 512.009C66.6882 511.515 65.1976 511.103 64.0564 510.784L197.285 399.84L199.587 397.923L196.673 397.228C174.042 391.837 155.328 386.428 142.275 382.368C135.749 380.338 130.639 378.645 127.162 377.461C125.896 377.029 124.846 376.665 124.023 376.377L236.433 259.013L238.055 257.319L235.838 256.557C219.641 250.985 206.282 245.467 196.975 241.344C192.322 239.283 188.682 237.57 186.209 236.375C185.342 235.955 184.618 235.599 184.044 235.314L362.988 2.46157L541.956 235.314C541.382 235.599 540.658 235.955 539.791 236.375C537.317 237.57 533.678 239.283 529.024 241.344C519.715 245.467 506.352 250.985 490.15 256.557L487.932 257.319L489.554 259.013L601.989 376.377C601.166 376.665 600.116 377.029 598.848 377.461C595.37 378.645 590.258 380.338 583.729 382.369C570.672 386.431 551.952 391.844 529.315 397.241L526.4 397.936L528.703 399.853L661.943 510.784C660.802 511.103 659.312 511.515 657.49 512.009C652.799 513.28 645.911 515.092 637.132 517.253C619.575 521.575 594.457 527.294 564.228 532.875Z" fill="#55B1A7" stroke="#388B82" stroke-width="3"/>
</svg>
