<svg width="31" height="31" viewBox="0 0 31 31" fill="none" xmlns="http://www.w3.org/2000/svg">
<g clip-path="url(#clip0_400_18109)">
<path d="M20.8371 16.0565C20.8371 16.0565 20.6661 16.068 20.5821 16.0813C20.2577 16.1335 20.1612 16.2213 20.1612 16.6207V19.7711C20.1612 20.2006 20.4287 20.2262 20.8061 20.2475C21.7273 20.2997 22.2623 19.4815 22.2623 18.1583C22.2623 16.8342 21.7308 16.0565 20.8371 16.0565C20.8371 16.0565 20.6661 16.068 20.5821 16.0814C20.2577 16.1336 20.1612 16.2214 20.1612 16.6208V19.7711C20.1612 20.2007 20.4288 20.2263 20.8061 20.2475C21.7273 20.2998 22.2623 19.4816 22.2623 18.1583C22.2623 16.8342 21.7309 16.0566 20.8371 16.0566L20.8371 16.0565ZM11.1677 16.1027C10.3415 16.1027 9.83128 16.8909 9.83128 18.1974C9.83128 19.4746 10.3333 20.2477 11.1828 20.2477C12.0092 20.2477 12.5274 19.4444 12.5274 18.1833C12.5274 16.9061 12.0012 16.1027 11.1677 16.1027ZM16.0987 16.1027C15.2723 16.1027 14.761 16.8909 14.761 18.1974C14.761 19.4746 15.2643 20.2477 16.1135 20.2477C16.9392 20.2477 17.4573 19.4444 17.4573 18.1833C17.4573 16.9061 16.932 16.1027 16.0987 16.1027ZM20.8371 16.0566C20.8371 16.0566 20.6661 16.0681 20.5821 16.0814C20.2578 16.1336 20.1613 16.2214 20.1613 16.6208V19.7712C20.1613 20.2008 20.4288 20.2264 20.8062 20.2476C21.7273 20.2998 22.2624 19.4816 22.2624 18.1584C22.2624 16.8343 21.7309 16.0566 20.8372 16.0566C20.8372 16.0566 20.6661 16.0681 20.5822 16.0815C20.2578 16.1337 20.1613 16.2215 20.1613 16.6209V19.7712C20.1613 20.2008 20.4288 20.2264 20.8062 20.2476C21.7273 20.2999 22.2624 19.4817 22.2624 18.1584C22.2624 16.8343 21.7309 16.0567 20.8372 16.0567L20.8371 16.0566ZM16.0987 16.1028C15.2723 16.1028 14.761 16.891 14.761 18.1975C14.761 19.4747 15.2644 20.2478 16.1136 20.2478C16.9392 20.2478 17.4574 19.4445 17.4574 18.1834C17.4574 16.9062 16.932 16.1028 16.0987 16.1028ZM11.1677 16.1028C10.3415 16.1028 9.83132 16.891 9.83132 18.1975C9.83132 19.4747 10.3334 20.2478 11.1828 20.2478C12.0092 20.2478 12.5274 19.4445 12.5274 18.1834C12.5274 16.9062 12.0013 16.1028 11.1677 16.1028ZM11.8428 23.5065C11.8302 23.4835 11.6452 23.1008 11.6231 23.0529C11.6027 23.0104 11.5515 23.0078 11.5328 23.0547C11.5115 23.107 11.329 23.4738 11.3167 23.5002C11.2962 23.5437 11.3193 23.5721 11.361 23.5721H11.7975C11.8295 23.5721 11.8612 23.5437 11.8428 23.5066L11.8428 23.5065ZM11.1677 16.1028C10.3415 16.1028 9.83131 16.8911 9.83131 18.1976C9.83131 19.4748 10.3333 20.2479 11.1828 20.2479C12.0092 20.2479 12.5274 19.4445 12.5274 18.1834C12.5274 16.9062 12.0013 16.1028 11.1677 16.1028ZM16.0987 16.1028C15.2723 16.1028 14.761 16.8911 14.761 18.1976C14.761 19.4748 15.2644 20.2479 16.1136 20.2479C16.9392 20.2479 17.4574 19.4445 17.4574 18.1834C17.4574 16.9062 16.932 16.1028 16.0987 16.1028ZM20.8372 16.0567C20.8372 16.0567 20.6661 16.0682 20.5822 16.0816C20.2578 16.1338 20.1613 16.2216 20.1613 16.621V19.7713C20.1613 20.2009 20.4288 20.2265 20.8062 20.2477C21.7273 20.3 22.2624 19.4818 22.2624 18.1585C22.2624 16.8344 21.7309 16.0568 20.8372 16.0568C20.8372 16.0568 20.6662 16.0683 20.5822 16.0816C20.2578 16.1338 20.1613 16.2216 20.1613 16.621V19.7714C20.1613 20.201 20.4288 20.2266 20.8062 20.2478C21.7274 20.3 22.2624 19.4818 22.2624 18.1586C22.2624 16.8345 21.7309 16.0568 20.8372 16.0568L20.8372 16.0567ZM16.0987 16.1029C15.2723 16.1029 14.7611 16.8912 14.7611 18.1977C14.7611 19.4749 15.2644 20.248 16.1136 20.248C16.9392 20.248 17.4574 19.4446 17.4574 18.1835C17.4574 16.9063 16.9321 16.1029 16.0987 16.1029ZM11.1677 16.1029C10.3416 16.1029 9.83135 16.8912 9.83135 18.1977C9.83135 19.4749 10.3334 20.248 11.1829 20.248C12.0093 20.248 12.5274 19.4446 12.5274 18.1835C12.5274 16.9063 12.0013 16.1029 11.1677 16.1029ZM11.8428 23.5067C11.8303 23.4836 11.6452 23.1009 11.6232 23.053C11.6027 23.0105 11.5515 23.008 11.5328 23.0549C11.5116 23.1071 11.329 23.474 11.3167 23.5003C11.2962 23.5439 11.3193 23.5723 11.361 23.5723H11.7975C11.8295 23.5723 11.8613 23.5439 11.8428 23.5067C11.8303 23.4837 11.6452 23.101 11.6232 23.0531C11.6027 23.0106 11.5515 23.008 11.5328 23.0549C11.5115 23.1072 11.329 23.474 11.3167 23.5004C11.2962 23.5439 11.3193 23.5723 11.361 23.5723H11.7975C11.8295 23.5723 11.8612 23.5439 11.8428 23.5068L11.8428 23.5067ZM11.1677 16.1028C10.3416 16.1028 9.83133 16.8911 9.83133 18.1976C9.83133 19.4748 10.3334 20.2479 11.1828 20.2479C12.0092 20.2479 12.5274 19.4445 12.5274 18.1834C12.5274 16.9062 12.0013 16.1028 11.1677 16.1028ZM14.6851 22.7263H14.1288C14.0712 22.7263 14.011 22.7465 14.011 22.8182V23.2239C14.011 23.2877 14.0712 23.3248 14.1288 23.3248H14.6851C14.872 23.3248 15.0243 23.2265 15.0243 23.0255C15.0243 22.8246 14.872 22.7263 14.6851 22.7263V22.7263ZM16.0988 16.1028C15.2724 16.1028 14.7612 16.8911 14.7612 18.1976C14.7612 19.4748 15.2645 20.2479 16.1137 20.2479C16.9393 20.2479 17.4575 19.4446 17.4575 18.1835C17.4575 16.9062 16.9321 16.1028 16.0988 16.1028ZM20.8373 16.0567C20.8373 16.0567 20.6663 16.0682 20.5823 16.0816C20.2579 16.1338 20.1614 16.2216 20.1614 16.621V19.7713C20.1614 20.2009 20.4289 20.2265 20.8063 20.2478C21.7275 20.3 22.2625 19.4818 22.2625 18.1585C22.2625 16.8344 21.731 16.0568 20.8373 16.0568C20.8373 16.0568 20.6663 16.0683 20.5823 16.0816C20.2579 16.1338 20.1614 16.2217 20.1614 16.621V19.7714C20.1614 20.201 20.429 20.2266 20.8063 20.2478C21.7275 20.3 22.2625 19.4818 22.2625 18.1586C22.2625 16.8345 21.7311 16.0568 20.8373 16.0568L20.8373 16.0567ZM16.0989 16.1029C15.2724 16.1029 14.7612 16.8912 14.7612 18.1977C14.7612 19.4749 15.2645 20.248 16.1137 20.248C16.9394 20.248 17.4575 19.4447 17.4575 18.1836C17.4575 16.9063 16.9322 16.1029 16.0989 16.1029ZM11.1679 16.1029C10.3417 16.1029 9.83148 16.8912 9.83148 18.1977C9.83148 19.4749 10.3335 20.248 11.183 20.248C12.0094 20.248 12.5275 19.4447 12.5275 18.1836C12.5275 16.9063 12.0014 16.1029 11.1679 16.1029ZM14.6853 22.7264H14.129C14.0714 22.7264 14.0112 22.7466 14.0112 22.8183V23.2241C14.0112 23.2878 14.0714 23.3249 14.129 23.3249H14.6853C14.8721 23.3249 15.0245 23.2266 15.0245 23.0257C15.0245 22.8247 14.8721 22.7264 14.6853 22.7264V22.7264ZM11.8429 23.5067C11.8304 23.4837 11.6453 23.1009 11.6233 23.0531C11.6028 23.0106 11.5516 23.008 11.5329 23.0549C11.5116 23.1071 11.3291 23.474 11.3168 23.5004C11.2963 23.5439 11.3194 23.5723 11.3611 23.5723H11.7976C11.8296 23.5723 11.8613 23.5439 11.8429 23.5068C11.8303 23.4837 11.6453 23.101 11.6232 23.0531C11.6028 23.0106 11.5516 23.008 11.5329 23.055C11.5116 23.1072 11.3291 23.474 11.3168 23.5004C11.2963 23.5439 11.3194 23.5723 11.3611 23.5723H11.7976C11.8296 23.5723 11.8613 23.5439 11.8429 23.5068L11.8429 23.5067ZM11.1678 16.1028C10.3416 16.1028 9.83142 16.8911 9.83142 18.1976C9.83142 19.4748 10.3334 20.2479 11.1829 20.2479C12.0093 20.2479 12.5275 19.4446 12.5275 18.1835C12.5275 16.9062 12.0014 16.1028 11.1678 16.1028ZM14.6852 22.7263H14.1289C14.0713 22.7263 14.0111 22.7465 14.0111 22.8182V23.224C14.0111 23.2877 14.0713 23.3248 14.1289 23.3248H14.6852C14.8721 23.3248 15.0244 23.2265 15.0244 23.0256C15.0244 22.8246 14.8721 22.7263 14.6852 22.7263V22.7263ZM16.0989 16.1028C15.2725 16.1028 14.7612 16.8911 14.7612 18.1976C14.7612 19.4748 15.2646 20.2479 16.1138 20.2479C16.9394 20.2479 17.4576 19.4446 17.4576 18.1835C17.4576 16.9063 16.9322 16.1028 16.0989 16.1028ZM20.8374 16.0568C20.8374 16.0568 20.6664 16.0683 20.5824 16.0816C20.258 16.1338 20.1615 16.2216 20.1615 16.621V19.7714C20.1615 20.2009 20.429 20.2265 20.8064 20.2478C21.7275 20.3 22.2626 19.4818 22.2626 18.1585C22.2626 16.8345 21.7311 16.0568 20.8374 16.0568C20.8374 16.0568 20.6664 16.0683 20.5824 16.0816C20.258 16.1339 20.1615 16.2217 20.1615 16.6211V19.7714C20.1615 20.201 20.429 20.2266 20.8064 20.2478C21.7276 20.3001 22.2626 19.4818 22.2626 18.1586C22.2626 16.8345 21.7311 16.0569 20.8374 16.0569L20.8374 16.0568ZM16.0989 16.1029C15.2725 16.1029 14.7613 16.8912 14.7613 18.1977C14.7613 19.4749 15.2646 20.248 16.1138 20.248C16.9394 20.248 17.4576 19.4447 17.4576 18.1836C17.4576 16.9064 16.9323 16.1029 16.0989 16.1029ZM11.1679 16.1029C10.3418 16.1029 9.83156 16.8912 9.83156 18.1977C9.83156 19.4749 10.3336 20.248 11.1831 20.248C12.0095 20.248 12.5276 19.4447 12.5276 18.1836C12.5276 16.9064 12.0015 16.1029 11.1679 16.1029ZM14.6853 22.7264H14.129C14.0714 22.7264 14.0113 22.7466 14.0113 22.8183V23.2241C14.0113 23.2878 14.0714 23.3249 14.129 23.3249H14.6853C14.8722 23.3249 15.0245 23.2266 15.0245 23.0257C15.0245 22.8247 14.8722 22.7264 14.6853 22.7264V22.7264ZM11.843 23.5067C11.8304 23.4837 11.6454 23.101 11.6233 23.0531C11.6029 23.0106 11.5517 23.008 11.533 23.0549C11.5117 23.1071 11.3292 23.474 11.3169 23.5004C11.2964 23.5439 11.3194 23.5723 11.3612 23.5723H11.7977C11.8297 23.5723 11.8614 23.5439 11.843 23.5068L11.843 23.5067ZM27.1535 20.636C27.1535 20.5838 27.1013 20.5712 27.0498 20.5712H26.9792V20.6997H27.0322C27.0969 20.6997 27.1535 20.6962 27.1535 20.636ZM27.1535 20.9565L27.0225 20.7714H26.9782V20.9565H26.9001V20.4996H27.0719C27.1791 20.4996 27.2278 20.5421 27.2278 20.636C27.2278 20.7271 27.1773 20.7625 27.111 20.7696L27.2436 20.9565L27.1535 20.9565ZM27.0481 20.425C26.8717 20.425 26.7406 20.5571 26.7406 20.7394C26.7406 20.922 26.8717 21.053 27.0481 21.053C27.2252 21.053 27.3553 20.9219 27.3553 20.7394C27.3553 20.5571 27.2252 20.425 27.0481 20.425ZM11.6222 23.0529C11.6017 23.0104 11.5505 23.0079 11.5318 23.0548C11.5106 23.107 11.328 23.4738 11.3158 23.5002C11.2953 23.5437 11.3183 23.5722 11.36 23.5722H11.7965C11.8285 23.5722 11.8603 23.5437 11.8418 23.5066C11.8293 23.4836 11.6442 23.1009 11.6222 23.053L11.6222 23.0529ZM11.1667 16.1028C10.3406 16.1028 9.83035 16.8911 9.83035 18.1976C9.83035 19.4748 10.3324 20.2479 11.1819 20.2479C12.0083 20.2479 12.5264 19.4446 12.5264 18.1835C12.5264 16.9063 12.0003 16.1028 11.1667 16.1028ZM14.6841 22.7263H14.1278C14.0702 22.7263 14.0101 22.7465 14.0101 22.8182V23.224C14.0101 23.2877 14.0702 23.3248 14.1278 23.3248H14.6841C14.871 23.3248 15.0233 23.2265 15.0233 23.0256C15.0233 22.8246 14.871 22.7263 14.6841 22.7263V22.7263ZM16.0978 16.1028C15.2714 16.1028 14.7602 16.8911 14.7602 18.1976C14.7602 19.4748 15.2635 20.2479 16.1127 20.2479C16.9383 20.2479 17.4565 19.4446 17.4565 18.1835C17.4565 16.9063 16.9312 16.1028 16.0978 16.1028ZM22.2616 18.1587C22.2616 16.8346 21.7301 16.057 20.8364 16.057C20.8364 16.057 20.6654 16.0685 20.5814 16.0818C20.257 16.134 20.1605 16.2218 20.1605 16.6212V19.7716C20.1605 20.2011 20.428 20.2267 20.8054 20.248C21.7265 20.3002 22.2616 19.482 22.2616 18.1587L22.2616 18.1587ZM27.4474 14.5132C27.4174 14.6512 27.3314 14.7019 27.1799 14.7019L26.9878 14.7027H24.039C23.7858 14.7027 23.6998 14.6522 23.6998 14.4848C23.6998 14.3742 23.7858 14.2828 23.8867 14.2828H24.039C24.0912 14.2828 24.1437 14.2367 24.1596 14.1863C24.1826 14.1251 24.1888 14.088 24.1888 13.8852V10.5231C24.1888 10.3283 24.1826 10.2891 24.1596 10.2282C24.1437 10.1616 24.0833 10.1166 24.039 10.1166H23.8867C23.7858 10.1166 23.6936 10.0183 23.6936 9.90665C23.6936 9.73999 23.7858 9.68597 24.039 9.68597H27.0407C27.1922 9.68597 27.2772 9.73666 27.3082 9.87465L27.4145 10.3974C27.4552 10.5905 27.3871 10.6941 27.2498 10.6941C27.1771 10.6941 27.1072 10.6754 27.0566 10.5771C27.0478 10.5621 27.0169 10.5073 26.9823 10.4151C26.9088 10.2218 26.7573 10.198 26.4073 10.198H25.6989C25.2888 10.198 25.2427 10.252 25.2427 10.6514V11.5444C25.2427 11.7126 25.2665 11.786 25.3118 11.8162C25.3464 11.84 25.4022 11.8454 25.6175 11.8454H25.9672C26.2826 11.8454 26.3277 11.8224 26.3507 11.6719L26.3561 11.6258C26.3791 11.4983 26.4465 11.4381 26.5599 11.4381C26.7173 11.4381 26.7698 11.5275 26.7698 11.7914V12.423C26.7698 12.6859 26.7173 12.7763 26.5599 12.7763C26.4465 12.7763 26.3791 12.7082 26.3561 12.5807L26.3482 12.531C26.3259 12.3805 26.2808 12.3582 25.9647 12.3582H25.6175C25.4022 12.3582 25.3464 12.3636 25.3118 12.3874C25.2665 12.4176 25.2427 12.4903 25.2427 12.6596V13.6124C25.2427 14.0103 25.2665 14.0942 25.3853 14.1403C25.4818 14.1767 25.5863 14.1925 25.8326 14.1925L26.5801 14.1907C26.8484 14.1907 27.0381 14.1067 27.1311 13.9119C27.1736 13.8233 27.1869 13.7895 27.1958 13.7744C27.2463 13.6761 27.3259 13.6329 27.3994 13.6329C27.5358 13.6329 27.6032 13.7365 27.5632 13.9296L27.4472 14.5133L27.4474 14.5132ZM27.048 21.1313C26.8309 21.1313 26.6573 20.9559 26.6573 20.7396C26.6573 20.5217 26.8309 20.3474 27.048 20.3474C27.2641 20.3474 27.4387 20.5218 27.4387 20.7396C27.4387 20.9559 27.2641 21.1313 27.048 21.1313ZM25.2969 20.7921C25.0196 20.7921 24.7221 20.7529 24.5076 20.6856C24.3995 20.6564 24.3873 20.6485 24.3448 20.6485C24.281 20.6485 24.249 20.6636 24.1845 20.723C24.1136 20.777 24.0765 20.7921 24.0099 20.7921C23.8842 20.7921 23.8222 20.723 23.7779 20.543L23.5882 19.7911C23.5742 19.7461 23.5688 19.6777 23.5688 19.6406C23.5688 19.507 23.6725 19.4059 23.8061 19.4059C23.8842 19.4059 23.9487 19.4458 23.9948 19.507L24.1028 19.6557C24.3632 20.0233 24.7841 20.2509 25.2137 20.2509C25.7016 20.2509 26.0347 19.978 26.0347 19.5804C26.0347 19.3766 25.9505 19.1969 25.7902 19.0162C25.6274 18.8365 25.4254 18.6708 24.993 18.3705C24.2811 17.8718 24.2145 17.8265 23.9807 17.5575C23.7913 17.3378 23.6945 17.0685 23.6945 16.7682C23.6945 16.0393 24.2491 15.5575 25.0772 15.5575C25.2897 15.5575 25.5068 15.5777 25.7257 15.6248C25.7485 15.6328 25.8097 15.6469 25.9159 15.6709C25.9505 15.6778 25.9897 15.6858 26.0188 15.6858C26.0685 15.6858 26.1259 15.6612 26.1914 15.6177C26.2659 15.5637 26.2897 15.5575 26.3501 15.5575C26.4607 15.5575 26.5316 15.6328 26.5619 15.7674L26.7416 16.5805C26.7549 16.6159 26.7549 16.6612 26.7549 16.685C26.7549 16.7833 26.6671 16.8647 26.5388 16.8647C26.4582 16.8647 26.4085 16.8347 26.3394 16.7382C26.1702 16.4822 26.1384 16.4528 25.9815 16.3317C25.7797 16.174 25.5209 16.0898 25.2749 16.0898C24.9275 16.0898 24.7027 16.2874 24.7027 16.5956C24.7027 16.7062 24.7221 16.8204 24.7841 16.9036C24.8601 17.017 24.9807 17.1358 25.1294 17.2492C25.2224 17.3155 25.3412 17.4016 25.5014 17.5132C26.0949 17.9267 26.2897 18.0774 26.5316 18.3245C26.7858 18.5874 26.9382 18.963 26.9382 19.3493C26.9382 20.2182 26.2897 20.7922 25.2969 20.7922L25.2969 20.7921ZM23.3988 22.7299H22.9613C22.9011 22.7299 22.8576 22.7496 22.8576 22.822L22.8601 24.1302C22.8601 24.2224 22.7946 24.2332 22.6919 24.2332C22.5929 24.2332 22.5263 24.2232 22.5263 24.1338V22.8238C22.5263 22.7601 22.5033 22.7299 22.4236 22.7299H21.9807C21.9091 22.7299 21.8886 22.661 21.8886 22.6034C21.8886 22.5397 21.8832 22.4165 21.9782 22.4165H23.3916C23.4554 22.4165 23.4979 22.4519 23.4979 22.5689C23.4979 22.6725 23.4705 22.7299 23.3988 22.7299V22.7299ZM19.7636 23.1346H20.388C20.4633 23.1346 20.483 23.2004 20.483 23.2959C20.483 23.3791 20.4651 23.4518 20.3952 23.4518H19.7726C19.7229 23.4518 19.6779 23.4864 19.6779 23.544V23.8087C19.6779 23.8724 19.7124 23.9026 19.7636 23.9026H20.8345C20.9054 23.9026 20.9303 23.9495 20.9303 24.0665C20.9303 24.1507 20.9108 24.2198 20.8356 24.2198H19.4564C19.3765 24.2198 19.3438 24.1817 19.3438 24.087V22.5333C19.3438 22.4626 19.3722 22.4129 19.4546 22.4129H20.8381C20.9205 22.4129 20.9354 22.4677 20.9354 22.566C20.9354 22.6574 20.9231 22.7299 20.8338 22.7299H19.7521C19.7088 22.7299 19.6779 22.7637 19.6779 22.8105V23.055C19.6779 23.1065 19.715 23.1346 19.7636 23.1346L19.7636 23.1346ZM18.6275 20.4466C18.6275 20.3331 18.7027 20.2376 18.8061 20.2376H18.9595C19.011 20.2376 19.0622 20.1977 19.087 20.1393C19.1021 20.0853 19.11 20.04 19.11 19.8434V16.4964C19.11 16.3006 19.1021 16.2548 19.087 16.2005C19.0622 16.1431 19.011 16.1022 18.9595 16.1022H18.8061C18.7027 16.1022 18.6275 16.0067 18.6275 15.8933C18.6275 15.7294 18.7406 15.7064 18.9595 15.6736C19.1791 15.6416 19.792 15.5577 20.7301 15.5577C21.6671 15.5577 22.249 15.7612 22.7096 16.2271C23.1517 16.671 23.3916 17.3546 23.3916 18.1669C23.3916 19.0765 23.0851 19.8284 22.5273 20.2723C22.0941 20.623 21.5503 20.7825 20.7301 20.7825C19.792 20.7825 19.1791 20.6983 18.9595 20.6663C18.7406 20.6346 18.6275 20.6115 18.6275 20.4467V20.4466ZM16.0897 20.7895C14.8772 20.7895 14.0092 20.1049 13.7303 19.0012C13.7267 18.9933 13.7241 18.9854 13.7223 18.9764C13.6975 18.8525 13.5859 18.8435 13.5592 18.9756C13.5592 18.9799 13.5557 18.9843 13.5539 18.9889C13.2722 20.1084 12.3998 20.7894 11.1588 20.7894C9.67165 20.7894 8.70356 19.7603 8.70356 18.1906C8.70356 16.5842 9.66463 15.5619 11.1738 15.5619C12.4129 15.5619 13.2944 16.2529 13.5643 17.3793C13.5927 17.5086 13.7025 17.4989 13.7264 17.376C13.7264 17.3742 13.7264 17.3724 13.7289 17.3714C14.0044 16.2447 14.8715 15.5619 16.1051 15.5619C17.6074 15.5619 18.5833 16.576 18.5833 18.1536C18.5833 19.7603 17.6146 20.7894 16.09 20.7894L16.0897 20.7895ZM18.1716 24.2341C18.0193 24.2341 17.9776 24.2103 17.9387 24.1632L17.3603 23.5459C17.2815 23.4776 17.2026 23.4671 17.0946 23.4671C17.0342 23.4671 16.9873 23.529 16.9873 23.6007V24.1268C16.9873 24.2269 16.9016 24.2333 16.8076 24.2333C16.7083 24.2333 16.656 24.2057 16.656 24.126V22.5201C16.656 22.4254 16.7154 22.4095 16.8324 22.4095C16.9246 22.4095 16.9873 22.4308 16.9873 22.5175V23.0022C16.9873 23.08 17.0229 23.1181 17.0716 23.1181C17.2124 23.1181 17.2426 23.0879 17.2948 23.0429C17.3532 22.9932 17.9466 22.4484 17.9466 22.4484C18.0211 22.3847 18.0964 22.3857 18.168 22.4546C18.2274 22.5114 18.2538 22.5751 18.1875 22.6407C18.1414 22.6857 17.6207 23.157 17.6207 23.157C17.5559 23.2128 17.5721 23.2651 17.6163 23.3137C17.6163 23.3137 18.2415 24.0029 18.307 24.0738C18.4054 24.1808 18.315 24.2341 18.1716 24.2341L18.1716 24.2341ZM14.9934 23.6511C15.0077 23.6726 15.2609 24.04 15.298 24.0951C15.3538 24.1783 15.3034 24.2333 15.1309 24.2333C15.0343 24.2333 14.9696 24.2164 14.9278 24.1545L14.6473 23.7185C14.6153 23.6698 14.5692 23.6388 14.5062 23.6388H14.105C14.0564 23.6388 14.0103 23.6788 14.0103 23.7274L14.0128 24.1624C14.0128 24.2482 13.8464 24.2341 13.7917 24.2341C13.7197 24.2341 13.68 24.2136 13.68 24.1332L13.6826 22.4794C13.6826 22.4361 13.7197 22.4103 13.7597 22.4103H14.711C15.0784 22.4103 15.3549 22.6468 15.3549 23.026C15.3549 23.3537 15.1183 23.4609 15.0236 23.5413C14.9767 23.5823 14.9652 23.6104 14.9934 23.6511V23.6511ZM12.3196 24.234C12.2646 24.234 12.1813 24.2251 12.1555 24.1649L12.0387 23.9233C12.0236 23.8912 11.9927 23.8656 11.9545 23.8656H11.2095C11.1627 23.8656 11.1202 23.901 11.0936 23.9675L10.9901 24.1649C10.9671 24.2225 10.8544 24.2315 10.8022 24.2315C10.7561 24.2315 10.6048 24.2261 10.6524 24.125L11.4435 22.484C11.4655 22.4361 11.5073 22.3997 11.5818 22.3997C11.656 22.3997 11.6967 22.4246 11.7215 22.4776C11.7215 22.4776 12.4771 24.0879 12.4983 24.135C12.5375 24.2189 12.3744 24.234 12.3196 24.234ZM9.45595 24.234C9.40986 24.234 9.3241 24.2084 9.3241 24.148L9.19661 23.1836C9.18841 23.1437 9.17356 23.126 9.14156 23.126C9.11596 23.126 9.10265 23.1383 9.08498 23.1606L8.65181 23.7151C8.62954 23.7451 8.60035 23.7637 8.56579 23.7637C8.51638 23.7637 8.49488 23.7512 8.46672 23.7097L8.06812 23.1721C8.05046 23.1498 8.03099 23.1437 8.01051 23.1437C7.97877 23.1437 7.96264 23.1721 7.95829 23.2092L7.83335 24.1419C7.82182 24.2189 7.72711 24.234 7.64902 24.234C7.59501 24.234 7.5031 24.2084 7.5031 24.1393L7.6864 22.5672C7.70586 22.4732 7.72608 22.4192 7.86177 22.4192C7.89633 22.4192 7.95214 22.4289 7.99541 22.4963L8.49053 23.1924C8.51716 23.2305 8.54737 23.2625 8.58014 23.2615C8.61291 23.2607 8.64645 23.2269 8.67486 23.1898L9.19737 22.4794C9.22937 22.4307 9.27802 22.4102 9.33562 22.4102C9.39834 22.4102 9.44443 22.4246 9.47105 22.5301L9.65436 24.1419C9.66333 24.2341 9.51892 24.2341 9.45595 24.2341V24.234ZM6.341 19.8598C6.341 20.0625 6.341 20.0989 6.35867 20.1519C6.39042 20.212 6.45877 20.2512 6.51893 20.2512H6.68893C6.80669 20.2512 6.88836 20.3477 6.88836 20.4611C6.88836 20.6268 6.7962 20.679 6.51892 20.679H5.13544C4.87864 20.679 4.78828 20.6268 4.78828 20.4611C4.78828 20.3477 4.87865 20.2512 4.98208 20.2512H5.13544C5.18664 20.2512 5.23733 20.212 5.26216 20.1519C5.27803 20.0989 5.28597 20.0625 5.28597 19.8598V16.4973C5.28597 16.3024 5.27983 16.2635 5.25576 16.2034C5.23989 16.1368 5.17973 16.0907 5.13544 16.0907H4.98311C4.88198 16.0907 4.79007 15.9934 4.79007 15.881C4.79007 15.7154 4.88198 15.6614 5.13543 15.6614H8.39497C8.54627 15.6614 8.6323 15.7118 8.66225 15.8498L8.76875 16.3726C8.80945 16.5646 8.7411 16.6693 8.60464 16.6693C8.53117 16.6693 8.46128 16.6498 8.41084 16.5515C8.40187 16.5372 8.37193 16.4814 8.33634 16.3903C8.26287 16.1972 8.1113 16.1724 7.76161 16.1724H6.79618C6.38529 16.1724 6.3392 16.2272 6.3392 16.6258V17.5195C6.3392 17.6877 6.36301 17.7604 6.4091 17.7914C6.44366 17.8155 6.49844 17.8206 6.71477 17.8206H7.33637C7.65178 17.8206 7.69684 17.7975 7.71988 17.647L7.72526 17.6002C7.7483 17.4727 7.81564 17.4123 7.92802 17.4123C8.08675 17.4123 8.13898 17.5026 8.13898 17.7658V18.3981C8.13898 18.6613 8.08675 18.7514 7.92802 18.7514C7.81564 18.7514 7.7483 18.6833 7.72526 18.5558L7.71731 18.5062C7.69503 18.3556 7.64998 18.3326 7.3338 18.3326H6.71476C6.49844 18.3326 6.44364 18.338 6.40909 18.3618C6.363 18.3928 6.33919 18.4655 6.33919 18.6347L6.34175 19.8597L6.341 19.8598ZM3.86608 10.4763C3.75369 10.1673 3.7181 10.1302 3.47718 10.078C3.31692 10.0486 3.26725 9.99633 3.26725 9.87499C3.26725 9.74749 3.34713 9.68016 3.51968 9.68016H5.07238C5.2434 9.68016 5.31943 9.74749 5.31943 9.88292C5.31943 10.0096 5.24339 10.0611 5.04857 10.078C4.88293 10.0928 4.81559 10.1461 4.81559 10.2657C4.81559 10.3171 4.82174 10.3711 4.84299 10.4331L4.90238 10.6049C4.90238 10.6049 5.73237 12.9556 5.86345 13.3337C5.88547 13.3941 5.95382 13.3913 5.97686 13.324C6.12279 12.9052 6.51961 11.7529 6.53395 11.706C6.57465 11.5731 6.59232 11.4331 6.54443 11.2798C6.52778 11.2257 6.27357 10.4764 6.27357 10.4764C6.24516 10.395 6.22826 10.3348 6.21136 10.3039C6.16707 10.194 6.10614 10.1541 5.93257 10.108C5.77743 10.0699 5.71804 10.0187 5.71804 9.90705C5.71804 9.76266 5.80482 9.68022 5.98019 9.68022H7.45585C7.62686 9.68022 7.71006 9.74755 7.71006 9.88298C7.71006 10.0025 7.63402 10.0612 7.46658 10.085C7.26638 10.108 7.21237 10.1541 7.21237 10.2888C7.21237 10.3569 7.22746 10.4242 7.28943 10.6049C7.28943 10.6049 8.01753 12.9088 8.13273 13.2711C8.15475 13.3392 8.21952 13.3241 8.23795 13.2639C8.35137 12.8955 9.07153 10.4765 9.07153 10.4765C9.09278 10.4013 9.10071 10.3411 9.10071 10.296C9.10071 10.1834 9.02007 10.1232 8.83753 10.1002C8.67189 10.0851 8.59586 10.0098 8.59586 9.89026C8.59586 9.73973 8.68188 9.68034 8.88181 9.68034H11.4878C11.7359 9.68034 11.8181 9.73077 11.8181 9.89563C11.8181 10.0188 11.7359 10.1081 11.6322 10.1081H11.4878C11.4259 10.1081 11.3672 10.1542 11.3442 10.2039C11.3301 10.2597 11.324 10.3119 11.324 10.4996V11.4696C11.324 11.8167 11.3539 11.8459 11.6322 11.8459H12.6534C12.8029 11.8459 12.8803 11.8221 12.9181 11.7786C12.9527 11.7325 12.9527 11.7033 12.9527 11.4243V10.4996C12.9527 10.304 12.9527 10.2597 12.9343 10.2039C12.9077 10.1463 12.8483 10.1081 12.7968 10.1081H12.6534C12.54 10.1081 12.4489 10.0188 12.4489 9.89562C12.4489 9.73075 12.54 9.68033 12.7968 9.68033H14.1637C14.4194 9.68033 14.5108 9.73076 14.5108 9.89562C14.5108 10.0188 14.4194 10.1081 14.3168 10.1081H14.1637C14.1122 10.1081 14.052 10.1542 14.0359 10.2039C14.0147 10.2597 14.0095 10.3119 14.0095 10.4996V13.876C14.0095 14.0716 14.0147 14.1159 14.0359 14.1771C14.0521 14.2293 14.1122 14.2667 14.1637 14.2667H14.3168C14.4284 14.2667 14.5108 14.365 14.5108 14.4764C14.5108 14.643 14.4284 14.6945 14.1637 14.6945H12.7968C12.54 14.6945 12.4586 14.643 12.4586 14.4764C12.4586 14.365 12.5498 14.2667 12.6535 14.2667H12.7968C12.8483 14.2667 12.9077 14.2293 12.9343 14.1771C12.9527 14.1159 12.9527 14.0716 12.9527 13.876V12.7785C12.9527 12.4994 12.9527 12.4702 12.9182 12.4252C12.8803 12.3809 12.803 12.3568 12.6535 12.3568H11.6322C11.3539 12.3568 11.324 12.3863 11.324 12.7334V13.876C11.324 14.0716 11.3301 14.1159 11.3442 14.1771C11.3672 14.2293 11.4259 14.2667 11.4878 14.2667H11.6322C11.7359 14.2667 11.813 14.365 11.813 14.4853C11.813 14.643 11.7269 14.6945 11.4878 14.6945H10.1177C9.86523 14.6945 9.77382 14.643 9.77382 14.4763C9.77382 14.365 9.86522 14.2667 9.96865 14.2667H10.1176C10.1706 14.2667 10.2326 14.2293 10.2469 14.1771C10.27 14.1159 10.27 14.077 10.27 13.876V10.4995C10.27 10.116 10.09 10.0904 9.95815 10.1081C9.82528 10.1268 9.74744 10.211 9.66578 10.4765L8.4674 14.3349C8.35936 14.7025 8.25747 14.8077 8.03269 14.8077C7.80843 14.8077 7.69425 14.7105 7.60386 14.4322C7.60386 14.4322 6.98483 12.5812 6.96434 12.52C6.9431 12.4589 6.87935 12.4571 6.86168 12.5157C6.84479 12.5748 6.17864 14.4322 6.17864 14.4322C6.10619 14.6121 6.0875 14.6644 6.02632 14.7256C5.96718 14.7698 5.86861 14.8077 5.7703 14.8077C5.55243 14.8077 5.44544 14.7174 5.34174 14.4322L3.86609 10.4765L3.86608 10.4763ZM13.8456 8.20013C14.097 7.26645 15.0049 6.32409 16.0084 6.61209C16.8596 6.85479 16.7995 7.55805 17.4185 7.77847C17.6408 7.85732 17.6231 8.08056 17.4293 8.11767C17.1024 8.17962 16.6612 7.9423 16.3318 7.64379C15.9465 7.29408 15.3202 7.30917 15.0146 7.5419C14.8809 7.64379 14.949 7.74133 15.0714 7.71393C15.3548 7.65275 15.8348 7.63687 16.2043 8.05135C16.5673 8.45867 17.2439 8.8227 17.8427 8.43205C18.0076 8.32504 18.1146 8.10358 18.2821 8.15146C18.461 8.2019 18.4636 8.46226 18.2291 8.76511C17.6753 9.4791 17.1077 9.39411 16.4992 9.9901C15.8914 10.5861 15.7685 11.2638 15.7685 12.1246C15.7685 13.4594 16.2936 14.2679 17.1812 14.2679C18.0447 14.2679 18.5867 13.4284 18.5867 12.1088C18.5867 11.0211 18.3292 10.3178 17.6833 10.0697C17.3707 9.95375 17.4239 9.64834 17.8269 9.60047C18.1589 9.56156 18.4841 9.67472 18.8409 9.93789C19.4566 10.3913 19.7638 11.1122 19.7638 12.0779C19.7638 13.7581 18.7516 14.8334 17.1583 14.8334C15.603 14.8334 14.5904 13.7582 14.5904 12.1168C14.5904 11.0611 14.9872 10.248 15.6736 9.7892C15.9605 9.57467 16.4459 9.32761 16.9216 9.16659C17.0199 9.1328 17.0192 8.9582 16.8446 8.99199C16.6364 9.03372 16.2537 9.06367 15.9375 8.93618C15.2281 8.65637 15.0218 8.15587 14.1866 8.51452C13.935 8.62256 13.7729 8.46947 13.8456 8.20015L13.8456 8.20013ZM20.1927 9.68627H21.5815C21.8524 9.68627 21.9445 9.74028 21.9445 9.90695C21.9445 10.0265 21.8524 10.1169 21.7454 10.1169H21.5815C21.5124 10.1169 21.4451 10.154 21.4238 10.2152C21.4016 10.2656 21.4016 10.3117 21.4016 10.5075V13.6648C21.4016 13.9954 21.4159 14.0724 21.5045 14.1236C21.5815 14.1769 21.6965 14.1909 21.9986 14.1909H22.422C22.6903 14.1909 22.88 14.107 22.973 13.9122C23.0155 13.8226 23.0288 13.7898 23.0375 13.7747C23.0882 13.6764 23.1678 13.6321 23.2405 13.6321C23.3777 13.6321 23.445 13.7368 23.4051 13.9298L23.2891 14.5135C23.2589 14.6515 23.1732 14.7022 23.0216 14.7022H20.1928C19.9421 14.7022 19.8597 14.6525 19.8597 14.4851C19.8597 14.3745 19.9421 14.2831 20.0474 14.2831H20.1928C20.2425 14.2831 20.3034 14.237 20.3185 14.1866C20.3408 14.1308 20.3477 14.0944 20.3477 13.9068V10.5074C20.3477 10.3044 20.3408 10.2745 20.3185 10.2151C20.3034 10.1539 20.2425 10.1168 20.1928 10.1168H20.0474C19.9342 10.1168 19.8428 10.0264 19.8428 9.90682C19.8428 9.74016 19.9342 9.68614 20.1928 9.68614L20.1927 9.68627ZM15.5002 0C6.93956 0 0 6.93968 0 15.5C0 24.0605 6.93977 31 15.5002 31C24.0619 31 31.0004 24.0603 31.0004 15.5C31.0004 6.93948 24.0616 0 15.5002 0ZM27.1528 20.6364C27.1528 20.5841 27.1006 20.5716 27.0492 20.5716H26.9785V20.7001H27.0315C27.0963 20.7001 27.1528 20.6965 27.1528 20.6364ZM27.1528 20.9569L27.0218 20.7718H26.9775V20.9569H26.8994V20.4999H27.0712C27.1784 20.4999 27.2271 20.5424 27.2271 20.6364C27.2271 20.7275 27.1766 20.7628 27.1103 20.77L27.243 20.9569L27.1528 20.9569ZM27.0474 20.4254C26.871 20.4254 26.7399 20.5575 26.7399 20.7398C26.7399 20.9223 26.871 21.0534 27.0474 21.0534C27.2245 21.0534 27.3546 20.9223 27.3546 20.7398C27.3546 20.5575 27.2245 20.4254 27.0474 20.4254ZM11.8413 23.5069C11.8287 23.4839 11.6436 23.1012 11.6216 23.0533C11.6011 23.0108 11.5499 23.0082 11.5312 23.0551C11.51 23.1074 11.3275 23.4742 11.3152 23.5006C11.2947 23.5441 11.3177 23.5725 11.3595 23.5725H11.796C11.828 23.5725 11.8597 23.5441 11.8413 23.507L11.8413 23.5069ZM14.6836 22.7267H14.1273C14.0697 22.7267 14.0095 22.7469 14.0095 22.8186V23.2243C14.0095 23.2881 14.0697 23.3252 14.1273 23.3252H14.6836C14.8705 23.3252 15.0228 23.2269 15.0228 23.0259C15.0228 22.825 14.8705 22.7267 14.6836 22.7267V22.7267ZM11.1662 16.1032C10.3401 16.1032 9.82983 16.8915 9.82983 18.198C9.82983 19.4752 10.3319 20.2483 11.1813 20.2483C12.0077 20.2483 12.5259 19.445 12.5259 18.1839C12.5259 16.9066 11.9998 16.1032 11.1662 16.1032ZM16.0972 16.1032C15.2708 16.1032 14.7596 16.8915 14.7596 18.198C14.7596 19.4752 15.2629 20.2483 16.1121 20.2483C16.9377 20.2483 17.4559 19.445 17.4559 18.1839C17.4559 16.9066 16.9305 16.1032 16.0972 16.1032ZM20.8357 16.0571C20.8357 16.0571 20.6647 16.0686 20.5807 16.082C20.2563 16.1342 20.1598 16.222 20.1598 16.6214V19.7717C20.1598 20.2013 20.4273 20.2269 20.8047 20.2482C21.7258 20.3004 22.2609 19.4822 22.2609 18.1589C22.2609 16.8348 21.7294 16.0572 20.8357 16.0572L20.8357 16.0571ZM27.1518 20.6365C27.1518 20.5842 27.0996 20.5717 27.0481 20.5717H26.9775V20.7002H27.0305C27.0953 20.7002 27.1518 20.6966 27.1518 20.6365ZM27.1518 20.957L27.0208 20.7719H26.9765V20.957H26.8984V20.5H27.0702C27.1774 20.5 27.2261 20.5425 27.2261 20.6365C27.2261 20.7276 27.1756 20.7629 27.1093 20.7701L27.2419 20.957L27.1518 20.957ZM27.0464 20.4255C26.87 20.4255 26.7389 20.5576 26.7389 20.7399C26.7389 20.9224 26.87 21.0535 27.0464 21.0535C27.2235 21.0535 27.3536 20.9224 27.3536 20.7399C27.3536 20.5576 27.2235 20.4255 27.0464 20.4255ZM20.8347 16.0572C20.8347 16.0572 20.6637 16.0687 20.5797 16.082C20.2553 16.1342 20.1588 16.2221 20.1588 16.6214V19.7718C20.1588 20.2014 20.4263 20.227 20.8037 20.2482C21.7248 20.3004 22.2599 19.4822 22.2599 18.159C22.2599 16.8349 21.7284 16.0572 20.8347 16.0572L20.8347 16.0572ZM16.0962 16.1033C15.2698 16.1033 14.7586 16.8916 14.7586 18.1981C14.7586 19.4753 15.2619 20.2484 16.1111 20.2484C16.9367 20.2484 17.4549 19.4451 17.4549 18.184C17.4549 16.9067 16.9296 16.1033 16.0962 16.1033ZM14.6825 22.7268H14.1262C14.0686 22.7268 14.0085 22.747 14.0085 22.8187V23.2245C14.0085 23.2882 14.0686 23.3253 14.1262 23.3253H14.6825C14.8694 23.3253 15.0217 23.227 15.0217 23.0261C15.0217 22.8251 14.8694 22.7268 14.6825 22.7268V22.7268ZM11.1651 16.1033C10.339 16.1033 9.82874 16.8916 9.82874 18.1981C9.82874 19.4753 10.3308 20.2484 11.1802 20.2484C12.0066 20.2484 12.5248 19.4451 12.5248 18.184C12.5248 16.9067 11.9987 16.1033 11.1651 16.1033ZM11.8402 23.5071C11.8277 23.4841 11.6426 23.1013 11.6206 23.0535C11.6001 23.011 11.5489 23.0084 11.5302 23.0553C11.5089 23.1075 11.3264 23.4744 11.3141 23.5008C11.2936 23.5443 11.3167 23.5727 11.3584 23.5727H11.7949C11.8269 23.5727 11.8586 23.5443 11.8402 23.5072C11.8277 23.4841 11.6426 23.1014 11.6206 23.0535C11.6001 23.011 11.5489 23.0085 11.5302 23.0554C11.5089 23.1076 11.3264 23.4744 11.3141 23.5008C11.2936 23.5443 11.3167 23.5727 11.3584 23.5727H11.7949C11.8269 23.5727 11.8586 23.5443 11.8402 23.5072L11.8402 23.5071ZM14.6825 22.7269H14.1262C14.0686 22.7269 14.0085 22.7471 14.0085 22.8188V23.2246C14.0085 23.2883 14.0686 23.3254 14.1262 23.3254H14.6825C14.8694 23.3254 15.0218 23.2271 15.0218 23.0262C15.0218 22.8252 14.8694 22.7269 14.6825 22.7269V22.7269ZM11.1651 16.1032C10.339 16.1032 9.82876 16.8915 9.82876 18.198C9.82876 19.4752 10.3308 20.2483 11.1803 20.2483C12.0067 20.2483 12.5248 19.445 12.5248 18.1839C12.5248 16.9067 11.9987 16.1032 11.1651 16.1032ZM16.0961 16.1032C15.2697 16.1032 14.7585 16.8915 14.7585 18.198C14.7585 19.4752 15.2618 20.2483 16.111 20.2483C16.9366 20.2483 17.4548 19.445 17.4548 18.1839C17.4548 16.9067 16.9295 16.1032 16.0961 16.1032ZM20.8346 16.0572C20.8346 16.0572 20.6636 16.0687 20.5796 16.082C20.2553 16.1342 20.1587 16.222 20.1587 16.6214V19.7718C20.1587 20.2013 20.4263 20.2269 20.8037 20.2482C21.7248 20.3004 22.2598 19.4822 22.2598 18.1589C22.2598 16.8349 21.7284 16.0572 20.8346 16.0572C20.8346 16.0572 20.6636 16.0687 20.5797 16.082C20.2553 16.1343 20.1588 16.2221 20.1588 16.6215V19.7718C20.1588 20.2014 20.4263 20.227 20.8037 20.2482C21.7248 20.3005 22.2599 19.4822 22.2599 18.159C22.2599 16.8349 21.7284 16.0573 20.8347 16.0573L20.8346 16.0572ZM16.0962 16.1033C15.2698 16.1033 14.7585 16.8916 14.7585 18.1981C14.7585 19.4753 15.2619 20.2484 16.1111 20.2484C16.9367 20.2484 17.4548 19.4451 17.4548 18.184C17.4548 16.9068 16.9295 16.1033 16.0962 16.1033ZM14.6825 22.7268H14.1262C14.0686 22.7268 14.0084 22.747 14.0084 22.8187V23.2245C14.0084 23.2882 14.0686 23.3253 14.1262 23.3253H14.6825C14.8694 23.3253 15.0217 23.227 15.0217 23.0261C15.0217 22.8251 14.8694 22.7268 14.6825 22.7268V22.7268ZM11.1651 16.1034C10.3389 16.1034 9.8287 16.8916 9.8287 18.1981C9.8287 19.4753 10.3307 20.2484 11.1802 20.2484C12.0066 20.2484 12.5248 19.4451 12.5248 18.184C12.5248 16.9068 11.9987 16.1034 11.1651 16.1034ZM11.8402 23.5071C11.8276 23.4841 11.6425 23.1014 11.6205 23.0535C11.6 23.011 11.5488 23.0084 11.5301 23.0553C11.5089 23.1075 11.3264 23.4744 11.3141 23.5008C11.2936 23.5443 11.3166 23.5727 11.3584 23.5727H11.7949C11.8269 23.5727 11.8586 23.5443 11.8402 23.5072C11.8276 23.4841 11.6425 23.1014 11.6205 23.0535C11.6 23.011 11.5488 23.0085 11.5301 23.0554C11.5089 23.1076 11.3264 23.4744 11.3141 23.5008C11.2936 23.5443 11.3166 23.5728 11.3584 23.5728H11.7948C11.8268 23.5728 11.8586 23.5443 11.8402 23.5072L11.8402 23.5071ZM14.6825 22.7269H14.1262C14.0686 22.7269 14.0084 22.7471 14.0084 22.8188V23.2246C14.0084 23.2883 14.0686 23.3255 14.1262 23.3255H14.6825C14.8694 23.3255 15.0217 23.2271 15.0217 23.0262C15.0217 22.8252 14.8694 22.7269 14.6825 22.7269V22.7269ZM11.1651 16.1033C10.3389 16.1033 9.82872 16.8915 9.82872 18.198C9.82872 19.4752 10.3308 20.2484 11.1802 20.2484C12.0066 20.2484 12.5248 19.445 12.5248 18.1839C12.5248 16.9067 11.9987 16.1033 11.1651 16.1033ZM16.0961 16.1033C15.2697 16.1033 14.7584 16.8915 14.7584 18.198C14.7584 19.4752 15.2618 20.2484 16.111 20.2484C16.9366 20.2484 17.4548 19.445 17.4548 18.1839C17.4548 16.9067 16.9294 16.1033 16.0961 16.1033ZM20.8346 16.0572C20.8346 16.0572 20.6636 16.0687 20.5796 16.082C20.2552 16.1342 20.1587 16.222 20.1587 16.6214V19.7718C20.1587 20.2014 20.4262 20.227 20.8036 20.2482C21.7247 20.3004 22.2598 19.4822 22.2598 18.159C22.2598 16.8349 21.7283 16.0572 20.8346 16.0572C20.8346 16.0572 20.6636 16.0687 20.5796 16.0821C20.2552 16.1343 20.1587 16.2221 20.1587 16.6215V19.7718C20.1587 20.2014 20.4262 20.227 20.8036 20.2482C21.7248 20.3005 22.2598 19.4823 22.2598 18.159C22.2598 16.8349 21.7283 16.0573 20.8346 16.0573L20.8346 16.0572ZM16.0961 16.1034C15.2697 16.1034 14.7585 16.8916 14.7585 18.1981C14.7585 19.4753 15.2618 20.2485 16.111 20.2485C16.9366 20.2485 17.4548 19.4451 17.4548 18.184C17.4548 16.9068 16.9295 16.1034 16.0961 16.1034ZM14.6824 22.7268H14.1261C14.0685 22.7268 14.0084 22.747 14.0084 22.8187V23.2245C14.0084 23.2882 14.0685 23.3254 14.1261 23.3254H14.6824C14.8693 23.3254 15.0217 23.2271 15.0217 23.0261C15.0217 22.8251 14.8693 22.7268 14.6824 22.7268V22.7268ZM11.165 16.1034C10.3389 16.1034 9.82866 16.8916 9.82866 18.1981C9.82866 19.4754 10.3307 20.2485 11.1802 20.2485C12.0066 20.2485 12.5247 19.4451 12.5247 18.184C12.5247 16.9068 11.9986 16.1034 11.165 16.1034ZM11.8401 23.5071C11.8276 23.4841 11.6425 23.1014 11.6205 23.0535C11.6 23.011 11.5488 23.0084 11.5301 23.0553C11.5089 23.1076 11.3263 23.4744 11.314 23.5008C11.2936 23.5443 11.3166 23.5727 11.3583 23.5727H11.7948C11.8268 23.5727 11.8586 23.5443 11.8401 23.5072L11.8401 23.5071ZM11.165 16.1034C10.3389 16.1034 9.82865 16.8917 9.82865 18.1982C9.82865 19.4754 10.3307 20.2485 11.1802 20.2485C12.0066 20.2485 12.5247 19.4452 12.5247 18.1841C12.5247 16.9068 11.9986 16.1034 11.165 16.1034ZM16.096 16.1034C15.2696 16.1034 14.7584 16.8917 14.7584 18.1982C14.7584 19.4754 15.2617 20.2485 16.1109 20.2485C16.9365 20.2485 17.4547 19.4452 17.4547 18.1841C17.4547 16.9068 16.9294 16.1034 16.096 16.1034ZM20.8345 16.0573C20.8345 16.0573 20.6635 16.0689 20.5795 16.0822C20.2551 16.1344 20.1586 16.2222 20.1586 16.6216V19.7719C20.1586 20.2015 20.4262 20.2271 20.8035 20.2484C21.7247 20.3006 22.2597 19.4824 22.2597 18.1591C22.2597 16.835 21.7283 16.0574 20.8345 16.0574C20.8345 16.0574 20.6635 16.0689 20.5795 16.0822C20.2552 16.1345 20.1587 16.2223 20.1587 16.6216V19.772C20.1587 20.2016 20.4262 20.2272 20.8036 20.2484C21.7247 20.3006 22.2598 19.4824 22.2598 18.1592C22.2598 16.8351 21.7283 16.0574 20.8345 16.0574L20.8345 16.0573ZM16.0961 16.1035C15.2697 16.1035 14.7584 16.8918 14.7584 18.1983C14.7584 19.4755 15.2617 20.2486 16.1109 20.2486C16.9366 20.2486 17.4547 19.4453 17.4547 18.1842C17.4547 16.9069 16.9294 16.1035 16.0961 16.1035ZM11.1651 16.1035C10.3389 16.1035 9.82869 16.8918 9.82869 18.1983C9.82869 19.4755 10.3307 20.2486 11.1802 20.2486C12.0066 20.2486 12.5248 19.4453 12.5248 18.1842C12.5248 16.9069 11.9987 16.1035 11.1651 16.1035C10.3389 16.1035 9.82869 16.8918 9.82869 18.1983C9.82869 19.4755 10.3307 20.2486 11.1802 20.2486C12.0066 20.2486 12.5248 19.4453 12.5248 18.1842C12.5248 16.9069 11.9987 16.1035 11.1651 16.1035ZM16.0961 16.1035C15.2697 16.1035 14.7584 16.8918 14.7584 18.1983C14.7584 19.4755 15.2617 20.2486 16.1109 20.2486C16.9366 20.2486 17.4547 19.4453 17.4547 18.1842C17.4547 16.9069 16.9294 16.1035 16.0961 16.1035ZM20.8345 16.0574C20.8345 16.0574 20.6635 16.069 20.5796 16.0823C20.2552 16.1345 20.1587 16.2223 20.1587 16.6217V19.772C20.1587 20.2016 20.4262 20.2272 20.8036 20.2485C21.7247 20.3007 22.2598 19.4825 22.2598 18.1592C22.2598 16.8351 21.7283 16.0575 20.8346 16.0575C20.8346 16.0575 20.6636 16.069 20.5796 16.0823C20.2552 16.1346 20.1587 16.2224 20.1587 16.6217V19.7721C20.1587 20.2017 20.4262 20.2273 20.8036 20.2485C21.7247 20.3007 22.2598 19.4825 22.2598 18.1593C22.2598 16.8352 21.7283 16.0575 20.8346 16.0575L20.8345 16.0574ZM16.0961 16.1036C15.2697 16.1036 14.7585 16.8919 14.7585 18.1984C14.7585 19.4756 15.2618 20.2487 16.111 20.2487C16.9366 20.2487 17.4548 19.4454 17.4548 18.1843C17.4548 16.907 16.9294 16.1036 16.0961 16.1036ZM11.1651 16.1036C10.339 16.1036 9.82873 16.8919 9.82873 18.1984C9.82873 19.4756 10.3308 20.2487 11.1802 20.2487C12.0066 20.2487 12.5248 19.4454 12.5248 18.1843C12.5248 16.907 11.9987 16.1036 11.1651 16.1036Z" fill="#006F46"/>
</g>
<defs>
<clipPath id="clip0_400_18109">
<rect width="31" height="31" fill="white"/>
</clipPath>
</defs>
</svg>
